<svg width="40" height="40" viewBox="0 0 40 40" fill="none" xmlns="http://www.w3.org/2000/svg">
<g clip-path="url(#clip0_13779_631827)">
<mask id="mask0_13779_631827" style="mask-type:alpha" maskUnits="userSpaceOnUse" x="0" y="0" width="40" height="40">
<path d="M40 20C40 8.95431 31.0456 0 20 0C8.95431 0 0 8.95431 0 20C0 31.0456 8.95431 40 20 40C31.0456 40 40 31.0456 40 20Z" fill="url(#paint0_radial_13779_631827)"/>
</mask>
<g mask="url(#mask0_13779_631827)">
<path d="M40 19.998C40 8.95236 31.0456 -0.00195312 20 -0.00195312C8.95431 -0.00195312 0 8.95236 0 19.998C0 31.0437 8.95431 39.998 20 39.998C31.0456 39.998 40 31.0437 40 19.998Z" fill="url(#paint1_radial_13779_631827)"/>
<path d="M33.5998 13.7564C33.5161 14.2459 33.4181 14.4833 33.3034 14.7581L33.3032 14.7588C33.1792 15.0565 33.0387 15.3945 32.9115 16.0651C32.8608 16.3335 32.8356 16.5305 32.8136 16.704L32.8121 16.7148L32.8108 16.7249C32.7755 17.0028 32.7518 17.1901 32.6388 17.5234C32.5472 17.7954 32.3939 18.2496 32.0249 18.7388C31.7267 19.1345 31.2277 19.797 30.5618 19.8763C30.504 19.8802 30.3831 19.8862 30.3337 19.861C28.4447 18.8963 26.8217 18.1837 26.26 18.0237C25.6066 17.8385 25.6902 16.4139 25.7642 15.1569C25.7974 14.5951 25.8286 14.064 25.8023 13.6091C25.7105 12.0224 25.4296 10.2855 24.0476 9.4388C23.2227 8.93352 22.1584 8.78521 21.1416 8.78305C21.33 8.69337 21.5402 8.57158 21.7691 8.43836L21.7762 8.43426C22.3748 8.08763 23.1181 7.65715 23.8566 7.58149C24.0981 7.55756 24.3354 7.52975 24.5695 7.50367C26.0582 7.33509 27.3445 7.19023 28.701 7.65478C29.3161 7.86582 30.5775 8.56964 30.9033 9.22302C31.1326 9.68433 31.5196 10.0439 32.2915 10.7615C32.6933 11.1353 32.958 11.3528 33.1518 11.5119L33.1607 11.5192C33.4327 11.743 33.4864 11.7898 33.5675 11.9551C33.8175 12.4649 33.7263 13.0064 33.5998 13.7564Z" fill="white"/>
<path d="M26.7285 20.2793C26.818 20.3101 26.8514 20.4188 26.7994 20.4977C26.5976 20.8038 26.3666 21.2237 26.0896 21.7371C25.9596 21.9792 25.8365 22.2077 25.7332 22.386C25.3672 23.0146 25.3374 23.5436 25.3142 23.9682C25.2889 24.4123 25.2665 24.6162 25.0012 24.7932C24.7821 24.94 24.5577 24.989 23.0024 25.2259C22.731 25.2679 22.6105 25.3205 22.5047 25.3666C22.4758 25.3791 22.4471 25.3916 22.4144 25.4039C22.3245 25.4375 22.2365 25.361 22.2419 25.2655C22.2542 25.0413 22.2622 24.7613 22.263 24.4091V24.3416C22.2712 24.0368 22.2585 23.7895 22.2475 23.5901C22.227 23.1931 22.2245 23.0258 22.3303 22.8529C22.4603 22.644 22.5616 22.5802 22.7282 22.4746C22.9608 22.3284 23.2799 22.1273 23.752 21.4785C24.0029 21.1349 24.0585 20.9486 24.0932 20.7876C24.1083 20.7208 24.1137 20.6958 24.3068 20.5494C24.511 20.3944 25.1333 19.923 25.9298 20.0568C26.1501 20.0941 26.4308 20.1765 26.7285 20.2793Z" fill="white"/>
<path d="M20.5399 27.4496C20.506 27.4937 20.4664 27.5142 20.4092 27.517C20.2467 27.5239 20.1325 27.4836 20.0568 27.3926C19.8964 27.1973 19.918 26.805 19.9555 26.5756L20.6132 26.4004C20.6647 26.7485 20.6888 27.2558 20.5399 27.4496Z" fill="white"/>
<path d="M20.5933 25.0755C20.5823 25.1714 20.5703 25.2794 20.5707 25.3923C20.5716 25.4344 20.572 25.4768 20.5733 25.518C20.5746 25.6256 20.5789 25.7963 20.564 25.8739C20.3586 25.9487 20.1831 25.9487 19.9525 25.9446C19.949 25.878 19.9533 25.7786 19.9559 25.7116C19.9572 25.6598 19.96 25.6083 19.9606 25.5592C19.9613 25.5046 19.9606 25.451 19.9606 25.3973C19.9598 25.2708 19.9581 25.0634 19.9891 25.0024C20.051 24.9933 20.1143 24.9797 20.1822 24.9642C20.3183 24.9349 20.4957 24.8974 20.6086 24.9144C20.6069 24.9584 20.6 25.0237 20.5933 25.0755Z" fill="white"/>
<path d="M19.376 27.2483C19.3443 27.5854 19.2402 28.0023 18.924 28.0657C18.7817 28.095 18.7129 28.0521 18.6696 28.0114C18.456 27.8135 18.4219 27.2155 18.4517 26.7878C18.5939 26.7904 18.7804 26.7585 19.0011 26.7158C19.1359 26.6891 19.2699 26.6593 19.3766 26.6348C19.3889 26.793 19.3978 27.0189 19.376 27.2483Z" fill="white"/>
<path d="M19.2272 26.0363L18.5137 26.2866C18.5499 26.0096 18.5982 25.6198 18.6152 25.3609C18.6275 25.1786 18.6771 25.1227 18.6913 25.1107C18.696 25.1066 18.7055 25.0979 18.732 25.0979C18.7361 25.0979 18.7402 25.0986 18.7448 25.0986L18.7598 25.1007L19.2106 25.0762C19.2298 25.2881 19.2298 25.7535 19.2272 26.0363Z" fill="white"/>
<path d="M18.0739 25.8149C18.0336 25.9223 17.986 26.2264 17.9562 26.4405L17.0625 26.4133C17.1129 26.1365 17.1828 25.8548 17.2595 25.6304C17.3371 25.4073 17.4208 25.24 17.4977 25.193C17.5874 25.1391 17.7849 25.127 17.9058 25.2303C18.1024 25.398 18.1567 25.5899 18.0739 25.8149Z" fill="white"/>
<path d="M17.7401 28.5509C17.6709 28.6455 17.594 28.6936 17.4987 28.7037C17.4015 28.7147 17.3258 28.693 17.2654 28.6365C16.9848 28.3774 17.0076 27.5285 17.018 27.1204C17.3885 27.0359 17.7886 26.9641 17.9783 26.9531C18.0068 27.2948 18.015 28.1769 17.7401 28.5509Z" fill="white"/>
<path d="M16.5737 26.3889C16.5302 26.5053 16.4879 26.6152 16.456 26.7127C16.3521 26.7452 16.0344 26.7168 15.71 26.6452L15.9331 25.2386C16.2995 25.1414 16.7246 25.1102 16.8275 25.219C16.9628 25.3628 16.6908 26.0824 16.5737 26.3889Z" fill="white"/>
<path d="M16.169 28.7653C15.9957 28.9789 15.7357 29.0787 15.3732 29.0748C15.1222 29.0707 15.0326 28.9754 14.9877 28.9041C14.7864 28.5853 14.9834 27.8336 15.1809 27.3535L16.3915 27.4262C16.4038 27.5104 16.4139 27.6131 16.4186 27.7247C16.432 28.0664 16.3891 28.4919 16.169 28.7653Z" fill="white"/>
<path d="M26.1735 18.5582C25.0836 18.2495 25.1774 16.6558 25.2681 15.1156C25.3002 14.5706 25.3306 14.0552 25.3058 13.634C25.2222 12.1923 24.9797 10.6221 23.8201 9.91137C22.5729 9.14869 20.5326 9.32244 19.2737 9.48261C19.2727 9.48282 19.2716 9.48347 19.2705 9.48368C19.2699 9.48368 19.2694 9.48368 19.269 9.4839C18.8079 9.62359 18.3765 9.7141 18.0422 9.69643C17.2994 9.65806 16.7214 9.34529 16.2125 9.07087C15.8154 8.85574 15.469 8.66992 15.1428 8.66992C15.1256 8.66992 15.1075 8.66992 15.0896 8.67057C14.1137 8.73395 13.6651 8.97236 13.2577 9.33602C13.1553 9.42656 13.0303 9.68933 12.6211 10.8683C12.4146 11.4641 12.3765 11.79 12.3381 12.1069C12.3036 12.3964 12.2685 12.6941 12.1146 13.1382C12.0074 13.4447 11.9283 13.709 11.8518 13.9638C11.65 14.6409 11.4905 15.1742 11.0113 15.8084C10.955 15.8834 10.8854 15.9938 10.8048 16.1195C10.6961 16.2906 10.5616 16.5034 10.3842 16.7498C10.259 16.9233 9.97141 17.5728 9.98715 17.7707C10.0106 18.0858 10.113 18.2814 10.2303 18.5096C10.3469 18.7347 10.4797 18.9895 10.5039 19.3413L10.508 19.3984C10.5506 19.9565 10.4711 20.2365 9.40943 21.1848C8.73061 21.7924 8.24839 22.3774 7.9231 22.8068C7.89443 22.8447 7.93172 22.901 7.97915 22.8971C7.99014 22.8956 8.00114 22.895 8.01127 22.895C8.03175 22.8933 8.05201 22.8926 8.07227 22.8926C8.09254 22.8926 8.11302 22.8933 8.13306 22.8941C8.15354 22.895 8.17316 22.8965 8.19321 22.8995C8.44995 22.9288 8.70022 23.0375 8.88086 23.2246C8.91234 23.2571 8.96127 23.266 9.00309 23.2492C9.17597 23.1772 9.36589 23.189 9.54739 23.206C9.77158 23.2267 9.99793 23.2938 10.1467 23.4384C10.1915 23.4822 10.2555 23.5044 10.3167 23.4904C10.4924 23.4505 10.6767 23.4542 10.8477 23.5162C10.9826 23.5665 11.096 23.6458 11.1861 23.7456C11.2491 23.8154 11.3607 23.8288 11.4396 23.7779C11.4888 23.7462 11.5429 23.7195 11.603 23.6993C11.8335 23.621 12.0885 23.6656 12.3122 23.746C12.4224 23.7857 12.5379 23.821 12.6373 23.8874C12.8199 24.009 12.9313 24.1866 13.0025 24.3852C13.0428 24.4971 13.1935 24.5359 13.2849 24.4598C13.4491 24.3231 13.5791 24.3 13.7102 24.3582C13.777 24.3884 13.8236 24.4298 13.8548 24.4818C13.9094 24.5721 14.0204 24.6464 14.1219 24.618C14.4787 24.5186 14.9253 24.5704 15.2489 24.7437C15.3631 24.8036 15.4755 24.8952 15.5574 25.0336L15.5576 25.0338C15.5578 25.0345 15.5585 25.0343 15.5585 25.0336L15.5679 24.9722C15.5722 24.9444 15.5919 24.9213 15.6188 24.9129L15.6938 24.8898C15.8706 24.8336 16.7712 24.574 17.1215 24.9429C17.1366 24.9579 17.1629 24.9595 17.1776 24.9437C17.2252 24.8913 17.264 24.8627 17.2888 24.8484C17.5169 24.71 17.9081 24.7014 18.1683 24.9243C18.2207 24.9683 18.3056 24.9523 18.3451 24.8963C18.3694 24.862 18.397 24.8316 18.4281 24.8055C18.5195 24.7266 18.6352 24.6889 18.7635 24.6969L19.2582 24.6702C19.3826 24.6633 19.7693 24.637 19.8911 24.6113C19.9004 24.6094 19.9099 24.6076 19.9196 24.6061C19.9711 24.5982 20.0323 24.585 20.0963 24.5716C20.3363 24.5193 20.6085 24.4604 20.8321 24.5637C21.0468 24.663 21.0196 24.9077 20.9937 25.1235C20.9836 25.211 20.9726 25.3024 20.9735 25.3893C20.975 25.4298 20.9758 25.4706 20.9765 25.5122C20.9797 25.6982 20.9836 25.87 20.9467 26.0019V26.0028V26.0034L20.9694 26.1056C20.9705 26.1095 20.9715 26.1145 20.9728 26.1205C20.9931 26.214 21.0935 26.2662 21.1752 26.2164C21.3477 26.1112 21.529 25.9746 21.5837 25.8959C21.5877 25.8898 21.591 25.8836 21.5934 25.8767C21.6009 25.8569 21.6149 25.814 21.6302 25.7243C21.6608 25.5404 21.6951 25.1668 21.6981 24.4082C21.6981 24.3682 21.6981 24.3395 21.699 24.3261C21.7052 24.0446 21.6942 23.8187 21.6832 23.6193C21.663 23.208 21.6464 22.8844 21.8505 22.555C22.0493 22.2345 22.2422 22.1133 22.4276 21.9958C22.6432 21.8607 22.8865 21.7072 23.2963 21.1452C23.4972 20.8684 23.522 20.7567 23.5416 20.6675C23.5863 20.4586 23.6552 20.3329 23.9654 20.0984C24.2181 19.9076 24.9866 19.3251 26.0234 19.4995C26.3634 19.5573 26.9146 19.7386 27.4585 19.9529C27.4585 19.9529 27.4589 19.9531 27.4593 19.9531H27.46C27.4802 19.9591 27.5012 19.9662 27.5203 19.9764C27.5272 19.98 27.5344 19.9835 27.5417 19.9865C28.0276 20.1805 28.5003 20.3971 28.8032 20.5702C28.8737 20.6106 28.964 20.5873 29.0136 20.5228C29.1127 20.3941 29.2209 20.3195 29.3376 20.2495C29.3813 20.223 29.415 20.2027 29.4471 20.1753C29.4581 20.1661 29.4688 20.157 29.4794 20.1484C29.5699 20.0751 29.5697 19.9184 29.466 19.8649C28.0047 19.1094 26.6283 18.6875 26.1735 18.5582ZM15.788 18.8936C15.4509 20.3689 13.1655 21.9907 12.1266 21.9907H12.1062C12.0898 21.9898 12.0717 21.9883 12.0523 21.9851C12.0327 21.9821 12.0115 21.9773 11.9891 21.9711C11.9781 21.9678 11.9663 21.9639 11.9546 21.9609C11.766 21.9014 11.5049 21.7566 11.3073 21.5621C11.1713 21.4286 11.0641 21.2711 11.0305 21.1014C11.0242 21.0717 11.018 21.0421 11.0115 21.0124C10.9555 20.7615 10.8856 20.448 11.107 19.935C11.1376 19.8662 11.1648 19.802 11.1898 19.7433C11.1978 19.7239 11.2064 19.7043 11.2141 19.6856C11.2376 19.6302 11.2586 19.5793 11.2775 19.5332C11.3088 19.4551 11.3344 19.3887 11.3556 19.3322C11.3642 19.3103 11.3722 19.2891 11.3791 19.2697C11.4424 19.0923 11.4502 19.0259 11.4588 18.9572C11.4668 18.9033 11.4746 18.8373 11.4965 18.7435C11.5614 18.4668 11.5951 18.2322 11.6248 18.0233C11.678 17.6478 11.7242 17.3236 11.9266 17.0257C11.9611 16.975 11.9992 16.9287 12.0424 16.8881C12.0572 16.8741 12.0715 16.8608 12.0868 16.8474C12.1025 16.8341 12.1182 16.8224 12.1335 16.8106C12.1827 16.7761 12.2353 16.7457 12.2922 16.7198C12.3118 16.7112 12.3314 16.7026 12.3508 16.6957C12.3909 16.6808 12.433 16.6681 12.4769 16.6571C12.663 16.612 12.8826 16.6049 13.1351 16.6368C13.4112 16.6588 13.6669 16.711 13.8934 16.7743C14.0827 16.8265 14.2517 16.8877 14.3946 16.9446C14.4095 16.9502 14.4237 16.9556 14.4377 16.9619C14.4651 16.9729 14.4916 16.9839 14.5175 16.9957C14.5567 17.0121 14.5925 17.0278 14.6261 17.0425C14.6708 17.0628 14.7115 17.0809 14.7475 17.097L14.7811 17.1128C14.9406 17.1854 15.0777 17.2652 15.1948 17.3488C15.2526 17.3913 15.3067 17.4342 15.355 17.4777C15.3716 17.492 15.3873 17.5068 15.4017 17.5224C15.4175 17.5374 15.4323 17.5523 15.4464 17.5672C15.8855 18.0296 15.8637 18.5644 15.788 18.8936ZM16.8471 13.3016L16.8027 13.5691C16.7003 14.1718 16.4649 14.9983 15.597 15.2111C14.7622 15.4152 14.5643 15.4587 13.9699 15.4855C13.9568 15.487 13.9426 15.487 13.9286 15.487C13.4946 15.487 12.6595 15.2134 12.5116 14.5331C12.417 14.0953 12.6102 13.778 12.9283 13.2518C12.9814 13.1649 13.0387 13.0718 13.0995 12.9679C13.5201 12.2593 13.6858 11.7465 13.819 11.3352C13.9486 10.9334 14.0566 10.6012 14.3343 10.3259C14.3983 10.2619 14.4709 10.2015 14.5554 10.1437C14.6093 10.1069 14.6656 10.0741 14.7251 10.0435C14.804 10.0043 14.8867 9.97022 14.9736 9.94262C15.1668 9.88097 15.3754 9.84972 15.5843 9.84972C15.9892 9.84972 16.3936 9.96612 16.682 10.1976C16.8118 10.3015 16.9963 10.5093 17.1034 11.1224C17.1586 11.4382 17.0646 12.0185 16.8471 13.3016ZM23.0387 15.017C22.7399 15.5299 22.5765 15.8123 22.3185 16.024C21.8065 16.4445 21.2093 16.551 20.7174 16.551C20.3641 16.551 20.064 16.4965 19.8872 16.4641C19.3789 16.3712 18.433 16.1992 18.1179 15.4525C18.0562 15.3048 18.0556 15.2111 18.0556 15.0921C18.0556 14.9746 18.0556 14.7771 18.0008 14.307L17.9978 14.2757C17.9726 14.063 17.9446 13.8222 18.0056 13.5133L18.0127 13.4764C18.1909 12.5697 18.2392 12.4311 18.2793 12.3529C18.3716 12.1746 18.5904 12.1043 18.7687 12.1959C18.9413 12.2858 19.0133 12.4951 18.9321 12.671C18.914 12.7226 18.8633 12.9157 18.7255 13.6172L18.7184 13.654C18.6792 13.8519 18.6964 14.0019 18.7193 14.1921L18.7223 14.2242C18.7816 14.7347 18.7816 14.966 18.7816 15.0912C18.7816 15.1134 18.7816 15.1376 18.7825 15.152C18.7827 15.1576 18.7855 15.1649 18.7872 15.1703C18.8463 15.3104 18.9795 15.4167 19.1418 15.4984C19.2427 15.5491 19.3481 15.4527 19.3257 15.3421C19.1642 14.543 19.1731 13.6109 19.4783 13.0349C19.5783 12.8437 19.7633 12.5307 19.939 12.2386C19.9396 12.2378 19.94 12.2371 19.9405 12.2362C19.9409 12.2354 19.9416 12.2347 19.942 12.2339C19.9599 12.2043 19.9776 12.1752 19.9952 12.1459C20.0101 12.1207 20.025 12.0968 20.0388 12.0733C20.1162 11.9448 20.1888 11.8269 20.247 11.7331C20.2548 11.7198 20.2625 11.7064 20.2705 11.6939C20.2759 11.6844 20.2815 11.6758 20.2869 11.668C20.2994 11.6475 20.3104 11.6288 20.3207 11.6126C20.3253 11.6049 20.33 11.5977 20.3339 11.5906C20.3363 11.5876 20.338 11.5844 20.3395 11.582C20.3449 11.5725 20.3505 11.5639 20.3552 11.557C20.3645 11.5421 20.3716 11.5311 20.3755 11.524C20.3759 11.5234 20.3761 11.5229 20.3764 11.5223C20.3772 11.5208 20.3789 11.5184 20.3798 11.5169C20.3804 11.5158 20.3807 11.5156 20.3813 11.5145C20.4419 11.4264 20.5018 11.3425 20.56 11.2636C20.6391 11.1565 20.5475 11.0161 20.4242 11.0666C20.1276 11.1875 19.925 11.3421 19.8838 11.3746C19.7266 11.4999 19.4981 11.474 19.374 11.3169C19.2496 11.1599 19.2755 10.9308 19.4326 10.8055C19.6195 10.6587 20.61 9.93616 21.7962 10.2755C22.6509 10.5186 23.0989 11.1716 23.2677 11.4171C23.4037 11.6165 23.8206 12.2218 23.8072 13.0668C23.7973 13.7114 23.5285 14.175 23.0387 15.017Z" fill="white"/>
<path d="M15.3347 10.5977C15.274 10.7447 15.2013 10.9268 15.1233 11.1247C14.9409 11.583 14.7342 12.1021 14.6348 12.2903C14.4634 12.6156 14.33 12.8208 14.2235 12.9861C14.1015 13.176 14.0043 13.3263 13.931 13.5358C13.8023 13.9023 13.7792 14.3119 13.8629 14.7572C13.6357 14.7322 13.2638 14.5757 13.2218 14.3785C13.1903 14.2317 13.2815 14.0711 13.5503 13.6289C13.6042 13.5408 13.6619 13.4449 13.7251 13.3381C14.187 12.5602 14.374 11.9814 14.5115 11.5582C14.6598 11.0978 14.7299 10.9046 14.9659 10.7434C15.0715 10.6699 15.2 10.6231 15.3347 10.5977Z" fill="white"/>
<path d="M14.8835 26.9123C14.6318 27.4266 14.3183 27.9013 14.123 28.1365C13.9613 27.6993 13.6802 26.6976 13.7544 25.8916C13.7566 25.8683 13.7591 25.8452 13.7626 25.8228C13.7923 25.5738 13.8585 25.3456 13.9762 25.1625C14.0538 25.0423 14.2687 24.9688 14.5128 24.9688C14.693 24.9688 14.8889 25.0082 15.0577 25.0987H15.059C15.1493 25.147 15.2724 25.2449 15.2854 25.5292C15.3039 25.9134 15.1209 26.4296 14.8835 26.9123Z" fill="white"/>
<path d="M28.6793 21.1475C28.6987 21.1633 28.711 21.187 28.6998 21.2094C28.6245 21.3605 28.5344 21.4666 28.4279 21.5915C28.2994 21.7445 28.1524 21.9179 28.0158 22.1884C27.8211 22.5719 27.7588 22.922 27.726 23.8176C27.6875 24.8698 27.7282 25.4607 27.7588 25.8916C27.7879 26.3079 27.8058 26.5588 27.7316 26.9647C27.582 27.7836 27.2317 28.3258 26.7881 29.0119C26.233 29.8701 25.659 30.7574 24.7083 31.0402C24.6199 31.0673 24.6169 31.0671 24.369 31.068C24.1532 31.068 23.7943 31.0691 23.1149 31.0941C21.873 31.1391 21.25 31.1615 20.7169 31.2639C20.1577 31.3721 19.866 31.4909 19.5832 31.6052C19.328 31.7084 19.0868 31.8065 18.6244 31.9016C18.3487 31.9572 17.9367 32.0182 16.533 32.0204C15.074 32.0229 14.1932 32.0236 13.0302 31.891C11.4346 31.7089 10.6336 31.6177 10.1016 31.3336C8.84675 30.6642 8.31688 29.4605 7.44039 27.4663C7.43888 27.4629 7.43735 27.4592 7.43584 27.4555C7.42507 27.4307 7.45527 27.407 7.47855 27.4208C7.52015 27.4467 7.56348 27.468 7.60918 27.4833C7.64755 27.4969 7.68741 27.5073 7.72772 27.5139C7.80791 27.5275 7.89157 27.5284 7.9765 27.5139C7.99138 27.5114 8.00496 27.5077 8.01811 27.5023C8.0207 27.5012 8.02307 27.5001 8.02565 27.4991C8.04053 27.4917 8.05883 27.4978 8.06508 27.5131C8.12091 27.6668 8.20953 27.8037 8.35827 27.8826C8.50723 27.9602 8.67666 27.966 8.84243 27.9647C9.01316 27.9621 9.18518 27.9526 9.35526 27.9321C9.44537 27.9227 9.53761 27.9666 9.5721 28.0505C9.72796 28.4282 9.92091 28.7015 10.2108 28.7418C10.2266 28.744 10.2471 28.7468 10.2729 28.7468C10.3382 28.7468 10.4391 28.7278 10.5814 28.6299C10.6916 28.5545 10.8621 28.5987 10.9412 28.7062C11.0136 28.8043 11.0998 28.875 11.174 28.9345C11.4725 29.2411 12.1981 29.3881 12.8075 29.3881C13.1399 29.3881 13.4381 29.3443 13.6136 29.259C13.8645 29.1372 13.8645 28.95 13.8522 28.8744C13.8308 28.7388 13.8114 28.6043 13.795 28.4711C13.7931 28.4551 13.8173 28.4489 13.8237 28.4637C13.8602 28.5433 13.9048 28.6424 14.0236 28.6616C14.0365 28.6629 14.0509 28.6659 14.0673 28.6659C14.2372 28.6659 14.5015 28.7211 14.5469 28.8847C14.5702 28.9682 14.603 29.0462 14.6476 29.1167C14.7496 29.2781 14.9572 29.4704 15.3687 29.4773H15.4006C15.8731 29.4773 16.2379 29.3228 16.4838 29.0173C16.4998 28.9977 16.5151 28.9774 16.5297 28.9569C16.6181 28.8323 16.8807 28.827 16.993 28.9304C17.1195 29.0475 17.2788 29.1078 17.4562 29.1078C17.4847 29.1078 17.5136 29.1065 17.5433 29.1031C17.7548 29.0807 17.9378 28.9688 18.0745 28.7776C18.1639 28.6528 18.2293 28.4993 18.2769 28.3333C18.2909 28.2844 18.3581 28.2697 18.3957 28.304C18.486 28.3876 18.6308 28.476 18.8397 28.476C18.8906 28.476 18.9458 28.4706 19.0044 28.4583C19.4149 28.3758 19.6192 28.036 19.716 27.6526C19.7192 27.6396 19.7378 27.6362 19.7464 27.6463C19.8503 27.7728 20.0422 27.919 20.3761 27.919C20.3931 27.919 20.4108 27.919 20.4282 27.9181C20.605 27.9099 20.7539 27.8323 20.8615 27.6935C20.9924 27.523 21.0439 27.2704 21.0557 27.016C21.0592 26.9418 21.107 26.8765 21.1756 26.8478C21.5278 26.7006 21.9545 26.3835 22.0795 26.1675C22.0838 26.16 22.0881 26.152 22.0924 26.1438C22.1211 26.0882 22.1703 26.0444 22.2317 26.0328C22.5046 25.9811 22.6236 25.9293 22.7318 25.8823C22.82 25.8435 22.8909 25.8129 23.0892 25.7821C24.6672 25.5413 24.9752 25.4883 25.3167 25.2606C25.8273 24.92 25.8532 24.4514 25.8784 23.9978C25.9 23.6144 25.9246 23.1789 26.2225 22.6682C26.3307 22.4818 26.4555 22.2492 26.5883 22.003C26.8207 21.5721 27.1453 20.9688 27.3777 20.6526C27.4214 20.5929 27.5006 20.5743 27.5687 20.6032C28.1141 20.835 28.5786 21.0669 28.6793 21.1475Z" fill="white"/>
<path d="M13.3547 25.8431C13.2922 26.3887 13.254 27.1175 13.3424 28.0668C13.3674 28.3348 13.4023 28.6129 13.4457 28.8946C13.3709 28.9354 13.1475 28.9925 12.7505 28.9862C12.1799 28.9748 11.6243 28.8312 11.4575 28.6508L11.4316 28.6275C11.2928 28.5161 11.2018 28.4426 11.1889 28.2434C11.1846 28.1761 11.2135 28.1095 11.2751 28.0153C11.3092 27.9623 11.354 27.9011 11.4096 27.8256C11.5056 27.6969 11.6246 27.5365 11.7464 27.3296C12.1035 26.7262 12.2389 26.54 12.4109 26.3046C12.4245 26.2856 12.439 26.2664 12.4538 26.2468C12.5552 26.108 12.6741 25.942 12.8531 25.6693C12.9863 25.4669 13.0971 25.3082 13.1885 25.1836C13.3409 24.9765 13.4407 24.864 13.5047 24.8027C13.4952 24.8967 13.4741 25.0286 13.4536 25.1504C13.4235 25.3378 13.3853 25.5669 13.3547 25.8431Z" fill="white"/>
<path d="M13.0938 17.3616C13.0903 17.3664 13.0862 17.3711 13.0828 17.3761C13.0086 17.4789 12.9237 17.5951 12.8224 17.8214C12.5503 18.4261 12.5452 18.7684 12.5409 19.0437C12.5383 19.1879 12.5368 19.3028 12.4973 19.4369C12.4701 19.5253 12.426 19.6266 12.3749 19.7434C12.2145 20.1107 12.005 20.5923 12.0989 21.2403C11.969 21.1778 11.7702 21.0349 11.7426 20.9588C11.7357 20.9234 11.7282 20.8887 11.7202 20.854C11.6751 20.6518 11.6454 20.5201 11.7739 20.2241C12.1119 19.4446 12.1535 19.2599 12.18 19.0476C12.1854 19.0012 12.191 18.9652 12.2046 18.9066C12.2759 18.5992 12.3132 18.336 12.3438 18.1245C12.3893 17.8035 12.4199 17.5912 12.5281 17.4315C12.5676 17.3724 12.6792 17.3418 12.839 17.3418C12.9021 17.3418 12.9735 17.3465 13.0513 17.3575L13.0694 17.3588C13.0774 17.3597 13.0858 17.3603 13.0938 17.3616Z" fill="white"/>
<path d="M12.6475 25.0503C12.6292 24.8634 12.5965 24.6761 12.5286 24.5C12.5238 24.4911 12.5035 24.4461 12.4992 24.4375C12.4869 24.4151 12.4729 24.3939 12.4598 24.3717C12.4589 24.3709 12.4585 24.3709 12.4585 24.3702C12.4576 24.3689 12.4572 24.3689 12.4572 24.3683C12.4497 24.3601 12.4428 24.3521 12.4354 24.3443C12.4244 24.3334 12.4126 24.3228 12.4007 24.3131C12.3986 24.3105 12.3966 24.3083 12.3947 24.3075C12.3893 24.303 12.3811 24.2965 12.3723 24.2913C12.3578 24.2838 12.3442 24.2756 12.3302 24.2685C12.3259 24.2657 12.3158 24.2616 12.3063 24.2581C12.3063 24.2581 12.3057 24.2581 12.3057 24.2575C12.3035 24.2566 12.3013 24.2562 12.2996 24.2553C12.2975 24.254 12.2962 24.2532 12.2949 24.2527C12.2927 24.2519 12.2914 24.2514 12.2901 24.2514C12.2888 24.2514 12.2888 24.2506 12.2888 24.2506C12.2845 24.2484 12.2819 24.248 12.28 24.2471C12.1711 24.2072 12.0608 24.1635 11.9452 24.1465C11.9446 24.1465 11.9426 24.1458 11.9411 24.1458H11.9385C11.9256 24.1458 11.8991 24.1432 11.8978 24.1432C11.8816 24.1424 11.8659 24.1424 11.8502 24.1432C11.8426 24.1432 11.8353 24.1432 11.8284 24.1439H11.8224C11.8198 24.1439 11.8165 24.1447 11.8131 24.1447C11.8118 24.146 11.8096 24.146 11.8088 24.146C11.8081 24.146 11.8075 24.146 11.8075 24.146C11.7816 24.1536 11.7545 24.1605 11.7286 24.1684C11.7176 24.1741 11.7055 24.1794 11.6945 24.1863C11.6853 24.1917 11.6756 24.1986 11.6661 24.2034C11.6654 24.204 11.6641 24.2053 11.6626 24.2053L11.6607 24.2075C11.6484 24.2198 11.6355 24.2312 11.6232 24.2435C11.6191 24.2478 11.6077 24.2618 11.5995 24.2721C11.5973 24.2734 11.596 24.2747 11.596 24.276C11.5954 24.2767 11.5954 24.2767 11.5947 24.2773C11.5941 24.278 11.5941 24.2786 11.5926 24.2792C11.5919 24.2801 11.5919 24.2808 11.5913 24.2808C11.588 24.2866 11.5846 24.2915 11.5833 24.2943C11.5395 24.3622 11.4953 24.4297 11.4499 24.4968C11.3451 24.6573 11.2377 24.8171 11.1289 24.9757C11.0295 25.1193 10.9303 25.2629 10.8316 25.4062C10.7764 25.4866 10.7221 25.566 10.6678 25.6464C10.6583 25.6599 10.6495 25.6735 10.6406 25.6871C10.7051 25.6994 10.7697 25.7121 10.8351 25.7244C10.9812 25.7511 11.1267 25.7768 11.275 25.797C11.5803 25.8387 11.8907 25.8578 12.2 25.8468C12.2149 25.846 12.2298 25.8468 12.2436 25.8494C12.3179 25.7434 12.4055 25.6168 12.5171 25.4474C12.579 25.3528 12.6381 25.2652 12.6937 25.1842C12.6687 25.1454 12.6529 25.099 12.6475 25.0503Z" fill="white"/>
<path d="M11.5609 26.3114C11.5346 26.5468 11.2712 27.156 10.8603 27.7361C10.5162 28.2211 10.3074 28.3388 10.2658 28.3429C10.0998 28.3198 9.93596 27.9089 9.80598 27.5015C9.75381 27.3364 9.70658 27.1717 9.66713 27.0337C9.5781 26.7238 9.56195 26.3079 9.57748 26.0469C9.92454 26.2392 10.5337 26.2909 11.3895 26.2943H11.3921C11.4486 26.3004 11.5044 26.3066 11.5609 26.3114Z" fill="white"/>
<path d="M10.9521 24.3737C10.9521 24.3746 10.9521 24.3746 10.9521 24.375C10.948 24.3806 10.9446 24.3866 10.9407 24.392C10.7937 24.6082 10.6456 24.8234 10.4973 25.0387C10.4205 25.1497 10.3444 25.2605 10.2688 25.3722C10.2274 25.4328 10.1715 25.4994 10.1233 25.5714C10.0015 25.5427 9.87989 25.5149 9.75939 25.4808C9.66087 25.4524 9.56365 25.4218 9.46816 25.3836C9.44897 25.3767 9.43065 25.3692 9.41297 25.3606C9.39724 25.3287 9.37482 25.3 9.34766 25.2782C9.3483 25.2776 9.3483 25.2756 9.34895 25.2748C9.38366 25.2041 9.41901 25.1327 9.45371 25.062C9.51968 24.9322 9.58586 24.8031 9.65915 24.6779C9.79 24.4519 9.94758 24.2222 10.1687 24.0758C10.1797 24.0676 10.1918 24.06 10.2035 24.0527C10.2892 23.9988 10.375 23.9609 10.4802 23.948C10.4925 23.9467 10.5667 23.9471 10.6014 23.9501C10.6074 23.9501 10.6124 23.9508 10.6158 23.9508H10.6165C10.6191 23.9516 10.624 23.9529 10.6314 23.9555C10.6572 23.9637 10.6833 23.9691 10.7092 23.9779C10.718 23.9822 10.726 23.9861 10.735 23.9909C10.7575 24.0044 10.7805 24.0167 10.8016 24.0337C10.7676 24.0079 10.8486 24.0915 10.8486 24.0855C10.914 24.1758 10.9338 24.2515 10.9521 24.3737Z" fill="white"/>
<path d="M9.78765 23.7603C9.5156 23.9841 9.31771 24.282 9.15259 24.592C9.05989 24.764 8.97626 24.9395 8.88917 25.1143C8.88033 25.1322 8.87149 25.1492 8.86136 25.1667C8.77901 25.1488 8.69667 25.1251 8.61626 25.0994C8.53068 25.0722 8.44553 25.041 8.36405 25.003C8.32675 24.9852 8.28925 24.9668 8.25195 24.9472C8.33344 24.7929 8.43066 24.6446 8.52335 24.5006C8.65398 24.2971 8.7954 24.0972 8.94909 23.9095C9.00687 23.8381 9.06809 23.7599 9.14914 23.7129C9.23192 23.6639 9.33215 23.6756 9.42722 23.681C9.52789 23.6872 9.6361 23.6898 9.73117 23.728C9.75078 23.7364 9.77212 23.7495 9.78765 23.7603Z" fill="white"/>
<path d="M9.35559 27.4122C9.34201 27.4236 9.33058 27.4359 9.32045 27.4504C9.31096 27.4529 9.30126 27.4551 9.29523 27.4566C9.22991 27.4633 9.1633 27.468 9.09734 27.4723C8.9708 27.4803 8.84232 27.4859 8.71449 27.4812C8.64314 27.4786 8.57847 27.4676 8.54915 27.4221C8.50216 27.3508 8.48793 27.2262 8.47112 27.1315C8.38748 26.667 8.37649 26.183 8.43577 25.7129C8.67849 25.8 8.92833 25.8675 9.18443 25.9095C9.12924 26.3333 9.22323 26.9554 9.2782 27.146C9.30385 27.2346 9.32972 27.3242 9.35559 27.4122Z" fill="white"/>
<path d="M8.57489 23.6067C8.35998 23.8706 8.16424 24.1515 7.98855 24.4425C7.91763 24.5608 7.83744 24.6833 7.77838 24.8098C7.69323 24.7861 7.61649 24.752 7.535 24.7016C7.47249 24.6628 7.4117 24.6199 7.35264 24.5751C7.33776 24.5628 7.29702 24.5309 7.27158 24.5104C7.26576 24.5059 7.26016 24.5011 7.25391 24.4977C7.27352 24.4421 7.30952 24.38 7.32935 24.3384C7.37441 24.2399 7.42463 24.1431 7.47723 24.0489C7.57704 23.8721 7.6887 23.6992 7.81524 23.5401C7.86223 23.4815 7.90686 23.406 7.97993 23.3843C8.04654 23.3653 8.13428 23.3741 8.18795 23.3834C8.34704 23.4142 8.47164 23.4864 8.57489 23.6067Z" fill="white"/>
<path d="M6.91854 24.7517C6.92155 24.7405 6.93621 24.7389 6.9429 24.7484C6.99937 24.8288 7.07806 24.8987 7.16256 24.9644C7.20028 24.9931 7.23757 25.0216 7.27573 25.0485C7.28047 25.052 7.28263 25.0578 7.28133 25.0636C7.1923 25.4324 7.13152 25.8241 7.13259 26.21C7.13259 26.227 7.10694 26.2305 7.10306 26.2139C6.9942 25.7646 6.84632 25.0157 6.91854 24.7517Z" fill="white"/>
<path d="M7.97085 25.5539C7.92731 25.8749 7.9064 26.1968 7.92041 26.5203C7.92731 26.6977 7.94628 26.8741 7.9702 27.0493C7.9702 27.0506 7.9702 27.0521 7.97085 27.0528V27.0536C7.9327 27.0448 7.89282 27.0435 7.85207 27.0493C7.86005 27.0467 7.83914 27.048 7.8303 27.048H7.82772C7.82168 27.0474 7.81284 27.0467 7.80982 27.0461C7.76499 27.0351 7.76111 27.0303 7.72554 27.0079C7.67919 26.978 7.63026 26.9234 7.59771 26.8678C7.51126 26.7182 7.49229 26.5365 7.4854 26.367C7.47268 26.0346 7.50113 25.7027 7.56322 25.377C7.61625 25.3985 7.66238 25.4183 7.73933 25.4515C7.81543 25.4847 7.89433 25.5175 7.97128 25.5531V25.5539H7.97085Z" fill="white"/>
<g opacity="0.8" filter="url(#filter0_d_13779_631827)">
<path opacity="0.8" d="M16.4588 42.35C14.9941 42.35 13.6048 42.2576 12.439 42.1668L12.1176 42.1418L11.7966 42.0972C11.6563 42.0773 11.4655 42.0569 11.2814 42.0368C10.1598 41.9148 8.07398 41.6876 5.77152 40.6063L5.41389 40.4377L5.08041 40.2511C0.65527 37.7705 -1.00092 34.0376 -1.89272 32.0307C-1.94941 31.9033 -2.01839 31.7481 -2.08306 31.6051C-2.53338 30.6838 -2.81793 29.8532 -3.05936 29.0929L-3.11304 28.9231L-3.15766 28.7582C-3.80005 26.4753 -3.96237 24.504 -3.66812 22.5546C-3.37323 20.5972 -2.64806 18.8164 -1.38851 16.9524L-0.735345 15.8858C-0.602772 15.6705 -0.509214 15.4333 -0.458771 15.1854C0.0391854 12.7174 1.16918 10.9692 1.72448 10.1343C1.87732 9.1235 2.12931 8.13041 2.4768 7.1692L2.52854 7.02346L2.58394 6.8814C2.59299 6.85639 2.60464 6.82106 2.62598 6.75661C2.87539 6.00536 3.46022 4.24718 4.95754 2.40107L5.51995 1.71989L6.09292 1.20232C7.56481 -0.135266 9.31844 -1.12515 11.224 -1.69424C12.2881 -2.01155 13.3849 -2.20555 14.4931 -2.27237L14.6002 -2.28037L14.7617 -2.28792C14.9533 -2.29697 15.1443 -2.30128 15.3306 -2.30128C16.0221 -2.30258 16.7126 -2.24437 17.394 -2.12753C17.8199 -2.05574 18.2573 -2.10576 18.6559 -2.27175C19.8374 -2.76475 21.0795 -3.09821 22.3489 -3.26333C22.455 -3.27842 22.5474 -3.29006 22.6203 -3.29955C22.8206 -3.32455 23.1387 -3.36208 23.5233 -3.39873C24.1937 -3.46275 25.2218 -3.53906 26.3362 -3.53906C28.5126 -3.53906 30.3861 -3.2571 32.0632 -2.67723L32.2059 -2.62765L32.3454 -2.57525C36.0464 -1.17666 37.9305 0.777229 39.2855 2.5009L39.3497 2.58301L39.5362 2.7488C40.7602 3.70654 41.8012 4.87728 42.6089 6.20517L42.8615 6.6208L43.0747 7.05668C44.885 10.7519 44.3097 14.1639 44.0928 15.4459L44.0812 15.5144C43.9253 16.4601 43.6772 17.3883 43.3405 18.2857C43.2166 19.151 43.0129 20.0029 42.7318 20.8305C42.2513 22.3017 41.5423 23.688 40.6308 24.939C40.1062 25.6812 39.5136 26.3731 38.8608 27.0058C38.63 27.2289 38.4804 27.5228 38.4357 27.8405C38.4075 28.0362 38.3754 28.2298 38.3387 28.4214C37.808 31.268 36.5631 33.249 36.055 34.038L34.5187 36.2446C32.6685 38.5496 30.4732 40.07 27.8167 40.887L27.1731 41.0888L26.4779 41.2097C25.6826 41.35 24.8766 41.4199 24.0691 41.4181C23.9577 41.4181 23.8456 41.4181 23.7212 41.4149H23.6854L23.5483 41.4235L23.4013 41.4289H23.3972C23.0894 41.4393 22.7841 41.4895 22.4892 41.5785C20.7734 42.1034 18.8324 42.35 16.4588 42.35Z" stroke="url(#paint2_linear_13779_631827)" stroke-width="1.0554" stroke-miterlimit="10"/>
<path opacity="0.8" d="M16.4591 40.8326C15.0556 40.8326 13.7094 40.7432 12.5779 40.6539L12.3097 40.6332L12.0415 40.5962C11.8742 40.5729 11.6701 40.5515 11.4729 40.5291C10.3836 40.4108 8.56251 40.2127 6.5295 39.2592L6.23094 39.1189L5.95329 38.9628C2.04831 36.7727 0.603586 33.5206 -0.259972 31.5771C-0.321623 31.4385 -0.397285 31.2682 -0.467775 31.1136C-0.870021 30.2884 -1.13387 29.5262 -1.35655 28.825L-1.40118 28.6836L-1.43998 28.546C-2.01123 26.5156 -2.15889 24.7831 -1.90409 23.0926C-1.64929 21.4019 -1.00734 19.8397 0.112312 18.1929L0.94914 16.8265C1.09723 16.5844 1.19876 16.3167 1.24856 16.0375C1.66525 13.7161 2.76184 12.0702 3.26023 11.3211L3.32317 11.2263L3.34645 11.1888C3.3568 11.1659 3.3665 11.1442 3.37599 11.1204C3.40638 11.0217 3.43635 10.926 3.46545 10.8348C3.59651 9.88244 3.82781 8.94689 4.1559 8.04323L4.20074 7.92165L4.2486 7.79964C4.26369 7.76084 4.27792 7.71881 4.31995 7.5927C4.55729 6.87745 5.05137 5.39263 6.34368 3.79939L6.81254 3.2318L7.28851 2.80132C8.56488 1.64157 10.0853 0.783406 11.7376 0.289975C12.6757 0.0114642 13.6425 -0.158402 14.6193 -0.216389L14.7087 -0.223508L14.8428 -0.229757C15.006 -0.237517 15.1687 -0.240966 15.3274 -0.240966C16.0282 -0.24226 16.7271 -0.444027 17.4136 -0.303047C17.9433 -0.193541 18.4941 -0.252171 18.9888 -0.470755C19.9131 -0.878391 21.1576 -1.04115 22.5824 -1.21856C22.6839 -1.23343 22.7723 -1.24442 22.841 -1.25305C23.0284 -1.27676 23.328 -1.31211 23.6904 -1.34639C24.3207 -1.40675 25.2907 -1.48047 26.3336 -1.48047C28.308 -1.48047 29.9901 -1.23063 31.4764 -0.71672L31.5952 -0.675545L31.7114 -0.630705C34.9921 0.608799 36.6133 2.268 37.8766 3.87677C37.9466 3.96623 38.0186 4.05785 38.0453 4.08954L38.0753 4.11627L38.315 4.32968L38.3471 4.36266C39.4385 5.19863 40.3646 6.23054 41.0784 7.40537L41.2885 7.75179L41.4672 8.1148C43.0245 11.2933 42.5364 14.1851 42.3282 15.4201L42.317 15.4859C42.1691 16.3831 41.9275 17.2623 41.5955 18.1089C41.4909 18.9328 41.3034 19.7439 41.0359 20.5303C40.611 21.832 39.9839 23.059 39.1777 24.1657C38.6319 24.9418 38.0007 25.6538 37.2962 26.289C36.9695 26.5826 36.7632 26.987 36.7175 27.424C36.6834 27.7458 36.6375 28.0586 36.5793 28.3658C36.1113 30.8784 35.0175 32.6163 34.5167 33.3945L33.2723 35.2036C31.6185 37.3286 29.6587 38.7184 27.2847 39.4502L26.7484 39.6181L26.1672 39.7188C25.4737 39.8412 24.7706 39.902 24.0663 39.9007C23.9639 39.9007 23.8594 39.9007 23.7468 39.8979H23.7149H23.6483C23.6483 39.8979 23.6261 39.8979 23.5804 39.9012L23.4576 39.9087L23.3338 39.9132L23.0866 39.9225C22.7598 39.9342 22.4362 39.9904 22.1245 40.0898C20.5439 40.5944 18.7174 40.8326 16.4591 40.8326Z" stroke="url(#paint3_linear_13779_631827)" stroke-width="1.0554" stroke-miterlimit="10"/>
<path opacity="0.8" d="M16.4594 39.0461C15.1184 39.0461 13.814 38.959 12.7161 38.8737L12.502 38.8571L12.2884 38.8276C12.0948 38.8008 11.8771 38.7771 11.6665 38.7538C10.6255 38.6407 9.05341 38.4695 7.29051 37.6426L7.05123 37.5305L6.82769 37.4057C3.44136 35.5072 2.19776 32.7068 1.3743 30.8535C1.30425 30.6949 1.2247 30.516 1.15098 30.3502C0.793352 29.6229 0.554505 28.9292 0.351226 28.2868L0.315442 28.1741L0.284185 28.0635C-0.216144 26.2863 -0.348286 24.7923 -0.132935 23.3622C0.0856489 21.9121 0.655176 20.5604 1.6582 19.1075L1.77762 18.935L1.90675 18.7692C1.98802 18.6656 2.06627 18.5632 2.14323 18.4629L2.64657 17.5399C2.81169 17.2383 2.92314 16.9102 2.97596 16.5705C3.29607 14.4995 4.29371 13.0033 4.75416 12.3133L4.75631 12.3096C4.78283 12.2701 4.81667 12.2201 4.83413 12.1925L4.93243 12.0356C4.97102 11.9515 5.02189 11.8399 5.06651 11.7226C5.11135 11.5827 5.1646 11.4098 5.22258 11.2309C5.33166 10.3488 5.54076 9.48179 5.84579 8.6469L5.88049 8.54947L5.91865 8.45095C5.95077 8.36925 5.97448 8.29812 6.02104 8.15822C6.24135 7.49621 6.64985 6.26749 7.73652 4.92688L8.11246 4.47225L8.49207 4.1295C9.57227 3.14781 10.8592 2.42114 12.258 2.00359C13.0698 1.76259 13.9069 1.61644 14.7523 1.56815L14.8237 1.56276L14.9323 1.5578C15.0664 1.55155 15.2005 1.54853 15.3346 1.54853C16.0617 1.54745 16.7858 1.6395 17.4892 1.82252C18.0983 1.97665 18.7425 1.90853 19.3057 1.63067C20.2074 1.19307 21.4135 0.728734 22.8263 0.555203C22.9233 0.541407 23.0052 0.530627 23.0718 0.52222C23.2475 0.500232 23.5273 0.467255 23.867 0.432764C24.4583 0.37607 25.3676 0.308594 26.3402 0.308594C28.1126 0.308594 29.6032 0.526102 30.8996 0.974048L30.9949 1.00724L31.0878 1.04195C34.101 2.181 35.45 3.67272 36.4778 4.98099C36.7044 5.2692 36.7387 5.31404 36.8943 5.45222L37.0862 5.62294L37.1608 5.69925C37.6566 6.08339 38.6704 6.87409 39.5576 8.3367L39.726 8.61371L39.8683 8.90386C41.1727 11.5657 40.7667 13.9697 40.5719 15.1253L40.5611 15.1891C40.4216 16.0363 40.1856 16.8649 39.8575 17.6584L39.8486 17.7313C39.762 18.4903 39.5943 19.2379 39.3483 19.9613C38.9795 21.0941 38.4341 22.1617 37.7324 23.1244C37.1455 23.9658 36.4399 24.7177 35.6378 25.3573C35.447 25.5086 35.2907 25.6989 35.1795 25.9156C35.0683 26.1324 35.0049 26.3704 34.9932 26.6138C34.9715 27.0913 34.9165 27.567 34.8288 28.037C34.4237 30.2157 33.4726 31.7262 32.9872 32.4802L32.0225 33.9057C30.5683 35.8469 28.8447 37.1035 26.7616 37.7422L26.3331 37.8763L25.8694 37.9569C25.2768 38.0616 24.6758 38.1136 24.074 38.1123C23.9804 38.1123 23.8853 38.1123 23.7825 38.1097H23.7588H23.656C23.6385 38.1097 23.5853 38.1097 23.4771 38.1164L23.3788 38.1226L23.2837 38.1263L22.7866 38.1446C22.4385 38.1565 22.0938 38.2186 21.7633 38.3289C20.3157 38.8168 18.6075 39.0461 16.4594 39.0461Z" stroke="url(#paint4_linear_13779_631827)" stroke-width="0.989438" stroke-miterlimit="10"/>
<path opacity="0.8" d="M16.4587 37.2583C15.1771 37.2583 13.9171 37.1738 12.8542 37.0912L12.6936 37.0787L12.5332 37.0567C12.3138 37.0264 12.0827 37.0009 11.8587 36.9768C10.8803 36.8699 9.54224 36.7246 8.04879 36.0242L7.87009 35.9397L7.70324 35.8463C4.83535 34.2371 3.78037 31.8631 3.00972 30.1282C2.92975 29.9495 2.84654 29.7613 2.76441 29.5811C2.43675 28.9224 2.22808 28.2897 2.05455 27.7484L2.02783 27.6639L2.00454 27.5813C1.16599 24.6011 1.48115 22.5106 3.12871 20.1253L3.21817 19.9955L3.31518 19.8713C3.42469 19.7314 3.52708 19.5969 3.62797 19.4691C3.77994 19.2697 3.93385 19.0666 4.10135 18.858C4.20547 18.728 4.28932 18.5829 4.35033 18.4279L4.53938 17.9452C4.61957 17.7398 4.6698 17.5242 4.68877 17.3046C4.85281 15.3927 5.78255 13.9991 6.243 13.3084L6.24558 13.3048C6.27921 13.2539 6.33009 13.178 6.34712 13.1506L6.4549 12.9786L6.48788 12.9338C6.54522 12.818 6.65732 12.5736 6.75604 12.3175C6.80929 12.1422 6.89336 11.8732 6.97549 11.6285C6.97549 11.6192 6.97549 11.6089 6.97915 11.5981C7.06732 10.7971 7.25185 10.0096 7.52906 9.25276L7.55536 9.17947L7.58403 9.10574C7.63404 8.97834 7.6694 8.87185 7.71812 8.72484C7.91471 8.13397 8.24367 7.14474 9.12533 6.05764L9.40729 5.71618L9.69033 5.46052C11.7723 3.5713 14.1021 3.40833 14.8807 3.35595L14.9344 3.35185L15.0168 3.34797C15.1226 3.34302 15.2287 3.34086 15.3323 3.34086C16.2567 3.34409 17.1713 3.53099 18.0228 3.89098C18.1737 3.95371 18.3365 3.98217 18.4996 3.97441C18.6628 3.96665 18.8221 3.92289 18.9664 3.84636H18.9709C19.7624 3.38721 21.2125 2.55491 23.0614 2.33223C23.1507 2.31886 23.233 2.30873 23.2934 2.30097C23.4561 2.28049 23.7157 2.2501 24.0349 2.21927C24.5874 2.16646 25.4359 2.10352 26.3378 2.10352C27.9082 2.10352 29.2081 2.28933 30.3122 2.6711L30.3838 2.69567L30.4534 2.72219C33.0357 3.69784 34.1493 4.92225 35.0682 6.09256C35.3155 6.40535 35.4259 6.55064 35.7027 6.79466L35.8464 6.92292L35.9618 7.04148L36.0512 7.11219C36.4888 7.45084 37.3028 8.08159 38.0252 9.26979L38.1517 9.47759L38.2584 9.69532C39.3089 11.8408 38.9803 13.7868 38.8038 14.8327L38.7937 14.8948C38.6691 15.6553 38.4526 16.3977 38.1489 17.1056L38.1235 17.1664C38.1209 17.1796 38.1172 17.1987 38.1118 17.2268C38.098 17.2988 38.0901 17.3561 38.0806 17.429L38.0698 17.5111C37.9982 18.1524 37.8572 18.784 37.6492 19.3947C37.3364 20.3583 36.873 21.2663 36.2765 22.0848C35.6865 22.9225 35.0249 23.6048 34.2825 24.1448C33.9566 24.3828 33.6903 24.6934 33.505 25.0519C33.3196 25.4104 33.22 25.8072 33.2142 26.2108C33.2079 26.7141 33.1585 27.2159 33.0669 27.7109C32.7246 29.5566 31.9369 30.8064 31.4467 31.568L30.7457 32.6189C29.4905 34.3725 28.0098 35.4924 26.2275 36.038L26.1333 36.0675C25.9819 36.1152 25.8276 36.1524 25.6715 36.1794L25.5583 36.199C25.0666 36.2861 24.5682 36.3294 24.069 36.3281C23.9845 36.3281 23.8987 36.3281 23.8056 36.326H23.7905C23.748 36.326 23.701 36.326 23.651 36.326C23.6161 36.326 23.524 36.326 23.3576 36.3363L23.2839 36.3406L23.2119 36.3434C22.9728 36.3523 22.6756 36.3626 22.4104 36.3743C22.0472 36.3894 21.6883 36.4596 21.3462 36.5829C20.0634 37.0412 18.4934 37.2583 16.4587 37.2583Z" stroke="url(#paint5_linear_13779_631827)" stroke-width="0.923475" stroke-miterlimit="10"/>
<path opacity="0.8" d="M16.459 35.4698C15.2382 35.4698 14.022 35.3881 12.9931 35.3081L12.8857 35.3L12.7788 35.2849C12.5326 35.2508 12.2871 35.2241 12.0506 35.1986C11.1513 35.1008 10.0321 34.9788 8.8081 34.4047L8.68846 34.3484L8.57744 34.2864C6.2282 32.969 5.3502 30.9914 4.64401 29.4023C4.55714 29.2065 4.46509 29.0046 4.37563 28.8077C4.09906 28.2557 3.91173 27.6903 3.75803 27.2063L3.74014 27.1503L3.7244 27.0953C3.03244 24.6368 3.26094 23.0763 4.59874 21.1394L4.65824 21.0531L4.72312 20.9706C4.83974 20.8212 4.94645 20.6817 5.04841 20.5472C5.39763 20.0893 5.73326 19.6487 6.23532 19.1128C6.34526 18.9951 6.41122 18.8429 6.42157 18.6823L6.45972 18.1038L6.44485 17.9143L6.45153 17.7177C6.50391 16.1313 7.30086 14.9377 7.72725 14.2966C7.77661 14.2225 7.82792 14.1462 7.85831 14.0975L7.93031 13.983L7.99692 13.8935C8.07647 13.7635 8.28557 13.3201 8.44379 12.8946C8.49833 12.7157 8.60396 12.3747 8.69687 12.1041C8.72424 12.0179 8.72683 11.997 8.74925 11.8118C8.82189 11.1425 8.97602 10.4844 9.20819 9.85232L9.22565 9.80295L9.24483 9.75337C9.31101 9.58437 9.35714 9.44641 9.41039 9.28624C9.57875 8.77945 9.83268 8.01548 10.5096 7.18102L10.6982 6.95296L10.8849 6.78395C12.3436 5.45951 13.9325 5.20881 15.005 5.13681L15.0412 5.13358H15.0966C15.1744 5.13013 15.2518 5.1284 15.3277 5.1284C16.2436 5.1284 17.3391 5.56773 17.9145 5.83331C18.052 5.89625 18.2007 5.9316 18.3521 5.93721C18.5034 5.9426 18.6543 5.91802 18.7959 5.86499C19.154 5.73522 19.5028 5.58174 19.8401 5.40541C20.572 4.98074 21.7861 4.27951 23.2938 4.10382C23.377 4.09132 23.4516 4.08183 23.5132 4.07386C23.6648 4.0551 23.9041 4.02923 24.2002 3.99819C24.7144 3.94904 25.5016 3.89062 26.3335 3.89062C27.7013 3.89062 28.8103 4.04432 29.7235 4.35991L29.7709 4.37651L29.8155 4.39397C31.9723 5.20881 32.8306 6.14523 33.6563 7.19611C33.9244 7.53498 34.1139 7.77728 34.5077 8.12952L34.6035 8.21488L34.6927 8.30434C34.7731 8.38388 34.8596 8.45696 34.9516 8.52292C35.3217 8.80941 35.9421 9.28948 36.4925 10.1955L36.5765 10.3341L36.6479 10.4794C37.4455 12.1069 37.1892 13.6249 37.0359 14.5318L37.0258 14.5935C36.9238 15.2197 36.7453 15.8308 36.4942 16.4133V16.4178C36.4248 16.5685 36.3767 16.728 36.3517 16.8921C36.3301 17.0065 36.3168 17.0986 36.3038 17.2005L36.2931 17.2835C36.2357 17.8067 36.1213 18.3221 35.952 18.8203C35.6968 19.6155 35.315 20.3642 34.8216 21.0376C34.093 22.0769 33.2508 22.8081 32.2361 23.2727C31.9895 23.3852 31.7789 23.5635 31.6276 23.7883C31.476 24.0129 31.3896 24.275 31.3777 24.5456C31.373 24.6566 31.371 24.7478 31.3743 24.7987C31.4243 25.5805 31.481 26.4665 31.3068 27.3792C31.0274 28.8888 30.3881 29.9035 29.9076 30.6485C29.9076 30.6485 27.703 33.7168 25.6969 34.3293L25.4809 34.3967L25.249 34.4373C24.8586 34.5067 24.4628 34.5409 24.0662 34.5396C23.9911 34.5396 23.9142 34.5397 23.8316 34.5375H23.8243C23.7713 34.5375 23.7135 34.5375 23.6482 34.5375C23.5695 34.5375 23.4412 34.5375 23.2418 34.5513L23.1931 34.5545H23.145C22.3774 34.5821 21.652 34.6082 21.4502 34.6474C21.3424 34.6642 21.2372 34.6951 21.1374 34.7395C20.002 35.237 18.5131 35.4698 16.459 35.4698Z" stroke="url(#paint6_linear_13779_631827)" stroke-width="0.857513" stroke-miterlimit="10"/>
<path opacity="0.8" d="M16.4587 33.682C15.2991 33.682 14.1258 33.6029 13.1308 33.5255L13.0775 33.5214L13.0243 33.5138C12.752 33.4763 12.4938 33.4481 12.2435 33.4209C11.3968 33.3287 10.5211 33.2336 9.56681 32.7861L9.50688 32.7574L9.45148 32.7266C7.61874 31.6986 6.93798 30.1631 6.27771 28.6763C6.18393 28.4655 6.08693 28.2473 5.98669 28.0305C5.76315 27.5888 5.60492 27.115 5.46287 26.6662L5.45381 26.6386L5.44584 26.6103C4.89571 24.6534 5.03561 23.6543 6.07162 22.1555L6.10159 22.1108L6.13371 22.0692C6.25529 21.9142 6.36587 21.7694 6.47215 21.6295C6.9701 20.9762 7.40059 20.4117 8.36525 19.5214L8.36783 19.5186C8.43875 19.4511 8.48834 19.3645 8.51097 19.2692C8.5336 19.1741 8.528 19.0743 8.49523 18.9823L8.32149 18.4865C8.28657 18.3302 8.26199 18.1717 8.24819 18.0122V18.0068L8.23742 17.8727L8.24087 17.7744C8.27622 16.6977 8.84273 15.8488 9.21716 15.2868C9.2758 15.1973 9.33163 15.1156 9.37496 15.0458L9.41074 14.9887L9.45105 14.9346C9.65002 14.6664 9.97315 13.924 10.143 13.464C10.1876 13.3224 10.3021 12.9419 10.3974 12.6662C10.4651 12.4586 10.5091 12.2443 10.5282 12.0268C10.5845 11.4887 10.708 10.9595 10.8958 10.4521L10.9046 10.4271L10.9145 10.4025C10.9971 10.1902 11.0553 10.0158 11.1116 9.84678C11.2614 9.39668 11.4308 8.88622 11.9023 8.30462L11.9971 8.19016L12.0896 8.10673C13.1258 7.16536 14.2616 6.97566 15.1377 6.91767H15.156H15.1847C15.2338 6.91767 15.283 6.91444 15.3317 6.91444C16.1843 6.91444 16.8396 7.26408 17.2731 7.4956L17.3742 7.54928L17.3893 7.55725C17.5083 7.62171 17.6128 7.67797 17.7098 7.72583C17.9793 7.86099 18.2888 7.89267 18.5801 7.81529C19.1737 7.65555 20.1 7.3044 20.723 6.96186L20.7359 6.95432C21.3913 6.57427 22.3783 6.00216 23.535 5.87519C23.6079 5.86355 23.6777 5.85515 23.7435 5.84652C23.8776 5.82971 24.1009 5.8019 24.374 5.77733C24.8498 5.7327 25.576 5.67773 26.3374 5.67773C27.5032 5.67773 28.4208 5.79931 29.1432 6.04872L29.1669 6.05713L29.191 6.06618C30.9214 6.72 31.5526 7.40442 32.2555 8.30117C32.5418 8.66548 32.8121 9.00952 33.3249 9.46609L33.3726 9.51071L33.4174 9.55534C33.556 9.69524 33.7054 9.82393 33.8643 9.94034C34.1719 10.1785 34.5933 10.5049 34.9721 11.1279L35.0141 11.1973L35.0499 11.2701C35.5938 12.381 35.4127 13.4545 35.2806 14.2381L35.2702 14.2999C35.1911 14.7942 35.0493 15.2765 34.8486 15.7352C34.7315 15.9993 34.6483 16.2771 34.6011 16.5621C34.5698 16.7274 34.5515 16.8568 34.5362 16.9764L34.5254 17.0613C34.4825 17.4666 34.3948 17.8656 34.264 18.2513C34.0656 18.8773 33.7658 19.4662 33.3763 19.9946C32.7192 20.9379 31.9906 21.5195 31.0227 21.8274C30.559 21.9742 30.16 22.2764 29.8931 22.6829L29.8164 22.8011L29.7315 22.8981C29.4855 23.1779 29.5549 24.2622 29.5974 24.9095C29.642 25.6198 29.6899 26.3542 29.5571 27.0458C29.3389 28.2279 28.8326 29.026 28.3792 29.7276C28.3792 29.7276 26.6959 32.1562 25.177 32.6175L25.0664 32.6524L24.9502 32.6725C24.6609 32.7244 24.3675 32.7499 24.0737 32.7486C24.0075 32.7486 23.9396 32.7486 23.8676 32.7486C23.8038 32.7486 23.7336 32.7486 23.6557 32.7486C23.5525 32.7486 23.3876 32.7486 23.1364 32.766H23.1123H23.0881C22.0694 32.8031 21.4548 32.8249 21.1151 32.8911C20.8864 32.9316 20.6633 32.9982 20.4499 33.09C19.5402 33.4934 18.2699 33.682 16.4587 33.682Z" stroke="url(#paint7_linear_13779_631827)" stroke-width="0.857513" stroke-miterlimit="10"/>
</g>
</g>
</g>
<defs>
<filter id="filter0_d_13779_631827" x="-4.73269" y="-4.33026" width="50.537" height="48.2626" filterUnits="userSpaceOnUse" color-interpolation-filters="sRGB">
<feFlood flood-opacity="0" result="BackgroundImageFix"/>
<feColorMatrix in="SourceAlpha" type="matrix" values="0 0 0 0 0 0 0 0 0 0 0 0 0 0 0 0 0 0 127 0" result="hardAlpha"/>
<feOffset dx="0.26385" dy="0.395775"/>
<feGaussianBlur stdDeviation="0.329812"/>
<feComposite in2="hardAlpha" operator="out"/>
<feColorMatrix type="matrix" values="0 0 0 0 0 0 0 0 0 0 0 0 0 0 0 0 0 0 0.12 0"/>
<feBlend mode="normal" in2="BackgroundImageFix" result="effect1_dropShadow_13779_631827"/>
<feBlend mode="normal" in="SourceGraphic" in2="effect1_dropShadow_13779_631827" result="shape"/>
</filter>
<radialGradient id="paint0_radial_13779_631827" cx="0" cy="0" r="1" gradientUnits="userSpaceOnUse" gradientTransform="translate(20 22.0959) rotate(90) scale(22.4695)">
<stop offset="0.166667" stop-color="#073183"/>
<stop offset="1" stop-color="#0054F9"/>
</radialGradient>
<radialGradient id="paint1_radial_13779_631827" cx="0" cy="0" r="1" gradientUnits="userSpaceOnUse" gradientTransform="translate(20 22.094) rotate(90) scale(22.4695)">
<stop offset="0.166667" stop-color="#073183"/>
<stop offset="1" stop-color="#0054F9"/>
</radialGradient>
<linearGradient id="paint2_linear_13779_631827" x1="-3.80953" y1="-3.53906" x2="42.0258" y2="44.5678" gradientUnits="userSpaceOnUse">
<stop offset="0.205697" stop-color="#89D0FF"/>
<stop offset="0.398413" stop-color="#EBBF9A"/>
<stop offset="0.601546" stop-color="#EB8280"/>
<stop offset="0.841139" stop-color="#A281FF"/>
</linearGradient>
<linearGradient id="paint3_linear_13779_631827" x1="-2.02438" y1="-1.48047" x2="40.2307" y2="43.0502" gradientUnits="userSpaceOnUse">
<stop offset="0.205697" stop-color="#89D0FF"/>
<stop offset="0.398413" stop-color="#EBBF9A"/>
<stop offset="0.601546" stop-color="#EB80DA"/>
<stop offset="0.841139" stop-color="#A281FF"/>
</linearGradient>
<linearGradient id="paint4_linear_13779_631827" x1="-0.232528" y1="0.308379" x2="38.4417" y2="41.2619" gradientUnits="userSpaceOnUse">
<stop offset="0.205697" stop-color="#89D0FF"/>
<stop offset="0.398413" stop-color="#EBBF9A"/>
<stop offset="0.601546" stop-color="#EB8280"/>
<stop offset="0.841139" stop-color="#A281FF"/>
</linearGradient>
<linearGradient id="paint5_linear_13779_631827" x1="1.55552" y1="2.10352" x2="36.6408" y2="39.4689" gradientUnits="userSpaceOnUse">
<stop offset="0.205697" stop-color="#89D0FF"/>
<stop offset="0.398413" stop-color="#EBBF9A"/>
<stop offset="0.601546" stop-color="#EB80E7"/>
<stop offset="0.841139" stop-color="#A281FF"/>
</linearGradient>
<linearGradient id="paint6_linear_13779_631827" x1="3.34371" y1="3.89062" x2="34.8468" y2="37.6651" gradientUnits="userSpaceOnUse">
<stop offset="0.205697" stop-color="#89D0FF"/>
<stop offset="0.398413" stop-color="#EBBF9A"/>
<stop offset="0.601546" stop-color="#EB80D3"/>
<stop offset="0.841139" stop-color="#A281FF"/>
</linearGradient>
<linearGradient id="paint7_linear_13779_631827" x1="5.12895" y1="5.67774" x2="33.0469" y2="35.8749" gradientUnits="userSpaceOnUse">
<stop offset="0.205697" stop-color="#89D0FF"/>
<stop offset="0.398413" stop-color="#EBBF9A"/>
<stop offset="0.601546" stop-color="#A280EB"/>
<stop offset="0.841139" stop-color="#A281FF"/>
</linearGradient>
<clipPath id="clip0_13779_631827">
<rect width="40" height="40" fill="white"/>
</clipPath>
</defs>
</svg>
