<svg width="44" height="44" viewBox="0 0 44 44" fill="none" xmlns="http://www.w3.org/2000/svg">
<g clip-path="url(#clip0_4788_23)">
<path d="M22 44C34.1503 44 44 34.1503 44 22C44 9.84974 34.1503 0 22 0C9.84974 0 0 9.84974 0 22C0 34.1503 9.84974 44 22 44Z" fill="#8DC351"/>
<path d="M32.3201 22.9141L32.3079 22.8914L32.3058 22.8876C32.2984 22.8647 32.2929 22.8408 32.2844 22.816L32.2834 22.8141L32.2823 22.8122L32.2813 22.8102L32.2803 22.8083L32.2792 22.8064L32.2782 22.8045L32.2761 22.8007C32.0179 21.9371 31.5059 21.1711 30.8067 20.6023L30.8056 20.6004C30.785 20.5846 30.7633 20.5669 30.7425 20.5512L30.7139 20.53L30.6932 20.5143L30.6844 20.5068L30.6646 20.493L30.6557 20.4856L30.636 20.4717L30.6271 20.4643L30.6065 20.4486L30.5957 20.4422L30.575 20.4264L30.5642 20.42L30.5419 20.4052L30.5311 20.3987L30.518 20.3789L30.5062 20.3706L30.484 20.3558L30.4722 20.3475L30.45 20.3326L30.4382 20.3243L30.416 20.3095L30.4042 20.3012L30.3806 20.2846L30.3688 20.2763L30.3433 20.2607L30.3315 20.2524L30.306 20.2368L30.2942 20.2285L30.2687 20.2128L30.257 20.2045L30.2315 20.1889L30.2178 20.1815L30.1923 20.1658L30.1786 20.1584L30.1511 20.1436L30.1374 20.1362L30.109 20.1198L30.0953 20.1123L30.0668 20.0959L30.0531 20.0885L30.0247 20.072L30.0098 20.0628L29.9814 20.0464L29.9666 20.0372L29.9363 20.0217L29.9214 20.0125L29.8911 19.997L29.8706 19.9861L29.8696 19.9842C29.8548 19.975 29.8393 19.9687 29.8246 19.9595C29.1956 19.6362 28.5164 19.4216 27.8158 19.3248C28.0123 19.1136 28.1922 18.8876 28.354 18.6488L28.3798 18.6105L28.3817 18.6095L28.3936 18.5908L28.4093 18.5653L28.4176 18.5536L28.4332 18.5281L28.4415 18.5163L28.4571 18.4908L28.4654 18.479L28.4811 18.4535L28.4894 18.4417L28.505 18.4162L28.5133 18.4045L28.527 18.3799L28.5353 18.3682L28.549 18.3436L28.5554 18.3328L28.5692 18.3083L28.5756 18.2975L28.5893 18.2729L28.5957 18.2621L28.6075 18.2386L28.6139 18.2278L28.6257 18.2043L28.6321 18.1935L28.6439 18.17L28.6504 18.1592L28.6631 18.1376L28.6696 18.1268L28.6824 18.1053L28.6888 18.0944L28.6998 18.0739L28.7062 18.0631L28.7172 18.0426L28.7217 18.0328L28.7327 18.0123L28.7372 18.0025L28.7482 17.982L28.7527 17.9722L28.7637 17.9517L28.7682 17.9419L28.7772 17.9223L28.7817 17.9125L28.7908 17.893L28.7953 17.8832L28.8043 17.8636L28.8089 17.8538L28.8188 17.8316L28.8324 17.802C28.8423 17.7797 28.8503 17.7581 28.8602 17.7353L28.8621 17.7343C29.1636 16.9912 29.2343 16.1746 29.0649 15.3908L29.0639 15.3889L29.0618 15.3851L29.0608 15.3832L29.0598 15.3813L29.0587 15.3794L29.0577 15.3774L29.0566 15.3755L29.0556 15.3736C29.0511 15.3513 29.0466 15.3296 29.0402 15.3085V15.3043L29.0392 15.3024L29.0381 15.3004L29.0371 15.2985L29.0381 15.3004L29.0289 15.2834C29.0223 15.2528 29.0155 15.2222 29.0059 15.1907C28.9992 15.1601 28.9896 15.1286 28.981 15.099L28.9698 15.0781L28.9677 15.0744C28.9613 15.0534 28.9549 15.0324 28.9485 15.0114L28.9474 15.0095L28.9464 15.0075L28.9454 15.0056L28.9443 15.0037L28.9433 15.0017L28.9422 14.9998L28.9413 14.9979C28.712 14.2293 28.2564 13.5477 27.6341 13.0417L27.6332 13.0398C27.6154 13.025 27.5957 13.011 27.5779 12.9962L27.5534 12.9777L27.5336 12.9638L27.5248 12.9564L27.508 12.9435L27.4991 12.9361L27.4823 12.9231L27.4735 12.9157L27.4547 12.9037L27.4458 12.8963L27.4262 12.8825L27.4173 12.8751L27.3976 12.8612L27.3887 12.8538L27.369 12.8399L27.3582 12.8335L27.3385 12.8196L27.3276 12.8132L27.3079 12.7993L27.2971 12.7929L27.2756 12.7801L27.2647 12.7736L27.2432 12.7608L27.2324 12.7544L27.2108 12.7415L27.2 12.7351L27.1784 12.7223L27.1676 12.7158L27.145 12.701L27.1342 12.6946L27.1116 12.6797L27.1008 12.6733L27.0762 12.6596L27.0654 12.6531L27.041 12.6394L27.0292 12.6311L27.0047 12.6174L26.9929 12.6091L26.9684 12.5954L26.9566 12.5871L26.9312 12.5715L26.9174 12.5641L26.8913 12.5479L26.8776 12.5404L26.8502 12.5256L26.8365 12.5182L26.809 12.5034L26.7895 12.4944L26.7884 12.4924L26.7473 12.4702C25.5459 11.8458 24.0196 11.6578 22.4839 12.0518L22.0844 12.1543L21.074 8.21973L18.7325 8.81992L19.7396 12.739L17.8662 13.2221L16.8585 9.31563L14.517 9.91582L15.524 13.8349L10.6953 15.0774L11.3378 17.5745L13.2835 17.0748C13.5927 16.9951 13.9209 17.0415 14.196 17.2037C14.471 17.366 14.6703 17.6309 14.75 17.9402L14.7506 17.9425L17.4512 28.4509C17.5041 28.6573 17.473 28.8762 17.3646 29.0596C17.2563 29.2431 17.0796 29.3761 16.8733 29.4294L15.1684 29.868L15.2686 32.8378L20.0916 31.5984L21.1117 35.5103L23.452 34.9081L22.4442 30.9872L24.3173 30.5069L25.3254 34.4278L27.6657 33.8256L26.6542 29.8894C27.0507 29.7857 27.3919 29.6976 27.6279 29.6366C29.3585 29.1915 30.758 28.1769 31.6049 26.9116L31.6335 26.8694L31.6354 26.8684L31.6492 26.8486L31.6676 26.819L31.6768 26.8042L31.6952 26.7745L31.7044 26.7597L31.7208 26.7313L31.73 26.7165L31.7465 26.688L31.7539 26.6743L31.7703 26.6458L31.7777 26.6321L31.7942 26.6037L31.8016 26.59L31.8164 26.5626L31.8238 26.5488L31.8386 26.5214L31.8461 26.5077L31.8617 26.4822L31.8691 26.4685L31.8847 26.443L31.8921 26.4293L31.9058 26.4048L31.9133 26.3911L31.927 26.3666L31.9344 26.3529L31.9481 26.3285L31.9535 26.3158L31.9672 26.2914L31.9726 26.2787L31.9844 26.2552L31.9908 26.2444L32.0026 26.2209L32.0091 26.2101L32.0208 26.1866L32.0273 26.1758L32.0391 26.1523L32.0455 26.1415L32.0573 26.118L32.0638 26.1072L32.0755 26.0837L32.082 26.0728L32.0919 26.0506L32.0984 26.0398L32.1082 26.0176L32.1127 26.0078L32.1235 25.9824L32.1384 25.9502C32.1492 25.9249 32.1606 25.9014 32.1699 25.877L32.1707 25.8741C32.5095 25.0383 32.5892 24.1199 32.3994 23.2382L32.3985 23.2362L32.3974 23.2343L32.3964 23.2324L32.3953 23.2305L32.3943 23.2285L32.3933 23.2266L32.3922 23.2247L32.3912 23.2227C32.3856 23.1988 32.3801 23.175 32.3746 23.151V23.1462L32.3736 23.1443L32.3725 23.1424L32.3715 23.1404L32.3704 23.1385L32.3694 23.1366L32.3684 23.1346L32.3673 23.1327L32.3663 23.1308L32.3653 23.1289L32.3642 23.1269L32.3632 23.125L32.3621 23.1231L32.3611 23.1212L32.357 23.1137C32.3483 23.0794 32.3415 23.044 32.3308 23.0105C32.3254 22.9786 32.3218 22.9464 32.3201 22.9141V22.9141ZM18.5631 15.8844C18.9625 15.7818 20.6142 15.367 21.1588 15.2254C22.0246 15.0038 22.8779 15.0898 23.544 15.4107L23.5662 15.4206L23.576 15.4251L23.5897 15.4326L23.5965 15.4362L23.6102 15.4436L23.6171 15.4472L23.6308 15.4546L23.6376 15.4583L23.6513 15.4657L23.6581 15.4693L23.6718 15.4767L23.6786 15.4803L23.6923 15.4878L23.6992 15.4914L23.7129 15.4988L23.7197 15.5024L23.7334 15.5098L23.7402 15.5135L23.7539 15.5209L23.7607 15.5245L23.7725 15.5328L23.7793 15.5364L23.7911 15.5447L23.7979 15.5484L23.8097 15.5567L23.8165 15.5603L23.8273 15.5667L23.8342 15.5704L23.845 15.5768L23.8518 15.5805L23.8626 15.5869L23.8694 15.5905L23.8803 15.597L23.8871 15.6006L23.8979 15.6071L23.9029 15.6117L23.9137 15.6182L23.9176 15.6209L23.9284 15.6274L23.9323 15.6301L23.9432 15.6365L23.9471 15.6393L23.9579 15.6457L23.9618 15.6485L23.9707 15.6559L23.9747 15.6586L23.9855 15.6651L24.0003 15.6743C24.0111 15.6807 24.021 15.69 24.0318 15.6965C24.3728 15.9539 24.6234 16.3129 24.7474 16.7217V16.7217L24.7505 16.7274C24.7536 16.7379 24.7579 16.7503 24.7611 16.7608L24.7621 16.7628L24.7682 16.7741C24.7726 16.7913 24.7779 16.8056 24.7822 16.8228C24.7871 16.8403 24.7902 16.8583 24.7916 16.8764L24.7977 16.8878L24.7988 16.8897C24.8004 16.9014 24.8033 16.913 24.8075 16.9241L24.8106 16.9298C24.8981 17.3476 24.8515 17.7825 24.6772 18.1722V18.1722L24.6618 18.2074L24.6537 18.224L24.6472 18.2348L24.6455 18.2406L24.6409 18.2504L24.6392 18.2563L24.6327 18.2671L24.6309 18.2729L24.6245 18.2838L24.6227 18.2896L24.6163 18.3004L24.6145 18.3063L24.608 18.3171L24.6063 18.323L24.5998 18.3338L24.598 18.3396L24.5916 18.3504L24.588 18.3573L24.5815 18.3681L24.5779 18.3749L24.5715 18.3857L24.5678 18.3925L24.5614 18.4034L24.5578 18.4102L24.5495 18.422L24.5458 18.4288L24.5375 18.4406L24.5339 18.4474L24.5256 18.4592L24.5219 18.466L24.5136 18.4777L24.51 18.4846L24.5017 18.4963L24.4981 18.5032L24.4898 18.5149L24.4862 18.5218L24.4779 18.5335L24.4742 18.5404L24.4659 18.5521L24.4623 18.559L24.4521 18.5718L24.4484 18.5786L24.4382 18.5914L24.4346 18.5982L24.4244 18.6111L24.4207 18.6179L24.4105 18.6307L24.4031 18.6396L24.3892 18.6593C23.9586 19.2626 23.253 19.75 22.3872 19.9716C21.8415 20.1114 20.1939 20.5434 19.7948 20.6459L18.5631 15.8844ZM27.715 23.9405L27.7212 23.9519L27.7222 23.9538C27.7245 23.9672 27.7278 23.9777 27.7301 23.9908L27.7311 23.9928L27.7322 23.9947L27.7332 23.9966L27.7342 23.9986C27.8266 24.4594 27.7602 24.938 27.5459 25.3563V25.3563L27.525 25.3945L27.5149 25.4121L27.5075 25.4258L27.5039 25.4326L27.4974 25.4435L27.4938 25.4503L27.4873 25.4611L27.4837 25.4679L27.4754 25.4797L27.4718 25.4865L27.4635 25.4983L27.4598 25.5051L27.4515 25.5169L27.4479 25.5237L27.4396 25.5355L27.436 25.5423L27.4277 25.5541L27.4241 25.5609L27.4158 25.5727L27.4121 25.5795L27.4038 25.5913L27.4002 25.5981L27.3919 25.6099L27.3883 25.6167L27.38 25.6285L27.3763 25.6353L27.3661 25.6481L27.3625 25.6549L27.3523 25.6678L27.3486 25.6746L27.3394 25.6894L27.3358 25.6962L27.3266 25.711L27.323 25.7178L27.3138 25.7327L27.3082 25.7405L27.299 25.7553L27.2935 25.7632L27.2824 25.7789L27.2768 25.7868L27.2657 25.8025L27.2601 25.8103L27.249 25.826L27.2435 25.8339L27.2323 25.8496L27.2267 25.8574L27.2156 25.8732L27.2063 25.8831L27.1886 25.9048C26.6657 26.5726 25.8223 27.1218 24.7979 27.3848C24.1518 27.5516 22.1998 28.0621 21.7248 28.1834L20.3959 23.0125C20.8701 22.8893 22.8273 22.3979 23.4733 22.2311C24.4978 21.9681 25.5036 22.0427 26.2809 22.3747L26.3063 22.3855L26.319 22.3909L26.3375 22.3983L26.3462 22.4009L26.3628 22.4091L26.3716 22.4117L26.3882 22.4198L26.3969 22.4224L26.4135 22.4306L26.4203 22.4342L26.4368 22.4424L26.4437 22.446L26.4603 22.4541L26.4671 22.4578L26.4837 22.4659L26.4905 22.4695L26.5042 22.477L26.511 22.4806L26.5247 22.488L26.5315 22.4916L26.5453 22.499L26.5521 22.5027L26.5658 22.5101L26.5726 22.5137L26.5863 22.5211L26.5931 22.5247L26.6068 22.5322L26.6136 22.5358L26.6274 22.5432L26.6342 22.5468L26.6479 22.5542L26.6547 22.5579L26.6684 22.5653L26.6752 22.5689L26.687 22.5772L26.6938 22.5808L26.7056 22.5891L26.7124 22.5928L26.7242 22.6011L26.731 22.6047L26.7428 22.613L26.7496 22.6166L26.7614 22.6249L26.7682 22.6286L26.779 22.635L26.7858 22.6386L26.7976 22.6469L26.8133 22.658C26.8251 22.6663 26.8388 22.6737 26.8504 22.682C27.2393 22.9457 27.5278 23.333 27.6693 23.7811V23.7811L27.6734 23.7885C27.6776 23.8009 27.6808 23.8114 27.685 23.8238L27.6861 23.8257L27.6922 23.837C27.6966 23.8542 27.701 23.8714 27.7064 23.8905C27.7159 23.8947 27.7175 23.9159 27.7144 23.9419L27.715 23.9405Z" fill="white"/>
</g>
<defs>
<clipPath id="clip0_4788_23">
<rect width="44" height="44" fill="white"/>
</clipPath>
</defs>
</svg>
