<svg width="44" height="44" viewBox="0 0 44 44" fill="none" xmlns="http://www.w3.org/2000/svg">
<path d="M22 0C34.1514 0 44 9.8506 44 22C44 34.1514 34.1514 44 22 44C9.8506 44 0 34.1504 0 22C0 9.8506 9.8506 0 22 0Z" fill="#F5AC37"/>
<path d="M22.8035 23.5428H31.1632C31.3414 23.5428 31.4255 23.5428 31.4384 23.3091C31.5067 22.4587 31.5067 21.6033 31.4384 20.7519C31.4384 20.5866 31.3562 20.5183 31.177 20.5183H14.5399C14.334 20.5183 14.2786 20.5866 14.2786 20.7796V23.2269C14.2786 23.5428 14.2786 23.5428 14.6082 23.5428H22.8035ZM30.5048 17.6581C30.5286 17.5958 30.5286 17.5275 30.5048 17.4661C30.3652 17.1621 30.1999 16.8721 30.0078 16.5998C29.7188 16.1345 29.3782 15.7058 28.9901 15.3207C28.807 15.0881 28.5951 14.8792 28.3575 14.702C27.1675 13.6892 25.7528 12.9724 24.2321 12.6121C23.4649 12.4398 22.6808 12.3576 21.8947 12.3646H14.5112C14.3053 12.3646 14.2776 12.4467 14.2776 12.6259V17.5067C14.2776 17.7126 14.2776 17.768 14.5389 17.768H30.4058C30.4058 17.768 30.5434 17.7403 30.5711 17.6581H30.5038H30.5048ZM30.5048 26.4029C30.2712 26.3772 30.0356 26.3772 29.8019 26.4029H14.5538C14.3479 26.4029 14.2786 26.4029 14.2786 26.6781V31.45C14.2786 31.6698 14.2786 31.7252 14.5538 31.7252H21.5937C21.9303 31.7509 22.2669 31.7272 22.5966 31.6569C23.6183 31.5836 24.6232 31.3619 25.5815 30.9965C25.93 30.8758 26.2666 30.7184 26.5844 30.5293H26.6804C28.3308 29.6709 29.6712 28.3225 30.5167 26.6672C30.5167 26.6672 30.6127 26.4593 30.5048 26.4049V26.4029ZM11.5154 34.1992V34.1171V30.9134V29.8273V26.596C11.5154 26.4168 11.5154 26.39 11.2957 26.39H8.31177C8.14644 26.39 8.07812 26.39 8.07812 26.1702V23.5576H11.2679C11.4461 23.5576 11.5154 23.5576 11.5154 23.324V20.7391C11.5154 20.5737 11.5154 20.5331 11.2957 20.5331H8.31177C8.14644 20.5331 8.07812 20.5331 8.07812 20.3134V17.8938C8.07812 17.7423 8.07813 17.7017 8.29791 17.7017H11.2541C11.46 17.7017 11.5154 17.7017 11.5154 17.4403V10.0291C11.5154 9.80935 11.5154 9.75391 11.7907 9.75391H22.1026C22.8511 9.78361 23.5946 9.86578 24.3301 10.0014C25.8458 10.2816 27.3021 10.8231 28.6337 11.5963C29.5168 12.1161 30.3296 12.7437 31.0533 13.4664C31.5978 14.0317 32.0888 14.6436 32.5244 15.295C32.9571 15.9553 33.3165 16.6612 33.5986 17.3988C33.6333 17.5908 33.8174 17.7205 34.0095 17.6878H36.4706C36.7864 17.6878 36.7864 17.6878 36.8003 17.9908V20.246C36.8003 20.4658 36.7181 20.5213 36.4973 20.5213H34.5995C34.4074 20.5213 34.352 20.5213 34.3659 20.7688C34.4411 21.6063 34.4411 22.4468 34.3659 23.2844C34.3659 23.518 34.3659 23.5457 34.6282 23.5457H36.7993C36.8953 23.6695 36.7993 23.7932 36.7993 23.918C36.8132 24.0774 36.8132 24.2387 36.7993 24.3981V26.0623C36.7993 26.296 36.731 26.3653 36.5241 26.3653H33.9253C33.7441 26.3306 33.5679 26.4465 33.5263 26.6266C32.9076 28.2354 31.9176 29.6779 30.6385 30.8342C30.1712 31.2549 29.6801 31.6509 29.1673 32.0163C28.6169 32.3331 28.0813 32.6627 27.517 32.9241C26.4784 33.3914 25.3894 33.7359 24.2717 33.9547C23.2104 34.1448 22.1343 34.2309 21.0542 34.2161H11.5115V34.2022L11.5154 34.1992Z" fill="#FEFEFD"/>
</svg>
