<svg width="44" height="44" viewBox="0 0 44 44" fill="none" xmlns="http://www.w3.org/2000/svg">
<g clip-path="url(#clip0_11224_243740)">
<path d="M22 44C34.1503 44 44 34.1503 44 22C44 9.84974 34.1503 0 22 0C9.84974 0 0 9.84974 0 22C0 34.1503 9.84974 44 22 44Z" fill="#008CE7"/>
<path d="M26.2438 11.0059H16.2393L15.4115 15.6355L24.4343 15.6492C28.8769 15.6492 30.1955 17.2621 30.1529 19.9392C30.1337 21.3115 29.5355 23.6325 29.2825 24.3805C28.5992 26.388 27.1912 28.6732 21.9139 28.6664L13.1442 28.6609L12.3164 33.296H22.2948C25.8134 33.296 27.3122 32.8849 28.8948 32.1547C32.4065 30.535 34.4979 27.0659 35.338 22.538C36.5838 15.8005 35.03 11.0059 26.2424 11.0059H26.2438Z" fill="white"/>
<path d="M21.735 21.7217C22.0609 20.3673 22.164 19.8242 22.164 19.8242H11.9257C9.30773 19.8242 8.93373 21.5292 8.68486 22.5605C8.35898 23.9093 8.25586 24.4593 8.25586 24.4593H18.4955C21.1121 24.4593 21.4861 22.7543 21.735 21.7217Z" fill="white"/>
</g>
<defs>
<clipPath id="clip0_11224_243740">
<rect width="44" height="44" fill="white"/>
</clipPath>
</defs>
</svg>
