<svg width="44" height="44" viewBox="0 0 44 44" fill="none" xmlns="http://www.w3.org/2000/svg">
<g clip-path="url(#clip0_12594_258897)">
<path d="M21.731 9.22867C26.1227 9.22867 29.6828 7.16277 29.6828 4.61434C29.6828 2.06591 26.1227 0 21.731 0C17.3394 0 13.7793 2.06591 13.7793 4.61434C13.7793 7.16277 17.3394 9.22867 21.731 9.22867Z" fill="#E6007A"/>
<path d="M21.731 43.9963C26.1227 43.9963 29.6828 41.9303 29.6828 39.3819C29.6828 36.8335 26.1227 34.7676 21.731 34.7676C17.3394 34.7676 13.7793 36.8335 13.7793 39.3819C13.7793 41.9303 17.3394 43.9963 21.731 43.9963Z" fill="#E6007A"/>
<path d="M10.6504 15.6158C12.8463 11.8212 12.832 7.71141 10.6186 6.43633C8.40522 5.16125 4.83086 7.20375 2.63505 10.9984C0.439236 14.793 0.453488 18.9028 2.66688 20.1779C4.88027 21.4529 8.45463 19.4104 10.6504 15.6158Z" fill="#E6007A"/>
<path d="M40.8247 32.9975C43.0205 29.2029 43.0075 25.0937 40.7956 23.8195C38.5837 22.5453 35.0105 24.5885 32.8147 28.3831C30.6189 32.1778 30.632 36.2869 32.8439 37.5611C35.0558 38.8353 38.6289 36.7921 40.8247 32.9975Z" fill="#E6007A"/>
<path d="M10.6196 37.5598C12.833 36.2847 12.8472 32.1749 10.6514 28.3803C8.45561 24.5856 4.88125 22.5431 2.66786 23.8182C0.454464 25.0933 0.440213 29.2031 2.63602 32.9977C4.83183 36.7923 8.4062 38.8348 10.6196 37.5598Z" fill="#E6007A"/>
<path d="M40.7975 20.1785C43.0094 18.9043 43.0225 14.7952 40.8267 11.0006C38.6309 7.20595 35.0577 5.16276 32.8458 6.43697C30.6339 7.71119 30.6209 11.8203 32.8167 15.6149C35.0125 19.4095 38.5856 21.4527 40.7975 20.1785Z" fill="#E6007A"/>
</g>
<defs>
<clipPath id="clip0_12594_258897">
<rect width="44" height="44" fill="white"/>
</clipPath>
</defs>
</svg>
