<svg width="44" height="44" viewBox="0 0 44 44" fill="none" xmlns="http://www.w3.org/2000/svg">
<g clip-path="url(#clip0_11225_244264)">
<path d="M15.9273 11.9358C15.3612 12.502 14.8425 13.1155 14.3815 13.7697L14.2358 13.7223C13.3951 13.4477 12.5239 13.2782 11.6459 13.2206C11.3815 13.2003 10.3951 13.2003 10.0731 13.2206C9.10017 13.285 8.35441 13.4308 7.50696 13.7257C7.47306 13.7392 7.44255 13.7494 7.41204 13.7596C6.93407 13.1087 6.40187 12.4986 5.81543 11.9392C8.62899 10.4986 11.9205 10.3257 14.8663 11.4613C15.1815 11.5799 15.49 11.7189 15.7917 11.8681L15.9273 11.9358Z" fill="#F00500"/>
<path d="M21.1744 24.7926C20.7473 26.0096 20.1066 27.1384 19.2761 28.1214C18.8253 28.6503 18.327 29.135 17.7914 29.5757C16.5371 30.5859 15.0727 31.3079 13.51 31.6875C11.7812 32.1045 9.97781 32.1045 8.249 31.6875C6.6829 31.3079 5.22188 30.5859 3.96764 29.5757C3.43205 29.135 2.93374 28.6503 2.4829 28.1214C0.0930657 25.2977 -0.632358 21.4197 0.584591 17.9248C0.8151 17.2774 1.10324 16.6536 1.449 16.0604C1.60832 15.7892 1.80493 15.4841 1.89985 15.3587C2.22527 16.7587 2.62527 17.9892 2.77442 18.4333C2.76425 18.457 2.75069 18.4841 2.73713 18.5079C1.9473 20.1079 1.52019 21.6503 1.41849 23.2909C1.41849 23.3113 1.4151 23.335 1.4151 23.3553C1.38798 23.8469 1.40154 24.0808 1.4829 24.3892C1.73713 25.3553 2.52019 26.4197 3.7473 27.4638C5.75747 29.1723 8.4829 30.4062 10.5473 30.5486C12.6998 30.6943 15.8761 29.4367 17.9914 27.5994C18.3236 27.3045 18.6354 26.9926 18.927 26.6604C19.1371 26.4164 19.449 25.996 19.4253 25.996C19.4185 25.996 19.4253 25.9892 19.4388 25.9825C19.449 25.9757 19.4592 25.9655 19.4524 25.9587C19.449 25.9553 19.4558 25.9452 19.4659 25.9418C19.4761 25.9384 19.4829 25.9316 19.4795 25.9248C19.4761 25.9181 19.4795 25.9113 19.4931 25.9079C19.5032 25.9045 19.5066 25.8943 19.5032 25.8875C19.4998 25.8808 19.5032 25.874 19.51 25.874C19.5168 25.874 19.5236 25.8638 19.5236 25.857C19.5236 25.8503 19.5304 25.8401 19.5371 25.8401C19.5439 25.8401 19.5507 25.8333 19.5507 25.8265C19.5609 25.7994 19.5778 25.7723 19.5948 25.7486C19.6456 25.6706 19.849 25.3079 19.8761 25.2469C20.0693 24.8096 20.1914 24.4197 20.249 24.0299C20.2761 23.8435 20.2931 23.5011 20.2795 23.4197C20.2761 23.4062 20.2761 23.3825 20.2727 23.3452C20.2659 23.2774 20.2626 23.1757 20.2558 23.074C20.249 22.9214 20.2354 22.7079 20.2253 22.6028C20.0795 21.0638 19.6863 19.8062 18.9405 18.474C18.91 18.4231 18.8829 18.3723 18.8659 18.3316C18.8592 18.3214 18.8558 18.3113 18.8524 18.3045C18.9575 17.9892 19.388 16.6706 19.7304 15.1621L19.7371 15.1689L19.788 15.2367C19.8761 15.3553 20.11 15.7079 20.2151 15.8774C20.6931 16.657 21.0659 17.4943 21.3304 18.3689C21.9439 20.474 21.8931 22.718 21.1744 24.7926Z" fill="#F00500"/>
<path d="M16.7745 20.7428C16.7643 20.797 16.605 20.9597 16.4457 21.0784C15.9779 21.4207 15.1406 21.7394 14.2897 21.8919C13.805 21.9801 13.3202 21.9936 13.1744 21.9224C13.0795 21.875 13.066 21.8377 13.0999 21.7157C13.171 21.4614 13.4016 21.1835 13.7609 20.9224C13.9439 20.7902 14.6863 20.3394 15.0321 20.1496C15.6016 19.8377 16.0626 19.6512 16.3745 19.6072C16.4728 19.5936 16.5914 19.5902 16.6287 19.6072C16.6897 19.6309 16.7575 19.8106 16.7846 20.0275C16.7982 20.1428 16.7914 20.6513 16.7745 20.7428Z" fill="black"/>
<path d="M8.78785 21.8648C8.76751 21.9054 8.66581 21.9495 8.55056 21.9665C8.4353 21.9834 8.08276 21.9732 7.88276 21.9495C7.16411 21.8546 6.4014 21.6343 5.84546 21.3631C5.5336 21.2105 5.30987 21.058 5.14376 20.8919L5.04885 20.7936L5.03868 20.6648C5.02173 20.441 5.02512 20.0885 5.05224 19.9631C5.06919 19.858 5.10648 19.7563 5.15732 19.6648C5.18444 19.6309 5.18444 19.6309 5.30648 19.6309C5.45563 19.6309 5.58106 19.6546 5.78445 19.719C6.2014 19.8478 6.82174 20.1597 7.57767 20.6139C8.20141 20.9868 8.4353 21.1698 8.61497 21.4207C8.737 21.5766 8.81836 21.797 8.78785 21.8648Z" fill="black"/>
<path d="M13.5879 26.5834C13.5879 26.5936 13.5472 26.7563 13.4963 26.9495C13.4455 27.1428 13.4048 27.2987 13.4048 27.3055C13.3675 27.3089 13.3336 27.3123 13.2963 27.3089H13.1879L13.0387 27.6614C12.9573 27.8546 12.8828 28.0343 12.8726 28.0614L12.8523 28.1089L12.7811 27.9936L12.7099 27.8784V26.9394L12.6828 26.9462C12.6251 26.9597 12.215 27.014 12.0353 27.0309C11.2929 27.1055 10.5472 27.0885 9.80817 26.9834C9.68953 26.9665 9.58783 26.9529 9.58444 26.9563C9.58105 26.9597 9.58444 27.1767 9.59122 27.4445L9.60139 27.9258L9.54376 28.014C9.51326 28.0614 9.48275 28.1021 9.48275 28.1055C9.47258 28.1156 9.43868 28.0614 9.36071 27.9055C9.27597 27.7428 9.21495 27.5699 9.17088 27.3902L9.14715 27.2919L9.04206 27.2987L8.93698 27.3089L8.90986 27.1834C8.8963 27.1156 8.87935 27.0106 8.87257 26.9529L8.86241 26.8445L8.77427 26.7665C8.72342 26.7224 8.67257 26.6784 8.6624 26.6716C8.64545 26.658 8.63867 26.6343 8.63867 26.6139V26.5733L9.0624 26.5767L9.48613 26.5801L9.49969 26.6241L9.51326 26.6682L9.65902 26.675C9.74038 26.6784 9.998 26.6851 10.2285 26.6919L10.6522 26.7021L10.7607 26.5326L10.8726 26.3631H11.015L11.0116 26.0106L11.0082 25.658L10.8217 25.5767C10.2217 25.3123 9.86919 25.0106 9.73698 24.6445C9.70987 24.5699 9.70987 24.5428 9.70309 24.2038C9.6997 23.8682 9.6997 23.8377 9.72342 23.7631C9.77088 23.5936 9.90309 23.4614 10.0726 23.4173C10.1302 23.4004 10.2828 23.4004 11.0828 23.4004L12.0251 23.4038L12.1302 23.4546C12.2556 23.5156 12.3133 23.5597 12.3845 23.6546C12.4658 23.7631 12.4895 23.8478 12.4895 24.0546C12.4895 24.3495 12.4692 24.6038 12.4387 24.7055C12.3946 24.8445 12.3268 24.9767 12.2421 25.0953C12.0726 25.3123 11.7641 25.5292 11.4828 25.6275L11.4014 25.658L11.4048 26.014L11.4082 26.3699L11.4828 26.3767L11.5573 26.3834L11.659 26.536L11.7573 26.6885H12.2116C12.4624 26.6885 12.6828 26.6919 12.7031 26.6953C12.737 26.7021 12.7438 26.6987 12.7777 26.6411L12.8184 26.5801H13.2082C13.4997 26.5665 13.5879 26.5733 13.5879 26.5834Z" fill="black"/>
<path d="M11.7982 27.5557C11.7338 27.593 11.6897 27.61 11.6796 27.6032C11.6694 27.5998 11.6219 27.5591 11.5711 27.5218L11.4795 27.4472L11.3846 27.5489C11.1779 27.7727 11.1711 27.7829 11.1101 27.7862C11.0151 27.7964 10.9948 27.7795 10.8796 27.6066C10.8185 27.5184 10.7711 27.4439 10.7711 27.4439C10.7711 27.4439 10.727 27.4371 10.6762 27.4337L10.5812 27.4235L10.5372 27.515L10.4931 27.6066L10.4151 27.5828C10.3541 27.5625 10.2931 27.5388 10.2355 27.5117L10.1338 27.4608V27.2676L11.0355 27.271L11.9372 27.2744L11.9406 27.3659C11.944 27.4744 11.9473 27.471 11.7982 27.5557Z" fill="black"/>
<path d="M20.2727 23.4206C20.2693 23.407 20.2693 23.3833 20.2659 23.346C19.4523 23.2579 17.1303 23.2037 14.9744 24.9833C14.9744 24.9833 14.2794 21.7969 11.0252 21.7969C7.77097 21.7969 6.56419 24.9833 6.56419 24.9833C4.74046 23.0206 2.29978 23.163 1.41843 23.2918C1.41843 23.3121 1.41504 23.3359 1.41504 23.3562C1.38792 23.8477 1.40148 24.0816 1.48283 24.3901C1.73707 25.3562 2.52012 26.4206 3.74724 27.4647C5.75741 29.1731 8.48283 30.407 10.5472 30.5494C12.6998 30.6952 15.8761 29.4376 17.9913 27.6003C18.3235 27.3053 18.6354 26.9935 18.9269 26.6613C19.1371 26.4172 19.4489 25.9969 19.4252 25.9969C19.4184 25.9969 19.4252 25.9901 19.4388 25.9833C19.4489 25.9765 19.4591 25.9664 19.4523 25.9596C19.4489 25.9562 19.4557 25.946 19.4659 25.9426C19.4761 25.9392 19.4828 25.9325 19.4794 25.9257C19.4761 25.9189 19.4795 25.9121 19.493 25.9087C19.5032 25.9053 19.5066 25.8952 19.5032 25.8884C19.4998 25.8816 19.5032 25.8748 19.51 25.8748C19.5167 25.8748 19.5235 25.8647 19.5235 25.8579C19.5235 25.8511 19.5303 25.8409 19.5371 25.8409C19.5439 25.8409 19.5506 25.8342 19.5506 25.8274C19.5608 25.8003 19.5778 25.7731 19.5947 25.7494C19.6456 25.6715 19.8489 25.3087 19.8761 25.2477C20.0693 24.8104 20.1913 24.4206 20.2489 24.0308C20.2693 23.8443 20.2862 23.502 20.2727 23.4206ZM11.7981 27.5562C11.7337 27.5935 11.6896 27.6104 11.6794 27.6037C11.6693 27.6003 11.6218 27.5596 11.571 27.5223L11.4794 27.4477L11.3845 27.5494C11.1777 27.7731 11.171 27.7833 11.11 27.7867C11.015 27.7969 10.9947 27.7799 10.8794 27.607C10.8184 27.5189 10.771 27.4443 10.771 27.4443C10.771 27.4443 10.7269 27.4376 10.6761 27.4342L10.5811 27.424L10.5371 27.5155L10.493 27.607L10.415 27.5833C10.354 27.563 10.293 27.5392 10.2354 27.5121L10.1337 27.4613V27.2681L11.0354 27.2715L11.9371 27.2748L11.9405 27.3664C11.9439 27.4748 11.9472 27.4715 11.7981 27.5562ZM13.493 26.946C13.4422 27.1392 13.4015 27.2952 13.4015 27.302C13.3642 27.3054 13.3303 27.3087 13.293 27.3053H13.1845L13.0388 27.6613C12.9574 27.8545 12.8828 28.0342 12.8727 28.0613L12.8523 28.1087L12.7811 27.9935L12.71 27.8782V26.9392L12.6828 26.946C12.6252 26.9596 12.215 27.0138 12.0354 27.0308C11.293 27.1054 10.5472 27.0884 9.80826 26.9833C9.68961 26.9664 9.58792 26.9528 9.58453 26.9562C9.58114 26.9596 9.58453 27.1765 9.59131 27.4443L9.60148 27.9257L9.54385 28.0138C9.51334 28.0613 9.48283 28.102 9.48283 28.1053C9.47267 28.1155 9.43877 28.0613 9.3608 27.9054C9.27606 27.7426 9.21504 27.5698 9.17097 27.3901L9.14724 27.2918L9.04216 27.2986L8.93707 27.3087L8.90995 27.1833C8.89639 27.1155 8.87945 27.0104 8.87267 26.9528L8.8625 26.8443L8.77436 26.7664C8.72351 26.7223 8.67267 26.6782 8.6625 26.6715C8.64555 26.6579 8.63877 26.6342 8.63877 26.6138V26.5731L9.06249 26.5765L9.48622 26.5799L9.49978 26.624L9.51334 26.6681L9.65911 26.6748C9.74046 26.6782 9.99809 26.685 10.2286 26.6918L10.6523 26.702L10.7608 26.5325L10.8727 26.363H11.015L11.0116 26.0104L11.0083 25.6579L10.8218 25.5765C10.2218 25.3121 9.86928 25.0104 9.73707 24.6443C9.70995 24.5698 9.70995 24.5426 9.70317 24.2037C9.69978 23.8681 9.69978 23.8376 9.72351 23.763C9.77097 23.5935 9.90317 23.4613 10.0727 23.4172C10.1303 23.4003 10.2828 23.4003 11.0828 23.4003L12.0252 23.4037L12.1303 23.4545C12.2557 23.5155 12.3133 23.5596 12.3845 23.6545C12.4659 23.763 12.4896 23.8477 12.4896 24.0545C12.4896 24.3494 12.4693 24.6037 12.4388 24.7053C12.3947 24.8443 12.3269 24.9765 12.2422 25.0952C12.0727 25.3121 11.7642 25.5291 11.4828 25.6274L11.4015 25.6579L11.4049 26.0138L11.4083 26.3698L11.4828 26.3765L11.5574 26.3833L11.6591 26.5359L11.7574 26.6884H12.2116C12.4625 26.6884 12.6828 26.6918 12.7032 26.6952C12.7371 26.702 12.7439 26.6986 12.7778 26.6409L12.8184 26.5799H13.2083C13.51 26.5799 13.5981 26.5833 13.5981 26.5935C13.5879 26.5901 13.5439 26.7562 13.493 26.946Z" fill="white"/>
<path d="M20.246 23.0739C20.2392 22.9213 20.2257 22.7078 20.2155 22.6027C20.0697 21.0637 19.6765 19.8061 18.9308 18.4739C18.9002 18.423 18.8731 18.3722 18.8562 18.3315C18.8494 18.3213 18.846 18.3112 18.8426 18.3044C18.9477 17.9891 19.3782 16.6705 19.7206 15.162C20.185 13.1146 20.4799 10.7213 19.5782 10.0027C19.5782 10.0027 18.0189 9.88745 15.9308 11.9349C15.3647 12.501 14.846 13.1146 14.385 13.7688L14.2392 13.7213C13.3986 13.4468 12.5274 13.2773 11.6494 13.2197C11.385 13.1993 10.3985 13.1993 10.0765 13.2197C9.10363 13.2841 8.35787 13.4298 7.51041 13.7247C7.47652 13.7383 7.44601 13.7485 7.4155 13.7586C6.93753 13.1078 6.40533 12.4976 5.81889 11.9383C3.64601 9.88067 2.02906 9.99932 2.02906 9.99932C1.07313 10.7417 1.39855 13.2434 1.89347 15.3586C2.21889 16.7586 2.61889 17.9891 2.76804 18.4332C2.75787 18.4569 2.74431 18.4841 2.73075 18.5078C1.94092 20.1078 1.5138 21.6502 1.41211 23.2908C2.29686 23.162 4.73414 23.0163 6.56126 24.9824C6.56126 24.9824 7.76804 21.7959 11.0223 21.7959C14.2765 21.7959 14.9714 24.9824 14.9714 24.9824C17.1274 23.2027 19.4494 23.2603 20.263 23.3451C20.2596 23.2773 20.2528 23.1756 20.246 23.0739ZM3.40872 17.1552C3.40872 17.1552 2.14092 13.9858 2.46635 12.1756C2.52058 11.8705 2.62228 11.6027 2.7816 11.3993C2.7816 11.3993 4.21889 11.5417 6.53753 14.118C6.53753 14.118 6.09686 14.3315 5.50703 14.7858C5.50703 14.7858 5.50363 14.7891 5.50024 14.7891C4.85957 15.2807 4.03923 16.0603 3.40872 17.1552ZM8.78838 21.8637C8.76804 21.9044 8.66635 21.9485 8.55109 21.9654C8.43584 21.9824 8.0833 21.9722 7.8833 21.9485C7.16465 21.8535 6.40194 21.6332 5.84601 21.362C5.53414 21.2095 5.31041 21.0569 5.14431 20.8908L5.0494 20.7925L5.03923 20.6637C5.02228 20.44 5.02567 20.0874 5.05279 19.962C5.06974 19.8569 5.10702 19.7552 5.15787 19.6637C5.18499 19.6298 5.18499 19.6298 5.30702 19.6298C5.45618 19.6298 5.5816 19.6535 5.78499 19.7179C6.20194 19.8468 6.82228 20.1586 7.57821 20.6129C8.20194 20.9857 8.43584 21.1688 8.6155 21.4196C8.73753 21.5756 8.81889 21.7959 8.78838 21.8637ZM16.7748 20.7417C16.7646 20.7959 16.6053 20.9586 16.446 21.0773C15.9782 21.4196 15.1409 21.7383 14.2901 21.8908C13.8053 21.979 13.3206 21.9925 13.1748 21.9213C13.0799 21.8739 13.0663 21.8366 13.1002 21.7146C13.1714 21.4603 13.4019 21.1824 13.7613 20.9213C13.9443 20.7891 14.6867 20.3383 15.0324 20.1485C15.6019 19.8366 16.063 19.6502 16.3748 19.6061C16.4731 19.5925 16.5918 19.5891 16.6291 19.6061C16.6901 19.6298 16.7579 19.8095 16.785 20.0264C16.7985 20.1417 16.7918 20.6502 16.7748 20.7417ZM16.2121 14.7858L16.2053 14.7824C15.6358 14.3281 15.2087 14.1146 15.2087 14.1146C17.4494 11.5383 18.8358 11.3959 18.8358 11.3959C18.9884 11.6027 19.0867 11.8671 19.1409 12.1722C19.4562 13.9824 18.2324 17.1552 18.2324 17.1552C17.7206 16.2434 17.0324 15.4366 16.2121 14.7858Z" fill="#FFA409"/>
<path d="M19.1436 12.1728C18.8792 12.1389 17.6283 12.1321 16.2114 14.7863L16.2046 14.7829C15.6351 14.3287 15.208 14.1151 15.208 14.1151C17.4487 11.5389 18.8351 11.3965 18.8351 11.3965C18.991 11.6033 19.0893 11.8677 19.1436 12.1728Z" fill="#FF9300"/>
<path d="M18.2347 17.1558C17.7194 16.2405 17.0347 15.4372 16.2109 14.7863C17.6279 12.1321 18.8753 12.1389 19.1431 12.1727C19.4584 13.9863 18.2347 17.1558 18.2347 17.1558Z" fill="#FF8300"/>
<path d="M19.1944 12.182C19.1775 12.1787 19.1605 12.1753 19.1436 12.1719L19.1944 12.182Z" fill="#FF8300"/>
<path d="M6.53747 14.1151C6.53747 14.1151 6.09679 14.3287 5.50696 14.7829C5.50696 14.7829 5.50357 14.7863 5.50018 14.7863C4.03238 12.1287 2.74086 12.1389 2.46289 12.1728C2.51713 11.8677 2.61882 11.5999 2.77815 11.3965C2.78154 11.3965 4.21882 11.5389 6.53747 14.1151Z" fill="#FF9300"/>
<path d="M5.5038 14.7863C4.85973 15.2812 4.03939 16.0575 3.40888 17.1558C3.40888 17.1558 2.14108 13.9863 2.4665 12.1727C2.74108 12.1389 4.036 12.1321 5.5038 14.7863Z" fill="#FF8300"/>
<path d="M2.46635 12.1719C2.4494 12.1753 2.42906 12.1787 2.41211 12.182L2.46635 12.1719Z" fill="#FF8300"/>
<path d="M14.8046 18.9153C14.8046 18.9153 13.7199 18.9831 13.8555 18.1356C13.9911 17.2881 14.8385 17.1864 15.0758 17.2203C15.3131 17.2542 16.2623 17.5932 16.0928 18.3051C15.9233 19.017 15.686 18.8814 15.5504 18.9153C15.4148 18.9492 14.8046 18.9153 14.8046 18.9153Z" fill="white"/>
<path d="M6.80463 18.9153C6.80463 18.9153 5.71989 18.9831 5.85548 18.1356C5.99107 17.2881 6.83853 17.1864 7.07581 17.2203C7.3131 17.2542 8.26225 17.5932 8.09276 18.3051C7.92327 19.017 7.68598 18.8814 7.55039 18.9153C7.4148 18.9492 6.80463 18.9153 6.80463 18.9153Z" fill="white"/>
</g>
<mask id="path-17-inside-1_11225_244264" fill="white">
<path fill-rule="evenodd" clip-rule="evenodd" d="M22.207 26.954C23.3451 25.0701 23.9999 22.8615 23.9999 20.5C23.9999 18.3623 23.4633 16.3499 22.5174 14.5902C24.5138 11.8105 27.7744 10 31.4579 10C37.533 10 42.4579 14.9249 42.4579 21C42.4579 27.0751 37.533 32 31.4579 32C27.5767 32 24.165 29.9899 22.207 26.954Z"/>
</mask>
<path fill-rule="evenodd" clip-rule="evenodd" d="M22.207 26.954C23.3451 25.0701 23.9999 22.8615 23.9999 20.5C23.9999 18.3623 23.4633 16.3499 22.5174 14.5902C24.5138 11.8105 27.7744 10 31.4579 10C37.533 10 42.4579 14.9249 42.4579 21C42.4579 27.0751 37.533 32 31.4579 32C27.5767 32 24.165 29.9899 22.207 26.954Z" fill="white"/>
<path d="M22.207 26.954L21.9502 26.7989L21.8534 26.9592L21.9549 27.1166L22.207 26.954ZM22.5174 14.5902L22.2737 14.4152L22.1645 14.5673L22.2532 14.7322L22.5174 14.5902ZM23.6999 20.5C23.6999 22.8053 23.0608 24.9605 21.9502 26.7989L22.4638 27.1091C23.6293 25.1797 24.2999 22.9177 24.2999 20.5H23.6999ZM22.2532 14.7322C23.1762 16.4493 23.6999 18.4131 23.6999 20.5H24.2999C24.2999 18.3115 23.7504 16.2504 22.7817 14.4481L22.2532 14.7322ZM31.4579 9.7C27.6737 9.7 24.3241 11.5604 22.2737 14.4152L22.7611 14.7652C24.7035 12.0606 27.8751 10.3 31.4579 10.3V9.7ZM42.7579 21C42.7579 14.7592 37.6987 9.7 31.4579 9.7V10.3C37.3674 10.3 42.1579 15.0906 42.1579 21H42.7579ZM31.4579 32.3C37.6987 32.3 42.7579 27.2408 42.7579 21H42.1579C42.1579 26.9094 37.3674 31.7 31.4579 31.7V32.3ZM21.9549 27.1166C23.9658 30.2346 27.4706 32.3 31.4579 32.3V31.7C27.6829 31.7 24.3642 29.7453 22.4591 26.7914L21.9549 27.1166Z" fill="black" fill-opacity="0.4" mask="url(#path-17-inside-1_11225_244264)"/>
<g opacity="0.6">
<path opacity="0.6" d="M31.4599 19.1484L26.5137 21.3988L31.4599 24.3222L36.4041 21.3988L31.4599 19.1484Z" fill="#010101"/>
</g>
<g opacity="0.45">
<path opacity="0.45" d="M26.5127 21.3994L31.4589 24.3228V13.1895L26.5127 21.3994Z" fill="#010101"/>
</g>
<g opacity="0.8">
<path opacity="0.8" d="M31.459 13.1895V24.3228L36.4032 21.3994L31.459 13.1895Z" fill="#010101"/>
</g>
<path opacity="0.45" d="M36.4043 22.2899L31.4583 25.2312L31.4583 28.7832L36.4043 22.2899Z" fill="#010101"/>
<path opacity="0.8" d="M31.458 28.8105L31.458 25.2491L26.5138 22.3163L31.458 28.8105Z" fill="#010101"/>
<defs>
<clipPath id="clip0_11225_244264">
<rect width="22" height="22" fill="white" transform="translate(0 10)"/>
</clipPath>
</defs>
</svg>
