<svg width="44" height="44" viewBox="0 0 44 44" fill="none" xmlns="http://www.w3.org/2000/svg">
<g clip-path="url(#clip0_12564_258595)">
<path d="M22 44C34.1503 44 44 34.1503 44 22C44 9.84974 34.1503 0 22 0C9.84974 0 0 9.84974 0 22C0 34.1503 9.84974 44 22 44Z" fill="#3E73C4"/>
<path d="M27.5301 24.9208C27.5301 22.0003 25.7701 20.9993 22.2501 20.5813C19.7366 20.2472 19.2348 19.5803 19.2348 18.4116C19.2348 17.2428 20.0735 16.4921 21.7483 16.4921C23.2566 16.4921 24.0954 16.9926 24.5134 18.2452C24.557 18.3663 24.6366 18.4712 24.7416 18.5457C24.8465 18.6202 24.9718 18.6607 25.1005 18.6618H26.4411C26.5186 18.6639 26.5956 18.6502 26.6676 18.6216C26.7396 18.593 26.805 18.5501 26.8599 18.4955C26.9148 18.4408 26.9581 18.3756 26.987 18.3037C27.0159 18.2319 27.03 18.1549 27.0283 18.0775V17.995C26.8644 17.0887 26.4059 16.2619 25.7239 15.6431C25.0418 15.0242 24.1745 14.6479 23.2566 14.5726V12.5706C23.2566 12.2365 23.005 11.9862 22.587 11.9023H21.3289C20.9948 11.9023 20.7431 12.1526 20.6593 12.5706V14.4901C18.1444 14.8228 16.5535 16.4921 16.5535 18.5793C16.5535 21.3321 18.2283 22.417 21.7483 22.835C24.0954 23.2516 24.8489 23.7535 24.8489 25.0886C24.8489 26.4223 23.676 27.3408 22.0838 27.3408C19.9044 27.3408 19.1509 26.4237 18.8993 25.1711C18.8168 24.8383 18.5638 24.6706 18.3121 24.6706H16.8876C16.8103 24.6687 16.7334 24.6825 16.6616 24.7112C16.5898 24.7399 16.5245 24.7829 16.4698 24.8375C16.415 24.8921 16.3719 24.9573 16.3431 25.029C16.3142 25.1008 16.3002 25.1776 16.3019 25.255V25.3375C16.636 27.4247 17.978 28.9262 20.7431 29.3442V31.3476C20.7431 31.6803 20.9948 31.932 21.4128 32.0145H22.6709C23.005 32.0145 23.2566 31.7642 23.3405 31.3476V29.3428C25.8554 28.9262 27.5301 27.1731 27.5301 24.9195V24.9208Z" fill="white"/>
<path d="M17.7265 33.6834C11.1898 31.3459 7.83753 24.0859 10.2685 17.6605C11.5253 14.1542 14.2904 11.4854 17.7265 10.2327C18.062 10.0664 18.2284 9.81613 18.2284 9.39813V8.22938C18.2284 7.89663 18.062 7.64638 17.7265 7.5625C17.6427 7.5625 17.4749 7.5625 17.391 7.645C15.5051 8.23395 13.7543 9.19013 12.2395 10.4585C10.7246 11.7268 9.47564 13.2823 8.56441 15.0354C7.65319 16.7884 7.09774 18.7044 6.93004 20.673C6.76234 22.6416 6.98571 24.624 7.58728 26.5059C9.09428 31.1809 12.6982 34.7696 17.391 36.2711C17.7265 36.4375 18.062 36.2711 18.1445 35.937C18.2284 35.8545 18.2284 35.7692 18.2284 35.6029V34.4341C18.2284 34.1839 17.9782 33.8511 17.7265 33.6834ZM26.609 7.64637C26.2735 7.47862 25.938 7.64637 25.8555 7.97912C25.7717 8.063 25.7717 8.14688 25.7717 8.31325V9.482C25.7717 9.81612 26.0219 10.1489 26.2735 10.3166C32.8103 12.6541 36.1625 19.9141 33.7315 26.3395C32.4748 29.8458 29.7097 32.5146 26.2735 33.7673C25.938 33.9336 25.7717 34.1839 25.7717 34.6019V35.7706C25.7717 36.1034 25.938 36.3536 26.2735 36.4375C26.3574 36.4375 26.5252 36.4375 26.609 36.355C28.4949 35.7661 30.2457 34.8099 31.7606 33.5415C33.2754 32.2732 34.5244 30.7177 35.4356 28.9646C36.3469 27.2116 36.9023 25.2956 37.07 23.327C37.2377 21.3584 37.0143 19.376 36.4128 17.4941C34.9058 12.7366 31.218 9.14787 26.609 7.64637Z" fill="white"/>
</g>
<defs>
<clipPath id="clip0_12564_258595">
<rect width="44" height="44" fill="white"/>
</clipPath>
</defs>
</svg>
