<svg width="44" height="44" viewBox="0 0 44 44" fill="none" xmlns="http://www.w3.org/2000/svg">
<path d="M32.2872 14.7572C31.5561 14.3394 30.6162 14.3394 29.7807 14.7572L23.9321 18.2037L19.9634 20.3969L14.2193 23.8433C13.4882 24.2611 12.5483 24.2611 11.7128 23.8433L7.22193 21.1279C6.49086 20.7102 5.96867 19.8747 5.96867 18.9347V13.7128C5.96867 12.8773 6.38642 12.0418 7.22193 11.5196L11.7128 8.90862C12.4439 8.49086 13.3838 8.49086 14.2193 8.90862L18.7102 11.624C19.4413 12.0418 19.9634 12.8773 19.9634 13.8172V17.2637L23.9321 14.9661V11.4151C23.9321 10.5796 23.5144 9.74413 22.6789 9.22193L14.3238 4.31332C13.5927 3.89556 12.6527 3.89556 11.8172 4.31332L3.25326 9.32637C2.41775 9.74413 2 10.5796 2 11.4151V21.2324C2 22.0679 2.41775 22.9034 3.25326 23.4256L11.7128 28.3342C12.4439 28.752 13.3838 28.752 14.2193 28.3342L19.9634 24.9922L23.9321 22.6945L29.6762 19.3525C30.4073 18.9347 31.3473 18.9347 32.1828 19.3525L36.6736 21.9634C37.4047 22.3812 37.9269 23.2167 37.9269 24.1567V29.3786C37.9269 30.2141 37.5091 31.0496 36.6736 31.5718L32.2872 34.1828C31.5561 34.6005 30.6162 34.6005 29.7807 34.1828L25.2898 31.5718C24.5587 31.154 24.0366 30.3185 24.0366 29.3786V26.0366L20.0679 28.3342V31.7807C20.0679 32.6162 20.4856 33.4517 21.3211 33.9739L29.7807 38.8825C30.5117 39.3003 31.4517 39.3003 32.2872 38.8825L40.7467 33.9739C41.4778 33.5561 42 32.7206 42 31.7807V21.859C42 21.0235 41.5822 20.188 40.7467 19.6658L32.2872 14.7572Z" fill="#8247E5"/>
</svg>
