<svg width="44" height="44" viewBox="0 0 44 44" fill="none" xmlns="http://www.w3.org/2000/svg">
<path fill-rule="evenodd" clip-rule="evenodd" d="M22.207 26.9542C23.3451 25.0702 24 22.8616 24 20.5C24 18.3622 23.4634 16.3498 22.5174 14.59C24.5138 11.8104 27.7744 10 31.4578 10C37.5329 10 42.4578 14.9249 42.4578 21C42.4578 27.0751 37.5329 32 31.4578 32C27.5767 32 24.165 29.99 22.207 26.9542Z" fill="#C7000F"/>
<path d="M38.136 19.2217C35.7598 21.9788 33.3981 24.7176 31.03 27.4671C29.3295 23.3965 27.6354 19.3382 25.9365 15.2676C26.0861 15.2936 26.2245 15.3151 26.3629 15.3396C27.1093 15.4699 27.8558 15.6017 28.6023 15.732C29.315 15.8576 30.0277 15.9818 30.7404 16.1074C31.6317 16.2638 32.5229 16.4186 33.4142 16.5749C34.1301 16.7006 34.8444 16.8262 35.5587 16.9534C35.5925 16.9596 35.6295 16.9764 35.6552 16.9994C36.2441 17.5312 36.8313 18.063 37.4201 18.5964C37.6308 18.788 37.8432 18.9795 38.0556 19.1696C38.0765 19.1895 38.1054 19.2018 38.136 19.2217ZM30.9978 25.6494C31.0042 25.6479 31.009 25.6463 31.0155 25.6463C31.038 25.4685 31.0621 25.2908 31.0847 25.1115C31.1345 24.7114 31.1844 24.3114 31.2343 23.913C31.2858 23.5053 31.3389 23.0992 31.3903 22.6915C31.4402 22.2945 31.4901 21.8976 31.5416 21.5007C31.5946 21.0853 31.6477 20.6715 31.696 20.2562C31.6992 20.2286 31.6815 20.1872 31.659 20.1673C31.4965 20.034 31.3292 19.9068 31.1651 19.7765C30.0116 18.8646 28.8581 17.9527 27.7046 17.0393C27.5646 16.9289 27.4263 16.8201 27.2863 16.7098C27.2815 16.7128 27.2766 16.7159 27.2734 16.7189C28.5138 19.6968 29.7558 22.6731 30.9978 25.6494ZM31.6944 25.654C31.7008 25.6555 31.7057 25.6586 31.7121 25.6601C33.4142 23.6861 35.1147 21.7122 36.8248 19.7274C36.7959 19.7274 36.7798 19.7259 36.7653 19.7274C36.4339 19.7841 36.1025 19.8424 35.7711 19.9006C35.1034 20.0156 34.4342 20.1305 33.7665 20.2455C33.3161 20.3236 32.8672 20.4002 32.4167 20.4769C32.3749 20.4845 32.3443 20.4953 32.3395 20.5458C32.309 20.814 32.2736 21.0823 32.2398 21.3505C32.1883 21.752 32.1368 22.1551 32.0869 22.5566C32.0355 22.9582 31.9856 23.3612 31.9341 23.7628C31.8826 24.1643 31.8311 24.5674 31.7813 24.9689C31.7507 25.1988 31.7234 25.4272 31.6944 25.654ZM34.7189 17.4577C32.391 17.05 30.084 16.6454 27.777 16.2408C27.7738 16.2454 27.7722 16.25 27.7689 16.2561C29.1815 17.3718 30.594 18.4876 32.0113 19.6064C32.909 18.8937 33.8035 18.1826 34.7189 17.4577ZM32.9155 19.7259C32.9171 19.7305 32.9203 19.7351 32.9219 19.7412C34.2556 19.5113 35.5893 19.2815 36.9407 19.0485C36.4387 18.5948 35.9513 18.1535 35.459 17.709C34.6079 18.3833 33.7617 19.0546 32.9155 19.7259Z" fill="white"/>
<path d="M11.5 31.5C17.5751 31.5 22.5 26.5751 22.5 20.5C22.5 14.4249 17.5751 9.5 11.5 9.5C5.42487 9.5 0.5 14.4249 0.5 20.5C0.5 26.5751 5.42487 31.5 11.5 31.5Z" fill="#26A17B"/>
<path d="M12.7495 22.2427V22.2411C12.6794 22.246 12.3172 22.2672 11.5115 22.2672C10.8672 22.2672 10.4153 22.2493 10.2555 22.2411V22.2427C7.77775 22.1335 5.92966 21.7028 5.92966 21.1858C5.92966 20.6703 7.77938 20.2381 10.2555 20.1288V21.8137C10.417 21.8252 10.8818 21.8529 11.5229 21.8529C12.2928 21.8529 12.6777 21.8203 12.7495 21.8137V20.1304C15.2223 20.2413 17.0655 20.6719 17.0655 21.1874C17.0655 21.7028 15.2207 22.1335 12.7495 22.2444V22.2427ZM12.7495 19.9559V18.4487H16.1994V16.1504H6.80722V18.4487H10.2571V19.9559C7.45315 20.0847 5.3457 20.6393 5.3457 21.3048C5.3457 21.9703 7.45478 22.5249 10.2571 22.6554V27.4869H12.7511V22.6554C15.5502 22.5266 17.6544 21.972 17.6544 21.3065C17.6544 20.6426 15.5502 20.0864 12.7511 19.9575" fill="white"/>
</svg>
