<svg width="44" height="44" viewBox="0 0 44 44" fill="none" xmlns="http://www.w3.org/2000/svg">
<path fill-rule="evenodd" clip-rule="evenodd" d="M21.9863 27.3066C23.2602 25.3481 24.0003 23.0105 24.0003 20.5C24.0003 18.2189 23.3893 16.0806 22.322 14.2396C24.335 11.6593 27.4738 10 31.0001 10C37.0752 10 42.0001 14.9249 42.0001 21C42.0001 27.0751 37.0752 32 31.0001 32C27.2712 32 23.9756 30.1446 21.9863 27.3066Z" fill="#8247E5"/>
<path d="M35.2225 19.2756C34.9998 19.1484 34.7136 19.1484 34.4592 19.2756L32.6783 20.325L31.4699 20.9928L29.7208 22.0423C29.4982 22.1695 29.212 22.1695 28.9575 22.0423L27.5901 21.2155C27.3675 21.0883 27.2085 20.8338 27.2085 20.5476V18.9575C27.2085 18.7031 27.3357 18.4487 27.5901 18.2897L28.9575 17.4947C29.1802 17.3675 29.4664 17.3675 29.7208 17.4947L31.0883 18.3215C31.3109 18.4487 31.4699 18.7031 31.4699 18.9893V20.0388L32.6783 19.3392V18.2579C32.6783 18.0035 32.5511 17.7491 32.2967 17.5901L29.7526 16.0954C29.53 15.9682 29.2438 15.9682 28.9893 16.0954L26.3816 17.6219C26.1272 17.7491 26 18.0035 26 18.2579V21.2473C26 21.5017 26.1272 21.7561 26.3816 21.9151L28.9575 23.4098C29.1802 23.537 29.4664 23.537 29.7208 23.4098L31.4699 22.3921L32.6783 21.6925L34.4274 20.6748C34.65 20.5476 34.9362 20.5476 35.1907 20.6748L36.5581 21.4699C36.7807 21.5971 36.9397 21.8515 36.9397 22.1377V23.7278C36.9397 23.9822 36.8125 24.2366 36.5581 24.3956L35.2225 25.1907C34.9998 25.3179 34.7136 25.3179 34.4592 25.1907L33.0917 24.3956C32.8691 24.2684 32.7101 24.014 32.7101 23.7278V22.7101L31.5017 23.4098V24.4592C31.5017 24.7136 31.6289 24.968 31.8833 25.1271L34.4592 26.6217C34.6818 26.7489 34.968 26.7489 35.2225 26.6217L37.7984 25.1271C38.021 24.9998 38.18 24.7454 38.18 24.4592V21.4381C38.18 21.1837 38.0528 20.9292 37.7984 20.7702L35.2225 19.2756Z" fill="white"/>
<path d="M11.5 31.5C17.5751 31.5 22.5 26.5751 22.5 20.5C22.5 14.4249 17.5751 9.5 11.5 9.5C5.42487 9.5 0.5 14.4249 0.5 20.5C0.5 26.5751 5.42487 31.5 11.5 31.5Z" fill="#26A17B"/>
<path d="M12.7495 22.2427V22.2411C12.6794 22.246 12.3172 22.2672 11.5115 22.2672C10.8672 22.2672 10.4153 22.2493 10.2555 22.2411V22.2427C7.77775 22.1335 5.92966 21.7028 5.92966 21.1858C5.92966 20.6703 7.77938 20.2381 10.2555 20.1288V21.8137C10.417 21.8252 10.8818 21.8529 11.5229 21.8529C12.2928 21.8529 12.6777 21.8203 12.7495 21.8137V20.1304C15.2223 20.2413 17.0655 20.6719 17.0655 21.1874C17.0655 21.7028 15.2207 22.1335 12.7495 22.2444V22.2427ZM12.7495 19.9559V18.4487H16.1994V16.1504H6.80722V18.4487H10.2571V19.9559C7.45315 20.0847 5.3457 20.6393 5.3457 21.3048C5.3457 21.9703 7.45478 22.5249 10.2571 22.6554V27.4869H12.7511V22.6554C15.5502 22.5266 17.6544 21.972 17.6544 21.3065C17.6544 20.6426 15.5502 20.0864 12.7511 19.9575" fill="white"/>
</svg>
