<svg width="44" height="44" viewBox="0 0 44 44" fill="none" xmlns="http://www.w3.org/2000/svg">
<path d="M11.5 31.5C17.5751 31.5 22.5 26.5751 22.5 20.5C22.5 14.4249 17.5751 9.5 11.5 9.5C5.42487 9.5 0.5 14.4249 0.5 20.5C0.5 26.5751 5.42487 31.5 11.5 31.5Z" fill="#26A17B"/>
<path d="M12.7495 22.2427V22.2411C12.6794 22.246 12.3172 22.2672 11.5115 22.2672C10.8672 22.2672 10.4153 22.2493 10.2555 22.2411V22.2427C7.77775 22.1335 5.92966 21.7028 5.92966 21.1858C5.92966 20.6703 7.77938 20.2381 10.2555 20.1288V21.8137C10.417 21.8252 10.8818 21.8529 11.5229 21.8529C12.2928 21.8529 12.6777 21.8203 12.7495 21.8137V20.1304C15.2223 20.2413 17.0655 20.6719 17.0655 21.1874C17.0655 21.7028 15.2207 22.1335 12.7495 22.2444V22.2427ZM12.7495 19.9559V18.4487H16.1994V16.1504H6.80722V18.4487H10.2571V19.9559C7.45315 20.0847 5.3457 20.6393 5.3457 21.3048C5.3457 21.9703 7.45478 22.5249 10.2571 22.6554V27.4869H12.7511V22.6554C15.5502 22.5266 17.6544 21.972 17.6544 21.3065C17.6544 20.6426 15.5502 20.0864 12.7511 19.9575" fill="white"/>
<mask id="path-3-inside-1_13708_276778" fill="white">
<path fill-rule="evenodd" clip-rule="evenodd" d="M21.9863 27.3064C23.2602 25.348 24.0002 23.0104 24.0002 20.5C24.0002 18.219 23.3892 16.0807 22.322 14.2398C24.335 11.6593 27.4738 10 31.0002 10C37.0753 10 42.0002 14.9249 42.0002 21C42.0002 27.0751 37.0753 32 31.0002 32C27.2712 32 23.9756 30.1445 21.9863 27.3064Z"/>
</mask>
<path fill-rule="evenodd" clip-rule="evenodd" d="M21.9863 27.3064C23.2602 25.348 24.0002 23.0104 24.0002 20.5C24.0002 18.219 23.3892 16.0807 22.322 14.2398C24.335 11.6593 27.4738 10 31.0002 10C37.0753 10 42.0002 14.9249 42.0002 21C42.0002 27.0751 37.0753 32 31.0002 32C27.2712 32 23.9756 30.1445 21.9863 27.3064Z" fill="white"/>
<path d="M21.9863 27.3064L21.7348 27.1429L21.6244 27.3127L21.7407 27.4786L21.9863 27.3064ZM22.322 14.2398L22.0855 14.0553L21.9609 14.215L22.0625 14.3903L22.322 14.2398ZM23.7002 20.5C23.7002 22.9506 22.978 25.2316 21.7348 27.1429L22.2378 27.47C23.5423 25.4643 24.3002 23.0702 24.3002 20.5H23.7002ZM22.0625 14.3903C23.1039 16.1867 23.7002 18.2732 23.7002 20.5H24.3002C24.3002 18.1647 23.6746 15.9747 22.5816 14.0893L22.0625 14.3903ZM31.0002 9.7C27.3775 9.7 24.1529 11.4051 22.0855 14.0553L22.5585 14.4243C24.5172 11.9136 27.5702 10.3 31.0002 10.3V9.7ZM42.3002 21C42.3002 14.7592 37.241 9.7 31.0002 9.7V10.3C36.9096 10.3 41.7002 15.0906 41.7002 21H42.3002ZM31.0002 32.3C37.241 32.3 42.3002 27.2408 42.3002 21H41.7002C41.7002 26.9094 36.9096 31.7 31.0002 31.7V32.3ZM21.7407 27.4786C23.7837 30.3934 27.1693 32.3 31.0002 32.3V31.7C27.3732 31.7 24.1676 29.8956 22.232 27.1343L21.7407 27.4786Z" fill="black" fill-opacity="0.2" mask="url(#path-3-inside-1_13708_276778)"/>
<path d="M28.4953 20.1763L31.0003 17.6713L33.5067 20.1776L34.9643 18.72L31.0003 14.7559L27.0377 18.7187L28.4953 20.1763ZM24.5508 21.2053L26.0085 19.7477L27.466 21.2052L26.0084 22.6629L24.5508 21.2053ZM28.4953 22.2348L31.0003 24.7398L33.5066 22.2336L34.965 23.6904L34.9643 23.6912L31.0003 27.6552L27.0376 23.6925L27.0356 23.6905L28.4953 22.2348ZM34.5349 21.2062L35.9926 19.7485L37.4502 21.2061L35.9925 22.6637L34.5349 21.2062Z" fill="#F5AC37"/>
<path d="M32.2896 21.2053H32.2902L31.0009 19.916L30.048 20.8688H30.048L29.9385 20.9783L29.7127 21.2042L29.7109 21.2059L29.7127 21.2078L31.0009 22.4959L32.2902 21.2066L32.2908 21.2059L32.2896 21.2053Z" fill="#F5AC37"/>
</svg>
