<svg width="44" height="44" viewBox="0 0 44 44" fill="none" xmlns="http://www.w3.org/2000/svg">
<path d="M15.3969 19.2872L21.9997 12.6845L28.6058 19.2906L32.4478 15.4486L21.9997 5L11.555 15.4451L15.3969 19.2872ZM5 21.9995L8.84212 18.1573L12.684 21.9992L8.84185 25.8413L5 21.9995ZM15.3969 24.7128L21.9997 31.3155L28.6057 24.7097L32.4497 28.5496L32.4478 28.5517L21.9997 39L11.5548 28.5552L11.5493 28.5498L15.3969 24.7128ZM31.316 22.0016L35.1582 18.1595L39 22.0014L35.1579 25.8435L31.316 22.0016Z" fill="#F3BA2F"/>
<path d="M24.9973 21.9984H24.9985L22 19L19.784 21.2159H19.7839L19.5293 21.4706L19.0042 21.9958L19 21.9999L19.0042 22.0042L22 25L24.9985 22.0016L25 21.9999L24.9973 21.9984Z" fill="#F3BA2F"/>
</svg>
