<svg width="44" height="44" viewBox="0 0 44 44" fill="none" xmlns="http://www.w3.org/2000/svg">
<g clip-path="url(#clip0_11225_243883)">
<path d="M22 44C34.1503 44 44 34.1503 44 22C44 9.84974 34.1503 0 22 0C9.84974 0 0 9.84974 0 22C0 34.1503 9.84974 44 22 44Z" fill="#988430"/>
<path d="M22.0004 43.2956C33.7614 43.2956 43.2956 33.7614 43.2956 22.0004C43.2956 10.2393 33.7614 0.705078 22.0004 0.705078C10.2393 0.705078 0.705078 10.2393 0.705078 22.0004C0.705078 33.7614 10.2393 43.2956 22.0004 43.2956Z" fill="#7A6A2A"/>
<path d="M21.9999 42.8475C33.5132 42.8475 42.8465 33.5142 42.8465 22.0009C42.8465 10.4876 33.5132 1.1543 21.9999 1.1543C10.4867 1.1543 1.15332 10.4876 1.15332 22.0009C1.15332 33.5142 10.4867 42.8475 21.9999 42.8475Z" fill="#BA9F33"/>
<path fill-rule="evenodd" clip-rule="evenodd" d="M9.61854 19.6513C9.49393 19.5375 9.36228 19.4235 9.24119 19.3097C9.1201 19.1959 8.99573 19.0818 8.87112 18.968L8.50082 18.616C8.44027 18.5554 8.37621 18.5022 8.31567 18.4414C8.25512 18.3881 8.18402 18.3276 8.12347 18.2741C7.63208 17.8078 7.13787 17.3415 6.65329 16.875C7.15524 17.3342 7.64663 17.7902 8.14858 18.2562L8.32294 18.4308C8.38348 18.4911 8.44755 18.5447 8.50809 18.6052L8.87816 18.9469C9.00277 19.0607 9.12386 19.1747 9.24847 19.2989C9.37307 19.423 9.49416 19.5373 9.61877 19.6509L9.61854 19.6513ZM3.09691 19.5809C3.09691 19.5809 4.8839 19.7659 5.75616 19.8905C6.56411 20.0045 9.09171 20.3924 9.09171 20.3924L3.09691 19.5809ZM3.09691 19.5809C3.59887 19.6237 4.10082 19.6769 4.60277 19.7304C4.85903 19.7553 5.10472 19.7837 5.35042 19.8086L5.72753 19.8515C5.85214 19.8691 5.97322 19.8869 6.09783 19.9048L7.59313 20.1432L8.34054 20.2678C8.58624 20.3105 8.83193 20.357 9.08819 20.3997C8.84249 20.3748 8.58624 20.3391 8.34054 20.3035L7.59313 20.1967L6.09783 19.9761C5.97322 19.9583 5.85214 19.9332 5.72753 19.9156L5.35018 19.8722C5.10449 19.8473 4.84823 19.8116 4.60254 19.783C4.10058 19.7227 3.59863 19.6584 3.09668 19.5802L3.09691 19.5809ZM8.91383 20.858C8.91383 20.858 7.00576 21.3423 6.36136 21.5275C5.72776 21.7019 3.80889 22.2857 3.80889 22.2857L8.9136 20.8582L8.91383 20.858Z" fill="#CFB66C"/>
<path fill-rule="evenodd" clip-rule="evenodd" d="M8.91363 20.8574C8.49006 20.982 8.06883 21.1031 7.63916 21.2172L6.36468 21.5589C5.94111 21.6835 5.51988 21.8046 5.09748 21.9292L4.46388 22.1035C4.25386 22.1641 4.04031 22.2173 3.82324 22.2781C4.03303 22.2077 4.24682 22.1357 4.45684 22.0751L5.09044 21.8724C5.51402 21.7405 5.93524 21.6159 6.35764 21.4842C6.78826 21.3775 7.21206 21.2634 7.64268 21.1601C8.05194 21.0569 8.48278 20.9539 8.91363 20.8577V20.8574ZM4.07598 23.4599C4.28577 23.3816 6.70659 22.2533 7.26909 21.9897C7.55069 21.8578 8.3692 21.5673 8.3692 21.5673L4.07598 23.4599Z" fill="#CFB66C"/>
<path fill-rule="evenodd" clip-rule="evenodd" d="M4.07641 23.4603C4.26132 23.3899 4.43592 23.3038 4.61379 23.2219L5.14062 22.9762L6.19803 22.4672C6.55003 22.2999 6.89217 22.1152 7.2552 21.958C7.44035 21.8798 7.62551 21.8158 7.81042 21.7552L8.09202 21.6663C8.188 21.6414 8.27717 21.6128 8.37362 21.5879C8.02162 21.7552 7.65108 21.8977 7.29861 22.0612C6.94661 22.2358 6.58664 22.3782 6.22337 22.5348L5.14836 23.0081C4.78745 23.1543 4.43545 23.3108 4.07617 23.4603H4.07641ZM4.31107 24.4459C4.31107 24.4459 6.5038 23.1609 7.25849 22.7478C7.65366 22.5273 8.93166 21.8934 8.93166 21.8934L4.31107 24.4459Z" fill="#CFB66C"/>
<path fill-rule="evenodd" clip-rule="evenodd" d="M4.31152 24.4462C4.68159 24.2184 5.05894 23.987 5.43628 23.7521L5.99948 23.4102C6.19167 23.2964 6.37682 23.1896 6.57277 23.0758C6.76496 22.9617 6.95011 22.8479 7.14583 22.7411C7.239 22.6836 7.33662 22.6336 7.43775 22.5917L7.73672 22.4422C8.1319 22.25 8.52707 22.054 8.94361 21.8867C8.56626 22.1254 8.17813 22.3284 7.79022 22.5382C7.59803 22.6449 7.40208 22.7411 7.20989 22.8479C7.0177 22.9547 6.83255 23.0687 6.6366 23.172C6.44441 23.2858 6.25926 23.3926 6.06354 23.4958L5.48321 23.8126L4.31199 24.4462H4.31152ZM8.91427 22.1749C8.91427 22.1749 7.55086 23.2215 7.10945 23.5561C6.66805 23.8908 5.3687 24.8306 5.3687 24.8306L8.91427 22.1749Z" fill="#CFB66C"/>
<path fill-rule="evenodd" clip-rule="evenodd" d="M16.7387 30.6139L16.041 29.2932L16.4468 27.6414L19.3409 26.5237L18.1091 23.9963L18.7179 21.4439L19.8607 19.1582L23.3922 18.603L25.9871 16.1289L31.5905 16.5525L32.6904 22.5438L30.5723 30.0871L29.3656 33.9924L24.4742 34.1776L22.2031 32.6042L19.5439 31.4932L16.7387 30.6139Z" fill="#E2CC85"/>
<path fill-rule="evenodd" clip-rule="evenodd" d="M25.318 30.5721C25.318 30.5721 24.6415 30.8819 23.4876 30.8106C23.1537 30.3621 20.815 30.1521 20.815 30.1521C20.815 30.1521 20.5231 30.0631 20.0068 30.2767C19.4872 30.4879 18.9959 30.4618 18.5366 30.5757C18.0774 30.6895 17.6214 30.0915 17.2694 29.9669C16.9174 29.8353 16.4507 29.5185 16.4507 29.5185L15.4651 29.4223L13.4859 28.5857L10.3416 25.4531L9.48716 26.7907L9.22363 28.4461L10.1743 30.4076L12.7338 32.7393L17.7247 34.0065L20.6829 33.1349L24.3887 31.5685L25.318 30.5719V30.5721Z" fill="#F1D789"/>
<path fill-rule="evenodd" clip-rule="evenodd" d="M7.58614 19.5013L8.21974 17.5827L8.97467 16.3436L11.4058 16.1406L10.676 18.2695L8.64355 21.8864L9.48718 25.1152L7.99212 25.8626L7.53264 25.1579L7.16257 23.5418L7.1377 21.7262L7.58614 19.5013Z" fill="#F4ECB4"/>
<path fill-rule="evenodd" clip-rule="evenodd" d="M10.3131 30.4398L9.8468 29.7884C9.8468 29.7884 9.72219 29.4786 9.79353 29.2081C9.86393 28.934 9.85384 28.9161 9.8184 28.8129C9.78297 28.7096 9.48376 28.3537 9.5016 28.0474C9.5192 27.7376 9.47672 27.6344 9.70435 27.3889C9.94278 27.1505 9.87167 26.7375 9.87167 26.7375L10.1814 26.9297L10.2518 26.8229C10.2518 26.8229 10.3656 26.9119 10.3656 27.0508C10.3905 26.8586 10.2873 25.9685 10.5222 25.7657C10.7571 25.563 11.1736 26.7161 11.1736 26.7161L10.9174 25.043L10.2586 23.3273L9.08741 21.7609L9.01701 20.0342V19.8848C9.01701 19.8848 8.47938 20.7108 8.3299 21.3632C8.22312 21.8116 8.47938 22.3563 8.42611 23.0007C8.38317 23.6415 8.3299 23.5916 8.48642 23.8455C8.64295 24.0994 9.02405 24.6215 8.87456 24.9989C8.74292 25.3229 8.29423 25.0951 8.29423 25.0951C8.29423 25.0951 8.20529 25.3584 8.0842 25.4546C8.04149 25.2981 7.99526 25.1983 7.90984 25.1026C7.90257 25.1631 7.88497 25.245 7.88497 25.245C7.88497 25.245 7.80659 24.9993 7.72821 24.6896C7.62167 24.2768 7.50762 23.7321 7.40437 23.4402C7.36166 23.6075 7.25488 24.1165 7.25488 24.1165L7.31543 24.8998L7.60736 25.9748L7.88896 26.6788L8.16305 27.5403L8.40124 28.119L8.59343 28.5604L8.76075 29.5537L9.56871 30.4079L9.99956 30.6003L10.3126 30.4401L10.3131 30.4398Z" fill="#F3E19D"/>
<path fill-rule="evenodd" clip-rule="evenodd" d="M8.00949 17.9338C8.00949 17.9338 7.42915 18.9194 7.26207 19.913C7.09499 20.9065 6.94527 21.9564 7.05087 23.3091C7.15764 24.6727 7.36063 25.5091 7.52443 26.1072C7.80603 27.1006 8.53538 28.4818 8.53538 28.4818L8.56025 28.4283C8.43766 28.1959 8.33981 27.9513 8.26832 27.6985C8.17211 27.3212 8.13644 26.8727 8.0475 26.6697C7.96912 26.467 7.83747 26.2924 7.77341 26.0432C7.71287 25.8047 7.70301 25.4274 7.51715 25.1463C7.43877 25.0322 7.34256 24.7333 7.31416 24.4343C7.2785 23.9856 7.332 23.4837 7.28929 23.0709C7.21091 22.3838 7.15764 21.9175 7.22875 21.5577C7.29985 21.198 7.67039 20.1767 7.89825 19.365C8.04774 18.8452 7.95856 18.4073 8.23265 17.9551C8.50675 17.5067 8.6743 17.1115 8.73461 16.8374C8.80501 16.5882 8.00855 17.9338 8.00855 17.9338H8.00949Z" fill="#F2E8B0"/>
<path fill-rule="evenodd" clip-rule="evenodd" d="M10.7615 17.5391C10.7615 17.5391 10.4626 17.6282 10.3201 17.7848C10.1777 17.9342 10.1171 18.0588 9.92494 18.3116C9.73275 18.5643 9.72195 18.7708 9.56519 19.0876C9.40867 19.3974 9.06324 19.8636 9.02053 20.031C8.97782 20.1983 8.90671 20.9814 8.81778 21.3517C8.7394 21.722 8.90671 22.1777 8.90671 22.1777L9.10947 22.1347C9.10947 22.1347 9.10947 22.3983 9.31246 22.5764C9.51521 22.7507 9.55088 21.9853 9.55088 21.9853L10.3091 19.4258L11.4517 18.6497L11.5763 18.0232L10.7611 17.5391H10.7615Z" fill="#F5EEC0"/>
<path fill-rule="evenodd" clip-rule="evenodd" d="M11.3167 18.6993C11.3167 18.6993 10.7791 18.7347 10.5158 18.9271C10.409 19.0053 10.3663 19.0694 10.2525 19.1656C10.0425 19.3399 9.82867 19.5002 9.72566 19.7288C9.61161 19.9564 9.487 20.3018 9.40158 20.9533C9.36591 21.2274 9.36591 21.4801 9.34104 21.7009C9.30537 21.9999 9.2521 22.2383 9.28049 22.4049C9.31616 22.7466 9.66863 22.9247 9.70289 23.3126L10.4327 22.9425L11.1198 20.2333L12.5794 19.3181L11.7534 18.3926L11.3158 18.6976L11.3167 18.6993Z" fill="#E6DB9D"/>
<path fill-rule="evenodd" clip-rule="evenodd" d="M7.46703 36.944C7.47008 36.9172 7.47313 36.8905 7.47618 36.863C7.58272 35.9478 7.60079 35.2542 7.67894 34.8198C7.79275 34.204 7.87113 33.975 7.85329 33.7445C7.82842 33.3745 7.80002 33.1039 7.83569 32.819C7.88896 32.4417 8.25927 31.9932 8.24871 31.6835C8.24143 31.4378 8.11682 31.2777 8.01005 31.1282C7.90328 30.9788 7.81786 30.8542 7.81786 30.8542C7.81786 30.8542 8.54767 30.3522 8.54063 28.3301C8.55553 28.3343 8.56988 28.3403 8.58334 28.3479L8.94285 29.3694L9.18855 29.6684L10.1319 31.427L11.3458 32.6055L13.1399 33.8121L14.2649 35.0364L14.3787 38.3008L12.9085 40.2089L12.6677 40.6449C10.7549 39.6846 9.00081 38.4364 7.4668 36.9438L7.46703 36.944Z" fill="#E5CB7A"/>
<path fill-rule="evenodd" clip-rule="evenodd" d="M11.958 40.066C11.958 40.066 11.9829 39.6603 12.3175 39.3967C12.371 39.4857 12.4065 39.5713 12.3959 39.6352C12.4564 39.5286 12.88 38.845 13.8377 38.6669C14.7954 38.4926 15.0267 37.7949 15.0267 37.7949L17.0592 35.9474L19.3838 33.8079L22.2103 32.8146L23.5313 32.4905C23.5313 32.4905 23.5561 32.5867 23.5064 32.8003C23.7518 32.7827 24.2965 32.658 24.8625 32.4586C25.0904 32.3696 25.3042 32.334 25.418 32.4515C25.5853 32.6081 25.6102 32.9784 25.6207 33.199C25.8948 33.1384 26.2116 32.8751 26.4655 32.9C26.8715 32.9427 27.231 33.4198 27.644 33.4198C28.1887 33.4198 28.4341 33.0851 28.8152 32.8216C29.0431 32.6651 29.3704 32.4696 29.5556 32.3375C29.997 32.0134 34.6676 30.5859 34.6676 30.5859L36.3051 30.6927L36.5686 32.4513L36.4278 37.0484C36.4104 37.0651 36.3931 37.0824 36.3755 37.0991L28.93 40.9878L18.6094 42.5699C16.2975 42.1922 14.0665 41.4248 12.0115 40.3004L11.9587 40.0658L11.958 40.066Z" fill="#D8C173"/>
<path fill-rule="evenodd" clip-rule="evenodd" d="M8.09277 37.528C8.23944 37.2213 8.37132 36.9648 8.39455 36.873C8.41286 37.058 8.44642 37.4637 8.514 37.895C8.3721 37.7744 8.2317 37.652 8.09277 37.5278V37.528Z" fill="#F1D789"/>
<path fill-rule="evenodd" clip-rule="evenodd" d="M15.6315 41.8549L16.9663 41.4836L17.0801 41.5193C17.0801 41.5193 17.1407 41.555 17.1407 41.6758C17.308 41.5799 17.4504 41.5975 17.5537 41.5336C17.607 41.6474 17.6602 42.0248 17.8954 42.071C18.1408 42.1245 18.4043 41.9642 18.6714 41.7615C18.9347 41.5515 19.2346 41.2879 19.4615 41.1812C19.5448 41.3342 19.6185 41.4923 19.6823 41.6545C19.9813 41.4161 20.5011 40.4478 21.2415 40.4654C21.4555 39.9597 21.813 39.5278 22.2698 39.2231C22.9569 38.7568 23.3875 38.7211 23.9251 38.7638C24.1386 38.4865 24.4018 38.2511 24.7012 38.0697C24.7901 38.1054 25.0358 38.2549 25.342 38.1124C25.6518 37.9702 26.0005 37.4183 26.4598 37.3472C26.7072 37.3131 26.9588 37.3659 27.1717 37.4966C27.1717 37.4966 28.5093 36.1687 29.4323 35.7272C29.3966 35.6205 29.3255 35.2183 30.4075 34.3282C30.4681 34.3817 30.4254 34.5311 30.4681 34.5394C30.4857 34.5394 30.7497 34.4256 31.0839 34.1691C31.4969 33.8595 31.9915 33.5355 32.2905 33.4465C32.8537 33.2792 33.4512 33.6209 33.4512 33.6209C33.502 33.5852 33.5586 33.5587 33.6185 33.5425C33.7607 33.5176 33.864 33.4998 33.9423 33.4721C33.9353 33.6572 34.0385 33.9741 33.9423 34.2481C34.0538 34.3108 34.1718 34.361 34.2943 34.3976C34.234 34.5293 34.1021 34.8639 33.8815 35.0242C34.0665 35.1131 34.0913 35.2164 34.3549 35.3058C34.2481 35.4553 34.0733 35.7118 33.9954 35.869C33.917 36.0363 33.6356 36.7305 33.511 36.9938C33.3794 37.2573 33.2015 37.7414 33.1158 37.8386C33.0302 37.9357 32.7207 38.3475 32.4822 38.5503C32.6934 38.4719 33.5575 38.2086 33.924 38.1089C33.8149 38.2689 33.2618 39.0896 32.73 39.8787C30.184 41.4048 27.342 42.3706 24.3934 42.712C21.4447 43.0534 18.4572 42.7624 15.6299 41.8584L15.6315 41.8549Z" fill="#E0CD81"/>
<path fill-rule="evenodd" clip-rule="evenodd" d="M11.405 18.6048C11.405 18.6048 11.0955 18.6048 11.035 18.6475C10.9744 18.6902 11.3447 18.7793 11.4585 18.8221C11.5724 18.8648 11.818 19.0605 11.8821 19.2172C11.9427 19.3667 14.107 20.2387 14.107 20.2387L15.6377 20.1604L16.1655 19.4313L15.1616 18.552L15.8656 16.4766L14.933 16.626L12.6903 17.9636L11.5653 18.3945L11.405 18.6048Z" fill="#DFC57C"/>
<path fill-rule="evenodd" clip-rule="evenodd" d="M14.7664 19.2901C14.7885 19.3259 14.8197 19.3553 14.8568 19.3753C14.8938 19.3952 14.9355 19.4051 14.9776 19.4039C15.2944 19.4039 15.5861 19.4823 15.7072 19.6423C15.9102 19.8988 16.4727 20.7176 16.4727 20.7176L17.8183 21.2017L17.9051 19.6172L16.4349 18.5957L14.7617 19.2115V19.2898H14.7655L14.7664 19.2901Z" fill="#E5CC7C"/>
<path fill-rule="evenodd" clip-rule="evenodd" d="M14.5025 19.8775C14.5025 19.8775 14.7479 19.8953 15.0577 19.7813C15.3674 19.6672 15.8764 19.4218 16.0972 19.518C16.4068 19.6496 16.3427 20.0626 16.6776 20.4332C16.8803 20.661 17.2506 20.654 17.4607 20.8997C17.6707 21.1454 18.3932 21.0313 18.3932 21.0313L18.6673 22.5097L17.5674 23.9196L17.2077 25.6709H15.7204L14.3617 25.1319L13.6924 23.5127L14.027 21.8752L14.5025 19.8775Z" fill="#D2C281"/>
<path fill-rule="evenodd" clip-rule="evenodd" d="M17.3798 19.9488C17.4167 19.9602 17.455 19.9662 17.4936 19.9666C17.4509 20.0023 17.3617 20.0804 17.3974 20.2834C17.433 20.4864 17.5469 20.7427 17.4509 20.8992C17.5275 20.983 17.5846 21.0827 17.6182 21.1911C17.6787 21.3657 17.6966 21.5257 18.0915 21.5508C18.0345 21.5859 17.982 21.6278 17.935 21.6755C17.935 21.6755 18.2091 21.9139 18.348 22.1345C18.4902 22.1284 18.8676 22.011 18.8676 22.011L18.9459 22.0645L19.1133 21.9941C19.1133 21.9941 18.9567 21.9336 19.0705 21.5527C19.1773 21.2181 19.2735 21.2359 19.2817 21.2111C19.29 21.1862 19.3601 20.8337 19.3601 20.6913C19.4134 20.5064 19.4561 19.9439 19.4561 19.9439L19.3423 18.7016L18.7017 18.3134L18.1807 17.8105L17.6893 18.7361L17.3657 19.0587L17.3408 19.8596L17.3798 19.9488Z" fill="#E2C270"/>
<path fill-rule="evenodd" clip-rule="evenodd" d="M18.9209 18.9102C18.9209 18.9102 19.0347 19.234 19.0777 19.4832C19.0928 19.4348 19.1012 19.3845 19.1025 19.3337C19.1025 19.3337 19.1915 19.8251 19.2091 20.0281C19.2447 20.0208 19.2795 20.0103 19.2874 20.0457C19.2954 20.0812 19.3766 20.4766 19.3578 20.6972C19.5061 20.4526 19.7112 20.2475 19.9558 20.0992C20.0982 20.0101 20.2655 19.9141 20.4401 19.9068C20.7142 19.8998 20.9135 20.0814 21.241 20.0814C22.0312 20.0814 22.7469 19.5011 23.2737 19.3232C23.6616 19.1913 23.9963 19.0953 24.2312 18.8815C24.3452 18.7856 24.5482 18.572 24.7331 18.255C24.9788 17.8326 25.2351 17.4649 25.4916 17.4186C25.3755 17.44 25.2575 17.4483 25.1396 17.4435C25.1396 17.4435 25.2179 17.3651 25.3508 17.2584C25.4836 17.1516 25.6427 17.0199 25.8703 17.0199C26.2763 17.0199 26.479 17.0802 26.7069 17.0802C26.9348 17.0732 27.0664 17.0199 27.0664 17.0199C27.0664 17.0199 27.3051 17.1872 27.8425 17.1872C28.3801 17.1943 28.7396 17.2405 29.021 17.2656C29.3023 17.2907 30.2454 17.1872 30.516 17.1952C30.6924 17.202 30.8656 17.2444 31.0252 17.3198L30.153 14.7854L27.0197 12.0469L25.1543 13.3676L22.2848 16.2368L19.5083 17.2656L18.9279 17.9171V18.9102H18.9209Z" fill="#CCB360"/>
<path fill-rule="evenodd" clip-rule="evenodd" d="M25.1509 17.4585C25.1509 17.4585 25.2292 17.3804 25.3606 17.2736C25.4921 17.1668 25.6528 17.0349 25.8804 17.0349C26.2862 17.0349 26.4892 17.0955 26.717 17.0955C26.9449 17.0885 27.0765 17.0349 27.0765 17.0349C27.0765 17.0349 27.3154 17.202 27.8526 17.202C28.3902 17.2091 28.7497 17.2553 29.0311 17.2802C29.3125 17.305 30.2556 17.202 30.5262 17.2098C30.7025 17.2164 30.8757 17.2588 31.0352 17.3344L30.64 16.1916L30.181 15.3195L28.8708 13.8848C28.8708 13.8848 27.2985 12.9593 27.2866 12.9522C27.2795 12.9452 26.7419 12.8027 26.7419 12.8027L25.3179 13.6642L24.0259 17.007L24.001 17.711L24.8373 18.1062C25.0474 17.7542 25.279 17.4726 25.496 17.4369C25.3001 17.4583 25.1506 17.4583 25.1506 17.4583L25.1509 17.4585Z" fill="#D5B457"/>
<path fill-rule="evenodd" clip-rule="evenodd" d="M25.1323 17.6961C25.0077 17.7031 24.9047 17.6782 24.8761 17.5893C24.7693 17.2903 24.6839 17.2476 24.5945 17.2476C24.5051 17.2476 24.3845 17.4398 24.3129 17.4574C24.2413 17.475 24.1564 17.2368 24.1564 17.2368L24.078 17.2012C24.078 17.2012 23.6188 17.5001 23.2949 17.8526C22.9711 18.2051 22.4405 18.8032 22.2021 18.9098C21.9637 19.0163 21.1447 19.0522 20.8645 19.1128C20.5843 19.1733 20.2736 19.3763 20.2309 19.4225C20.1882 19.4688 20.3557 19.5185 20.3806 19.5647C20.4055 19.6074 20.1063 19.5896 20.0814 19.6351C20.0638 19.6708 20.1518 19.8736 20.1954 19.9768C20.2718 19.9388 20.3556 19.9182 20.4409 19.9163C20.715 19.9092 20.9145 20.0909 21.2418 20.0909C22.0322 20.0909 22.7477 19.5105 23.2745 19.3324C23.6626 19.2008 23.9973 19.1046 24.2322 18.891C24.346 18.795 24.549 18.5812 24.7341 18.2644C24.8693 18.0474 25.0012 17.8444 25.1331 17.6949L25.1323 17.6961Z" fill="#D2B257"/>
<path fill-rule="evenodd" clip-rule="evenodd" d="M13.7985 35.3151C13.7985 35.3151 13.7281 35.0515 13.0757 34.3717C12.8905 34.1795 12.7767 34.0197 12.6521 33.9054C12.3424 33.6132 12.1607 33.5351 11.9401 33.3678C11.456 33.0083 10.9292 33.0083 10.5235 32.5669C10.1177 32.1254 9.64487 31.2821 9.31633 30.4201C8.99249 29.5586 8.90332 29.2846 8.90332 29.2597C8.90332 29.2348 8.99249 29.0675 9.10631 29.0924C9.22012 29.1172 9.22012 29.3378 9.24875 29.3913C9.30545 29.4787 9.36977 29.5608 9.44094 29.6368C9.60826 29.8292 9.84668 30.0592 9.96777 30.4023C9.94289 30.1104 9.84316 29.7865 9.84316 29.7865C9.84316 29.7865 10.4697 30.1817 11.0036 30.5945C11.5412 31.0075 11.7618 31.1499 11.9188 31.4132C12.0758 31.6765 12.4456 32.3709 12.6228 32.5739C12.8 32.7769 15.2276 33.5421 15.2276 33.5421L16.3824 34.4031L16.9557 35.6598L16.507 36.3638L15.6455 36.5489L14.2464 35.9224L13.7985 35.3148V35.3151Z" fill="#D2B159"/>
<path fill-rule="evenodd" clip-rule="evenodd" d="M10.6904 30.985C10.6904 30.985 10.9824 31.4513 11.6943 31.8927C12.3352 32.2809 13.3497 32.6333 14.2541 32.8434C14.7736 32.968 15.2934 33.0639 15.7597 33.0712C17.0163 33.0888 17.8813 32.7295 18.953 32.612C19.5334 32.5514 20.2454 32.5052 20.9857 32.3304C21.9361 32.1025 22.4986 31.846 23.2641 31.4856C23.8193 31.2293 24.3286 31.0371 24.7413 30.7914C25.3217 30.4498 25.7452 30.0689 26.2366 29.9551C26.1761 30.1224 26.112 30.4214 25.6279 30.7311C25.8842 30.7238 26.2366 30.7062 26.2366 30.7062C26.2366 30.7062 25.895 30.909 25.2933 31.3647C24.923 31.6463 24.4318 32.1229 23.9299 32.4397C23.6058 32.6427 23.2533 32.7917 23.0219 32.9133C22.4587 33.223 22.2316 33.3796 21.8615 33.7581C21.9931 33.751 22.0039 33.7581 22.0039 33.7581C22.0039 33.7581 21.5374 33.8186 21.203 33.9965C21.1326 33.9965 21.0106 33.9716 20.7971 34.0322C20.6297 34.0854 20.4089 34.2068 20.1813 34.2706C19.8572 34.3668 19.7507 34.3241 19.7507 34.3241L19.8039 34.4309C19.8039 34.4309 19.3815 34.4236 19.2407 34.4379C19.2656 34.445 19.2586 34.4558 19.2586 34.4558C19.2338 34.4599 19.21 34.4683 19.1882 34.4806C19.1204 34.5245 19.0459 34.5569 18.9676 34.5766C18.9249 34.5836 18.8892 34.5836 18.8357 34.5944C18.8535 34.6371 18.9925 34.876 19.0565 35.0168C19.0033 35.0525 18.2021 35.6577 18.2021 35.6577C18.227 35.6968 18.2473 35.7386 18.2627 35.7823C18.2875 35.8605 18.2983 35.9745 18.3232 36.0278C18.3835 36.1346 18.4192 36.1524 18.4192 36.1524C18.4192 36.1524 18.3232 36.1702 18.1556 36.2129C18.0134 36.2486 17.8388 36.3089 17.5924 36.3446C17.5168 36.3544 17.4408 36.3604 17.3646 36.3624C17.4003 36.4408 17.5568 36.7398 17.2684 37.085C16.98 37.4301 16.891 37.4804 16.8021 37.701C16.7573 37.6671 16.7097 37.6373 16.6596 37.6118C16.5637 37.5691 16.4318 37.5052 16.3856 37.4196C16.3586 37.5337 16.3229 37.6456 16.2788 37.7542C16.1898 37.9926 16.0582 38.2278 16.0333 38.4057C15.9371 38.2989 15.7592 38.0889 15.5135 38.1316C15.2678 38.1743 15.0721 38.5089 15.0294 38.6051C15.0294 38.5446 14.9867 38.4984 14.9761 38.5695C14.9689 38.6478 14.8337 39.4664 14.079 40.1286C14.072 39.9613 14.072 39.591 14.0541 39.4701C13.9837 39.5405 13.8976 39.6445 13.3849 39.8653C12.8829 40.0859 12.9625 40.3067 12.9625 40.3067C12.9625 40.3067 12.9198 39.9547 13.1903 39.5839C13.4644 39.2139 13.6317 39.0393 13.6317 39.0109C13.6273 38.9819 13.615 38.9548 13.5961 38.9325C13.5604 38.8968 13.4893 38.8541 13.4893 38.8257C13.532 38.8081 13.9556 38.6051 13.9307 38.1848C13.9058 37.8077 13.7458 37.6118 13.6317 37.4731C13.6141 37.4553 13.7993 37.3236 13.7742 37.2809C13.7564 37.256 13.5287 37.0885 13.5001 36.9993C13.5068 36.9461 13.5188 36.8937 13.5358 36.8428C13.5606 36.7644 13.5785 36.7109 13.5714 36.6576C13.5536 36.5687 13.4574 36.323 13.429 36.2981C13.4539 36.3052 13.6317 36.2981 13.6317 36.2981C13.6317 36.2981 13.4895 36.0703 13.4644 35.9635C13.4393 35.8567 13.386 35.5753 13.3577 35.5221C13.4182 35.5291 13.5677 35.5397 13.5677 35.5221C13.575 35.4686 13.436 35.3796 13.4973 35.3109C13.54 35.3179 13.6219 35.3536 13.7 35.4533C13.6573 35.3393 13.5862 35.1187 13.4365 35.0297C13.5069 35.0049 13.7463 34.9406 13.9563 35.0652C14.1663 35.1898 14.2379 35.3641 14.2379 35.3641C14.2379 35.3641 14.3625 35.4604 14.5549 35.6028C14.7755 35.7772 15.0566 36.0252 15.5053 36.2007C15.6015 36.2542 15.847 36.2542 16.0251 36.2186C16.1027 36.2001 16.177 36.1701 16.2457 36.1296C16.2705 36.115 16.2968 36.1031 16.3241 36.094C16.2858 36.0171 16.2418 35.9433 16.1924 35.8731C16.253 35.8731 16.3241 35.8804 16.3241 35.8804C16.3241 35.8804 16.3668 35.7842 16.1746 35.5988C16.2173 35.5561 16.2708 35.5284 16.2708 35.4564C16.2103 35.4493 16.1035 35.3604 16.0786 35.3247C16.114 35.2998 16.1676 35.2179 16.2281 35.1931C16.1746 35.1504 16.0429 34.9723 15.9824 34.9547C16.0402 34.9332 16.0962 34.907 16.1497 34.8763C16.1497 34.8763 15.8507 34.7979 15.7545 34.7338C15.6583 34.6634 15.5161 34.5416 15.4307 34.506C15.3415 34.4703 15.185 34.4527 15.1209 34.3814C15.1812 34.3992 15.2775 34.3814 15.3488 34.3814C15.4021 34.3814 15.4272 34.3884 15.4448 34.3884C15.4377 34.3635 15.4377 34.31 15.5767 34.2924C15.6435 34.2823 15.7083 34.2619 15.7689 34.2319C15.7689 34.2319 15.637 34.2248 15.4873 34.0824C15.3375 33.94 15.2132 33.8261 15.1277 33.8083C15.0388 33.7905 14.8715 33.8688 14.7682 33.8616C14.6258 33.844 14.5652 33.7726 14.5652 33.7726C14.5652 33.7726 14.0919 33.8153 13.0418 33.1747C12.1339 32.6192 11.7387 32.1281 11.7387 32.1281C11.6537 32.0973 11.5716 32.0591 11.4932 32.014C11.1516 31.8362 10.678 31.4659 10.6923 30.9815L10.6904 30.985Z" fill="#C2A44D"/>
<path fill-rule="evenodd" clip-rule="evenodd" d="M23.7871 9.61963C23.8695 9.64639 23.9426 9.69574 23.9983 9.76208C24.1656 9.95427 24.2724 10.3173 23.8915 10.7054C24.041 10.7587 24.1027 10.7758 24.2332 10.7587C24.1016 10.9155 23.8026 11.2501 23.7848 11.542C23.7669 11.7804 23.9164 11.8518 23.9164 11.8518C23.9164 11.8518 23.6885 12.1151 23.678 12.5558C23.7856 12.4344 23.9034 12.3225 24.03 12.2211C24.2935 12.0111 24.6566 11.7727 24.9022 11.6232C24.8989 11.6859 24.9073 11.7486 24.9271 11.8081C24.9271 11.8081 25.3861 11.4308 25.7719 11.5983C25.9463 11.6767 25.8679 11.9222 25.8679 11.9222C25.8679 11.9222 26.1066 11.8332 26.2739 12.0006C26.4412 12.1679 26.6777 12.5994 26.7991 12.7667C26.8523 12.8451 26.9913 12.9946 27.1335 13.226C27.3278 13.5499 27.49 13.8921 27.6178 14.2475C27.6249 14.0623 27.6711 13.7742 28.1982 13.9556C28.725 14.1407 29.3229 14.5289 29.8249 15.2932C30.3268 16.0575 30.4512 16.9203 30.704 17.2489C30.9602 17.5657 31.2237 18.0925 31.2416 18.3133C31.2594 18.5342 31.1632 19.2459 31.69 21.1718C31.8395 20.5739 32.0674 19.2459 32.0674 19.2459L32.192 18.0747L32.3344 14.4507L28.5502 11.3069L25.5919 9.16016L23.666 9.34531L23.7869 9.6194L23.7871 9.61963Z" fill="#CAA13E"/>
<path fill-rule="evenodd" clip-rule="evenodd" d="M30.8177 15.012C30.8177 15.012 30.7642 14.66 29.8744 14.0616C28.9843 13.4707 28.2902 13.4707 27.6495 12.9687C27.1581 12.5736 26.6456 11.6656 26.3119 11.3667C25.9878 11.0712 25.9346 10.2168 25.9346 10.2168L27.0274 9.3016L28.6527 6.95235L30.0267 5.43945L30.6852 6.35465L31.6004 7.42966L32.1094 9.58696L32.2945 12.7446L30.8161 15.0122L30.8177 15.012Z" fill="#B59544"/>
<path fill-rule="evenodd" clip-rule="evenodd" d="M31.9175 18.7959C31.9444 18.317 31.8853 17.8372 31.7429 17.3792C31.5082 16.6494 30.9955 15.3535 30.7573 14.8682C30.6611 14.3306 30.7324 14.2879 30.8357 14.2274C30.9389 14.1668 31.3271 13.9458 31.5397 13.1702C31.7523 12.3946 32.4119 12.3693 32.4119 12.3693L32.8177 12.0703L33.4337 13.6116L33.9711 15.0036L34.1384 16.0681L34.263 16.9758L33.9711 18.8947L32.5295 20.1975L31.9173 18.7959H31.9175Z" fill="#C89D3A"/>
<path fill-rule="evenodd" clip-rule="evenodd" d="M11.8008 40.1849V40.1454C11.8307 40.1267 11.8572 40.1029 11.8789 40.075C11.9038 40.0394 11.9219 39.9967 11.9395 39.9861C11.9751 39.9683 12.1425 39.9157 12.2314 39.9326C12.3203 39.9495 12.5555 40.0464 12.6801 40.0394C12.9363 40.0323 13.2353 39.8364 13.7089 39.9256C14.4208 40.0572 14.5882 40.5413 15.0012 40.8154C15.2828 41.0079 15.5742 40.9222 15.6169 40.9222H15.7129C15.7307 40.9222 15.8624 40.7727 15.9337 40.78C16.0762 40.787 16.0903 40.9046 16.1792 40.9116C16.3892 40.9365 16.7952 40.8049 16.9982 40.8584C17.0584 40.8772 17.1131 40.9104 17.1577 40.9549C17.2023 40.9995 17.2355 41.0542 17.2544 41.1144C17.2971 41.246 17.2615 41.4134 17.1582 41.5096C16.9376 41.7123 16.7276 41.9048 16.6849 42.0728C16.7392 42.1142 16.7914 42.1584 16.8412 42.2051C15.0798 41.7564 13.3851 41.0778 11.8008 40.187V40.1849Z" fill="#CEB052"/>
<path fill-rule="evenodd" clip-rule="evenodd" d="M30.7568 33.0721C30.7568 33.0721 31.3121 32.3318 31.5045 31.965C31.6967 31.5869 30.8958 26.7997 30.8958 26.7997L32.5049 21.5277L32.4619 19.8118C32.4619 19.8118 32.5403 18.2276 32.7255 17.5405C32.9463 17.9357 33.6334 18.4128 33.7829 18.6655C33.8533 18.1811 34.0924 17.1596 34.057 16.0703C34.1886 16.2731 34.5055 18.313 34.5055 18.313L34.8223 19.687L35.2353 21.1466L35.6945 22.6881L35.9686 23.7526L36.1251 24.0089L36.257 24.4573L36.3816 24.9416L36.7412 26.0772L36.9524 27.0098L37.1197 28.7008C37.1561 28.8303 37.1823 28.9624 37.1981 29.096C37.2051 29.2811 37.1732 29.3879 37.1732 29.42C37.1732 29.4522 37.2337 29.8258 37.2088 30.1071C37.1732 30.3887 37.1732 30.6091 36.9524 30.8111C36.7315 31.0132 36.5928 32.2208 36.5928 32.2208L36.1977 31.9575C36.1977 31.9575 36.276 31.5977 36.0909 31.2704C35.9057 30.943 35.5462 30.8752 35.3432 30.9287C35.1405 30.9714 34.7347 31.0352 34.6028 31.1493C34.4782 31.2631 34.1722 31.6156 33.8909 31.7758C33.5388 31.987 32.9653 32.0037 32.6593 32.0748C32.3495 32.1452 32.0079 32.3564 31.6481 32.6016C31.366 32.7843 31.0682 32.9413 30.7582 33.071L30.7568 33.0721Z" fill="#CCA847"/>
<path fill-rule="evenodd" clip-rule="evenodd" d="M30.7568 40.8501C30.7568 40.8501 30.7803 40.8654 30.8256 40.8902C33.3547 39.7053 35.6208 38.0257 37.4901 35.9505C37.4697 35.2301 37.4432 34.4916 37.4141 34.218C37.3538 33.6376 37.3965 33.0467 37.3787 32.7051C37.3608 32.3634 37.1686 30.9713 37.0797 30.6118C36.9835 30.2523 36.7981 30.0742 36.7699 30.0742C36.7451 30.0815 36.5953 30.7508 36.5953 30.919C36.5953 31.0873 36.5597 31.4923 36.5597 31.5956C36.5348 31.5883 36.5242 31.5252 36.5242 31.4993C36.4886 31.5883 36.4459 31.745 36.428 31.7629C36.4102 31.7807 36.4529 31.6134 36.428 31.5777C36.4031 31.5421 36.3576 31.5599 36.3675 31.471C36.3717 31.4182 36.38 31.3659 36.3924 31.3144C36.3924 31.3144 36.2856 31.471 36.2074 31.8697C36.1291 32.2648 36.1291 32.2756 36.1007 32.3111C36.0758 32.354 35.9333 32.4962 35.9261 32.5497C35.919 32.6457 36.058 32.7419 36.0685 32.7952C36.0756 32.8844 35.9439 33.2971 35.9012 33.4992C35.8585 33.7012 35.8763 34.0971 35.8308 34.3001C35.7951 34.4852 35.7604 34.592 35.6386 34.6702C35.7275 34.688 35.813 34.7129 35.813 34.7129C35.813 34.7129 35.9376 35.2397 35.6208 35.6884C35.507 35.8449 35.4786 35.9162 35.3575 36.0587C35.1188 36.322 34.9337 36.6219 34.9158 36.8169C34.9035 36.7593 34.8952 36.701 34.891 36.6423C34.891 36.6423 34.5209 37.0732 34.3641 37.3188C34.1614 37.6356 33.88 37.6178 33.8009 37.6962C33.7218 37.7746 33.7047 37.9168 33.7305 38.0308C33.6601 38.0484 33.5278 38.0735 33.4386 38.3476C33.3959 38.4898 33.2891 38.6292 33.1218 38.725C32.9545 38.8207 32.7515 38.8496 32.6482 38.8745C32.7372 38.8993 32.7729 38.8993 32.8156 38.9277C32.7623 39.0167 32.5166 39.1556 32.2425 39.3337C31.9684 39.501 31.8365 39.7465 31.769 39.9068C31.6986 40.0562 31.5946 40.1524 31.4273 40.1703C31.4977 40.213 31.6019 40.3125 31.6551 40.3446C31.5768 40.3625 31.4439 40.3625 31.2067 40.5655C30.9575 40.772 30.8721 40.8325 30.758 40.8503L30.7568 40.8501Z" fill="#C39D3C"/>
<path fill-rule="evenodd" clip-rule="evenodd" d="M25.8039 42.4992C25.9402 42.4036 26.0879 42.3254 26.2434 42.2662C26.7987 42.0456 27.386 42.0029 27.6174 41.9318C27.8382 41.8614 28.0126 41.7642 28.2867 41.7109C28.2794 41.7734 28.2733 41.832 28.2667 41.8874C27.4587 42.1414 26.6358 42.3458 25.8027 42.4992H25.8039Z" fill="#D2BA6B"/>
<path fill-rule="evenodd" clip-rule="evenodd" d="M36.0444 27.8955C36.0444 27.8955 35.9306 28.5112 35.7276 28.8994C35.5246 29.2875 35.3052 29.8249 35.3052 29.8249C35.3065 29.7038 35.3208 29.5832 35.3479 29.4652C35.0916 29.6146 34.4686 29.9744 34.2919 30.1344C34.1246 30.2839 33.8432 30.5474 33.7721 30.6721C33.9394 30.1809 34.1138 29.7395 34.1424 29.5365C33.8862 29.7217 32.6898 30.7077 32.067 31.3592L30.1268 32.9291C29.9029 33.0499 29.6723 33.1578 29.4362 33.2524C29.1018 33.3947 28.7066 33.5157 28.4147 33.6298C28.493 33.4198 28.6174 33.2344 28.792 33.0565C28.9772 32.8821 29.5324 32.2805 29.6178 32.0005C29.6962 31.7086 29.714 31.5342 29.6108 31.2885C29.5145 31.3134 29.294 31.3242 29.1445 31.3669C28.995 31.4096 28.8347 31.5697 28.8347 31.5697C28.8347 31.5697 28.9485 30.9182 29.1942 30.3025C29.0091 30.3095 28.6923 30.3628 28.6923 30.3628C28.6923 30.3628 29.1337 29.6224 29.8891 29.1064C29.6577 29.1556 29.4314 29.2258 29.2128 29.3161C28.7714 29.5013 28.2872 29.7754 27.9277 29.9249C28.1305 29.6433 29.5544 27.6111 30.4018 25.7171C31.2466 23.8268 31.5623 23.3427 31.7474 22.3282C31.8434 21.8263 31.8178 21.0845 31.8434 20.4202C31.8683 19.7615 31.9502 19.1706 31.8969 18.7754C32.1175 19.0495 32.9435 19.822 32.9719 21.5487C32.9968 23.2751 32.1818 25.607 31.3166 26.8634C31.5278 26.924 32.075 26.9953 32.6373 26.0186C33.1995 25.0419 33.1927 24.7692 33.3957 24.3633C33.4206 24.5663 33.4133 24.6374 33.4133 24.6374C33.4133 24.6374 34.2323 23.6443 34.6202 22.3947C34.6986 22.9323 34.93 23.4058 34.5667 24.3919C34.2429 25.2818 33.8193 25.4991 33.8193 25.4991C33.8193 25.4991 34.0293 25.4634 34.3388 25.2782C34.3923 25.4099 34.3818 25.5598 34.4707 25.6129C34.5596 25.6659 34.6807 25.7553 34.6986 25.8407C34.7946 25.6983 34.944 25.5167 34.9905 25.3815C34.9548 25.6631 34.93 26.8944 35.0609 27.5209C35.3352 27.4961 35.6164 27.4782 35.8085 26.9833C35.6769 27.4677 35.6769 27.7594 35.7658 28.1724C35.9118 28.0729 36.0434 27.8948 36.0434 27.8948L36.0444 27.8955Z" fill="#C0993A"/>
<path fill-rule="evenodd" clip-rule="evenodd" d="M26.7947 8.27318C26.7947 8.27318 26.5206 8.38699 26.0544 8.38699C25.6486 8.38699 25.7624 8.23047 25.1288 8.23047C24.1536 8.23047 20.7467 8.79367 20.1485 8.78569C19.7604 8.77865 21.4584 8.95301 21.4584 8.95301L25.7981 9.01355L26.6701 8.94315L26.9942 8.28374L26.7947 8.27318Z" fill="#A88F33"/>
<path fill-rule="evenodd" clip-rule="evenodd" d="M15.5429 16.7564C15.5429 16.7564 14.9874 17.18 14.7525 17.5041C14.5176 17.8282 14.393 18.0415 14.126 18.305C14.1887 18.3074 14.2513 18.299 14.3111 18.2801C14.3111 18.2801 14.3111 18.3505 14.2684 18.3691C14.3053 18.3649 14.3427 18.3691 14.3778 18.3813C14.4129 18.3935 14.4448 18.4134 14.4712 18.4395C14.3928 18.4822 14.1792 18.696 14.3466 18.9487C14.4712 19.1409 14.7347 19.1585 14.7347 19.1585C14.7347 19.1585 14.6742 19.3331 14.9269 19.3152C15.4716 19.2904 16.0803 19.0517 16.3614 19.1123C16.643 19.1827 16.8031 19.2085 17.0023 19.5539C17.2135 19.8956 17.3975 19.9491 17.3975 19.9491C17.3975 19.9491 17.5221 19.632 17.4937 19.1587C17.5958 18.9036 17.6525 18.6325 17.661 18.3578L17.4758 16.9944L16.6679 15.9727L15.6213 16.553L15.5429 16.7557V16.7564Z" fill="#E3C571"/>
<path fill-rule="evenodd" clip-rule="evenodd" d="M16.5352 16.553C16.5352 16.553 16.6135 16.7381 16.9411 16.7557C16.9055 16.8341 16.9055 16.8449 16.9163 16.9052C16.9233 16.9657 16.9339 17.0547 16.9339 17.0547C16.9699 17.0372 17.0025 17.0134 17.0301 16.9843C17.0479 17.0627 17.0122 17.187 17.0301 17.2762C17.0411 17.3304 17.059 17.383 17.0833 17.4327C17.0885 17.4206 17.0945 17.4087 17.1012 17.3973C17.1082 17.3795 17.1716 17.5895 17.3469 17.7493C17.3467 17.7247 17.3528 17.7005 17.3645 17.6789C17.3672 17.7235 17.3819 17.7666 17.4072 17.8035C17.3941 17.7972 17.3821 17.7888 17.3717 17.7786C17.3717 17.7786 17.3893 18.3418 17.4856 18.633C17.5016 18.6142 17.5159 18.594 17.5283 18.5725C17.5283 18.5549 17.5212 18.7293 17.5034 18.8541C17.4785 18.9787 17.4964 19.1531 17.4964 19.1531C17.5605 19.1025 17.6311 19.0606 17.7061 19.0285C17.8129 18.9855 17.9877 18.8539 18.0943 18.5619C18.1561 18.3966 18.2037 18.2263 18.2367 18.053C18.2711 18.1192 18.2949 18.1905 18.3071 18.2642C18.3144 18.3531 18.4817 18.3069 18.4817 18.3069L18.5174 17.9187L18.7286 17.0394L18.9208 16.4948L19.8463 15.0532L21.5185 13.7654L22.9782 14.1L24.2097 12.4268L22.0881 11.1523L20.0803 11.3624L18.2581 13.8862L16.7987 16.1754L16.5352 16.5527V16.553Z" fill="#D8B65B"/>
<path fill-rule="evenodd" clip-rule="evenodd" d="M27.0515 12.9003C27.0515 12.9003 26.9269 12.9252 26.5674 13.1115C26.2079 13.2978 25.9587 13.357 25.8198 13.6311C25.6808 13.9052 25.6703 14.1225 25.6703 14.1225C25.6703 14.1225 25.916 14.0157 26.0584 13.98C26.2079 13.9446 26.3752 13.9551 26.3574 14.0157C26.3403 14.0572 26.3165 14.0956 26.287 14.1295C26.287 14.1295 26.5686 14.1225 26.5611 14.2614C26.5536 14.4003 26.5078 14.5533 26.4545 14.6209C26.401 14.6913 26.1804 14.7955 26.1556 14.8774C26.095 15.0447 26.1805 15.0517 26.1483 15.1869C26.1234 15.3188 26.0061 15.575 25.6215 16.0235C25.2263 16.4722 25.0583 16.789 25.0583 16.789C25.0583 16.789 24.8661 16.4295 24.7664 16.1197C24.696 16.1551 24.3179 16.3652 24.3179 16.3652L23.4421 13.3145L23.4597 13.1115C23.4597 13.1115 23.5381 13.0155 23.5559 12.8374C23.4243 12.7947 23.4065 12.759 23.2319 12.592C23.0573 12.4249 22.9151 12.2217 22.6234 12.0827C22.5807 12.0044 22.5272 11.8978 22.3136 11.8549C22.1001 11.8119 21.972 11.7767 21.972 11.7767C21.972 11.7767 22.0858 11.7338 22.1393 11.6448C22.0074 11.6627 21.9009 11.7054 21.6124 11.6983C21.3205 11.6911 21.2884 11.6805 21.1283 11.7054C20.9683 11.7303 20.7763 11.8016 20.7048 11.5559C20.6264 11.4954 20.4591 11.5489 20.3166 11.7587C20.1742 11.9684 20.1244 12.136 19.8503 12.2179C19.8311 12.3387 19.7888 12.4547 19.7257 12.5596C19.6474 12.6915 19.5227 12.8231 19.3554 13.0188C19.0919 13.3286 19.1346 13.8376 18.7146 14.2257C18.291 14.6136 18.785 13.1505 18.785 13.1505L19.4613 11.5313L21.3872 9.64806L24.3775 9.44531L24.6694 10.9941L26.1291 11.4961L27.0511 12.9022L27.0515 12.9003Z" fill="#D3AE4D"/>
<path fill-rule="evenodd" clip-rule="evenodd" d="M27.5245 13.2422L26.2679 11.4304L25.3886 10.7538C25.3886 10.7538 24.7621 9.60065 24.7194 9.56499C24.6837 9.54011 24.0928 9.47605 23.7155 9.45117L23.7859 9.62553C23.8682 9.65228 23.9414 9.70164 23.9971 9.76797C24.1644 9.96016 24.2712 10.3232 23.8903 10.7113C24.0398 10.7646 24.1015 10.7817 24.232 10.7646C24.1003 10.9214 23.8014 11.256 23.7835 11.5479C23.7657 11.7863 23.9152 11.8574 23.9152 11.8574C23.9152 11.8574 23.6873 12.121 23.6768 12.5614C23.7844 12.4401 23.9021 12.3281 24.0288 12.2268C24.2923 12.0156 24.6553 11.7781 24.901 11.6286C24.8976 11.6914 24.9061 11.7542 24.9259 11.8138C24.9259 11.8138 25.3849 11.4365 25.7707 11.6038C25.945 11.6821 25.8666 11.9278 25.8666 11.9278C25.8666 11.9278 26.1053 11.8389 26.2726 12.0062C26.4399 12.1735 26.6783 12.6042 26.7994 12.7717C26.8527 12.8501 26.9916 12.9996 27.1338 13.2307C27.3281 13.5547 27.4904 13.8969 27.6182 14.2525C27.6252 14.11 27.6538 13.9108 27.8998 13.9108L27.5259 13.2415L27.5245 13.2422Z" fill="#CAA13E"/>
<path fill-rule="evenodd" clip-rule="evenodd" d="M8.68601 18.3895C8.68601 18.3895 8.59707 18.1687 8.68601 17.7381C8.77495 17.3074 8.91388 17.1045 8.96011 16.4709C9.00634 15.8373 9.41935 15.0469 9.41935 15.0469L10.562 14.5273L11.3702 14.7479L11.6086 15.8302L10.5868 16.3934C10.5868 16.3934 10.5336 16.6318 10.2452 16.824C9.95674 17.0162 9.55804 17.1657 9.46206 17.3616C9.40468 17.4816 9.36281 17.6084 9.33745 17.739C9.33745 17.739 9.04553 17.6784 8.87117 17.8706C8.68601 18.0666 8.69305 18.2409 8.68601 18.3904V18.3895Z" fill="#F4EFC8"/>
<path fill-rule="evenodd" clip-rule="evenodd" d="M10.9932 18.1017C10.9932 18.1017 10.897 18.1623 10.8259 18.3129C10.7555 18.1991 10.5872 17.5226 10.5802 16.9139C10.5732 16.3051 10.5368 16.1542 10.6776 15.9444C10.8184 15.7347 11.3706 15.5136 11.2922 15.1358C11.2138 14.7763 10.8862 14.6268 10.484 14.7301C10.2024 14.8005 9.99282 15.3993 9.7009 15.6983C9.48008 15.9261 9.21678 15.8905 9.14568 16.0151C9.04946 16.1824 9.1384 16.3497 9.11001 16.4565C9.10273 16.4922 9.01379 16.6843 8.85352 16.9157C8.52968 17.382 7.98149 18.0407 7.91016 18.6316C7.93503 18.297 7.91743 18.2899 8.00637 17.9196L7.95287 17.8307L8.30487 16.6773L8.53273 15.7269L9.04195 14.1354L9.93885 12.5087L10.8111 11.5332L11.7188 11.5937L11.8256 12.9572L12.3454 15.5169L13.4382 16.8625L11.6866 18.0412L10.9925 18.1017H10.9932Z" fill="#EBCC73"/>
<path fill-rule="evenodd" clip-rule="evenodd" d="M11.5372 18.5862C11.5372 18.5862 11.3877 18.6219 11.3342 18.5935C11.2807 18.5651 11.2276 18.533 11.2452 18.4973C11.2628 18.4616 11.3591 18.4013 11.3591 18.3727C11.361 18.3468 11.3529 18.3212 11.3362 18.3013C11.3196 18.2813 11.2959 18.2686 11.2701 18.2659C11.1882 18.2554 11.1634 18.3086 11.1634 18.3086C11.1634 18.3086 11.085 18.2483 11.0211 18.2382C11.0589 18.2336 11.0969 18.2312 11.135 18.2309C11.0366 18.1864 10.9322 18.1564 10.8252 18.142C10.9141 18.0887 11.0887 17.932 11.2025 17.932C11.3164 17.932 11.3877 17.9144 11.3699 17.8538C11.352 17.7933 11.2631 17.7043 11.1671 17.6687C11.2025 17.626 11.2276 17.5619 11.1422 17.3871C11.0531 17.2127 11.0887 17.0951 11.1174 17.0527C11.1422 16.9992 11.2312 16.9032 11.2739 16.8426C11.3166 16.7821 11.3523 16.7002 11.4234 16.6575C11.459 16.6326 11.5728 16.5871 11.6869 16.5437C11.8115 16.501 11.9148 16.4475 11.9859 16.501C12.0642 16.5542 12.0286 16.6256 12.0286 16.6256C12.0286 16.6256 12.2743 16.5364 12.4948 16.6504C12.7157 16.757 13.2533 16.8248 13.2533 16.8248L13.446 17.2129L12.1715 18.3058L11.6447 18.5693L11.5379 18.5869L11.5372 18.5862Z" fill="#E5C66B"/>
<path fill-rule="evenodd" clip-rule="evenodd" d="M13.3064 16.7983C13.3064 16.7983 12.9113 17.0618 12.8223 17.1578C12.8756 17.1651 12.9645 17.2008 12.9289 17.254C12.8862 17.3073 12.6299 17.4924 12.4875 17.667C12.338 17.8414 12.1955 18.0622 12.1458 18.169C12.0925 18.265 11.6865 18.5463 11.5479 18.5818C11.8398 18.5818 12.4271 18.2223 12.6477 18.2223C12.6407 18.329 12.7083 18.4501 12.8329 18.4607C12.9575 18.4712 13.317 18.5391 13.8011 18.2401C14.2852 17.9482 14.1252 17.7309 14.3279 17.5887C14.7161 17.3322 14.8726 17.1043 15.0862 16.9621C15.2997 16.8199 15.4102 16.7875 15.4102 16.7875C15.4102 16.7875 15.4173 16.6807 15.4806 16.6915C15.498 16.6935 15.5144 16.7002 15.5283 16.7109C15.5421 16.7216 15.5527 16.7358 15.559 16.7521C15.559 16.7521 15.9293 16.4885 16.4038 16.4174C16.3927 16.4125 16.3839 16.4036 16.3789 16.3926C16.3789 16.3926 16.4144 16.3747 16.4216 16.3569C16.4216 16.3569 16.4465 16.3212 16.4644 16.3391C16.4822 16.3569 16.5071 16.4885 16.5427 16.542C16.6211 16.5064 16.7706 16.1717 16.7706 16.1717L17.1303 15.143V14.2031L16.8487 14.2566L14.7367 15.1535L13.455 16.4815L13.3055 16.7983H13.3064Z" fill="#E6BD62"/>
<path fill-rule="evenodd" clip-rule="evenodd" d="M19.3871 12.1881C19.5013 12.1604 19.6108 12.116 19.7121 12.0563C19.6694 12.1703 19.6694 12.2949 19.4842 12.5655C19.2991 12.8361 19.292 12.8752 19.1425 13.1564C18.9931 13.4483 18.9752 13.8683 18.8328 14.0533C18.8966 14.0222 18.9651 14.0019 19.0355 13.993C19.0355 13.993 18.8933 14.1176 18.8328 14.2492C18.7722 14.3809 18.6655 14.6549 18.4022 14.8225C18.1389 14.99 17.804 15.0966 17.4445 15.4918C17.0848 15.8797 16.7147 16.3711 16.5293 16.5478C16.6255 16.3804 16.7572 16.0458 16.7928 15.8252C16.8285 15.6046 16.7856 15.3409 16.8461 15.0492C16.9066 14.7575 16.9066 14.5472 17.1981 14.038C17.4896 13.5288 17.9885 11.7596 17.9885 11.7596L19.0635 11.418L19.3875 12.187L19.3871 12.1881Z" fill="#B6933F"/>
<path fill-rule="evenodd" clip-rule="evenodd" d="M18.6105 11.5385C18.6105 11.5385 18.2867 12.0048 18.1977 12.4178C18.1088 12.8308 18.1904 12.7952 18.1372 12.9981C18.1053 13.1219 18.1053 13.2517 18.1372 13.3755C18.2493 13.1948 18.4029 13.0434 18.5852 12.9338C18.8914 12.7489 19.1406 12.617 19.2892 12.4605C19.4386 12.2932 19.5632 12.0191 19.8871 11.8091C19.7554 11.7913 19.5703 11.7307 19.5351 11.7387C19.667 11.5892 20.0619 11.3613 20.4606 11.0873C20.8558 10.8057 20.8309 10.6921 21.4718 10.4109C21.2618 10.4466 21.162 10.3931 20.9874 10.4109C21.0578 10.2615 21.3042 10.1901 21.5506 9.94466C21.797 9.6992 21.3941 9.33594 21.3941 9.33594L19.5168 10.4715L18.6091 11.5395L18.6105 11.5385Z" fill="#C49937"/>
<path fill-rule="evenodd" clip-rule="evenodd" d="M13.5166 10.691L13.5593 10.3493L14.0969 9.48788L14.6594 7.97498V5.90663L14.6167 4.71054L14.7057 3.92723L14.7732 3.67824L14.8446 3.58203L15.3036 3.82045L15.9374 4.68191L15.998 6.34452L15.382 8.96809L13.6234 10.887L13.5166 10.691Z" fill="#DFC068"/>
<path fill-rule="evenodd" clip-rule="evenodd" d="M14.9158 3.48539C14.9158 3.48539 14.6342 3.49266 14.5741 4.66389C14.5141 5.83511 14.485 6.45088 14.4423 7.03121C14.3996 7.61154 14.3001 7.96378 14.2501 8.30569C14.2001 8.6476 14.1717 9.11365 14.0116 9.39853C13.9412 9.53018 13.7908 9.9432 13.4384 10.253C13.0432 10.5946 12.4528 10.8333 12.3633 10.8511C12.2066 10.8866 11.4127 10.9649 11.0889 11.1431C10.9751 11.2036 10.7791 11.2747 10.562 11.4777C10.1312 11.8656 9.55814 12.5597 9.14513 13.3963C8.51153 14.6459 7.87793 18.1737 7.87793 18.1737L8.02037 17.9353C8.02037 17.9353 8.03821 17.6185 8.35501 17.063C8.66477 16.5078 8.57583 15.8847 9.00644 14.8203C9.17376 14.4146 9.38379 13.8877 9.64004 13.439C10.046 12.7092 10.5372 12.0827 11.0321 11.741C11.84 11.1858 12.7301 11.0647 12.7301 11.0647L13.6878 10.4311C13.6878 10.4311 13.8551 10.1072 14.0759 9.73693C14.3855 9.21737 14.7799 8.63704 14.8661 7.79341C14.998 6.54381 14.6809 5.72505 14.6988 4.98468C14.7166 4.2443 14.7236 3.69964 14.8733 3.56775C15.0231 3.43587 14.9161 3.48586 14.9161 3.48586L14.9158 3.48539Z" fill="#A88F33"/>
<path fill-rule="evenodd" clip-rule="evenodd" d="M14.9155 9.07335C14.9155 9.07335 15.3379 8.03378 15.5313 7.11177C15.5669 6.92662 15.6381 6.7417 15.6559 6.59222C15.7448 5.71996 15.7697 5.36045 15.6559 4.88338C15.5669 4.53138 15.2253 4.21411 15.0472 3.96818C14.8728 3.71169 14.7909 3.61618 14.8266 3.5622C14.8622 3.50823 15.0009 3.42 15.1361 3.43056C15.2798 3.43474 15.4211 3.4681 15.5515 3.52861C15.6819 3.58912 15.7986 3.67552 15.8945 3.78256C16.1686 4.09936 16.3857 5.1746 16.3857 5.1746L16.614 6.59339L17.1944 8.38038L14.916 9.07476L14.9155 9.07335Z" fill="#C99E3D"/>
<path fill-rule="evenodd" clip-rule="evenodd" d="M18.8855 7.99203C18.8855 7.99203 18.8071 8.02747 18.6649 7.99203C18.6709 8.05015 18.6609 8.10881 18.6357 8.16156C18.6106 8.21431 18.5714 8.2591 18.5224 8.291C18.3729 8.23045 16.9736 8.35154 16.9736 8.35154C16.9736 8.35154 16.3222 8.23749 16.1192 7.37603C15.977 6.80274 16.226 6.01262 16.1441 5.49283C16.0195 4.72735 15.8451 4.57763 15.8273 4.33944C15.8095 4.10126 15.7916 4.04048 15.7916 3.891C15.7132 3.87316 15.667 3.84829 15.5889 3.84829C15.571 3.77789 15.6065 3.7164 15.5283 3.5918C15.571 3.60963 15.863 3.6453 16.2046 3.96914C16.4862 4.23267 16.4862 4.32865 16.5287 4.38215C16.582 4.43542 17.0128 4.80455 17.198 5.17251C17.3831 5.54047 17.7426 6.7138 17.8245 6.906C17.8494 6.98437 17.9029 7.06275 18.0357 7.24063C18.2422 7.49712 18.5447 7.92116 18.8864 7.99156L18.8855 7.99203Z" fill="#B58634"/>
<path fill-rule="evenodd" clip-rule="evenodd" d="M16.5781 4.40039C16.7938 4.74876 16.9875 5.11022 17.1582 5.48267C17.3682 5.956 17.4929 6.34413 17.7564 6.66093C17.6139 6.24816 17.3612 5.43644 17.2117 5.14804C17.0444 4.84297 16.7027 4.51444 16.5781 4.40063V4.40039Z" fill="#A88F33"/>
<path fill-rule="evenodd" clip-rule="evenodd" d="M14.1581 10.2522C14.1581 10.2522 13.7986 10.3411 13.1293 10.6936C12.9085 10.8074 12.6987 10.9034 12.4957 10.9926C11.9684 11.231 11.4029 11.4513 10.9542 11.5729C10.9899 11.6156 11.0075 11.6332 11.0075 11.6332C11.0075 11.6332 11.0075 11.8078 11.1037 11.9073C11.0504 11.9608 10.3382 12.4449 10.5485 14.0646C10.6907 14.0113 10.858 13.94 10.8829 13.94C10.9258 13.9472 10.9364 14.0646 10.9897 14.0646C11.0429 14.0646 11.2175 13.9942 11.4027 13.7548C11.3956 13.851 11.2889 14.8193 11.8619 15.4707C11.9687 15.3461 12.2392 14.9331 12.2392 14.9331L12.2463 14.8014C12.2463 14.8014 12.2712 14.3422 12.4209 13.9221C12.5706 13.5021 12.8623 13.1923 12.8623 13.1923L14.3855 11.0172L14.1576 10.252L14.1581 10.2522Z" fill="#E6C367"/>
<path fill-rule="evenodd" clip-rule="evenodd" d="M12.7333 13.4459C12.6635 13.4952 12.5867 13.5335 12.5054 13.5597C12.4806 13.4707 12.4449 13.1645 12.6549 12.8655C12.9006 12.5058 13.438 12.0395 13.5875 11.6687C13.6837 11.4301 13.641 10.8322 14.4954 10.0667C15.3498 9.30119 15.6842 9.03789 15.6842 9.03789L17.0655 8.34375L18.7635 9.01302L17.9199 12.3195L17.2649 13.8683L14.6601 13.3771L12.7331 13.4459H12.7333Z" fill="#DCBA5A"/>
<path fill-rule="evenodd" clip-rule="evenodd" d="M13.7275 12.5486L14.0516 12.1429V11.8545C14.0516 11.8545 14.4111 11.7583 14.799 11.3631C15.1869 10.9679 15.7246 10.2097 16.1981 10.2559C16.6717 10.3094 16.7179 11.2847 16.7357 11.559C16.7536 11.8334 16.8141 12.4559 16.9101 12.7908C17.0169 13.1254 15.7567 14.3926 15.7567 14.3926L14.9009 15.0441L13.7275 12.5486Z" fill="#E9CE77"/>
<path fill-rule="evenodd" clip-rule="evenodd" d="M14.7305 15.9262C14.7305 15.9262 14.994 15.5132 14.8009 15.4242C14.9147 15.168 15.1247 14.8974 15.1247 14.8974C15.1247 14.8974 15.2742 14.5273 15.7583 14.0716C16.2424 13.6159 16.5416 13.3132 16.62 13.0072C16.6683 12.8077 16.6946 12.6036 16.6984 12.3984C16.7507 12.4412 16.8067 12.4793 16.8657 12.5123C16.944 12.5479 17.3141 12.8539 17.2608 13.4699C17.2076 14.0859 16.9792 14.3422 16.9792 14.3422C16.9792 14.3422 16.7587 14.5628 16.6021 14.6768C16.4346 14.7906 16.3743 14.9223 16.0929 14.9331C16.1218 14.9101 16.1543 14.892 16.1891 14.8796C16.1891 14.8796 15.8972 14.8441 15.7405 14.9863C15.5837 15.1286 15.2505 15.5667 15.0832 15.6986C14.9159 15.8053 14.7312 15.9264 14.7312 15.9264L14.7305 15.9262Z" fill="#CDAE50"/>
<path fill-rule="evenodd" clip-rule="evenodd" d="M26.5669 9.00223C26.1464 8.84895 25.7044 8.76248 25.257 8.74597C24.5094 8.7211 23.4165 8.76381 22.3451 8.77085C21.1917 8.77789 20.1451 8.37567 18.6927 8.30456C18.4543 8.16212 17.8479 7.53908 15.9551 8.85978C16.0689 8.85274 17.3293 8.56786 17.7669 9.11628C18.2083 9.66094 18.0837 10.5865 18.0234 10.807C17.9094 11.2984 17.5391 12.0139 17.3898 12.5159C17.2406 13.0178 17.2758 13.2816 17.169 13.6336C17.0622 13.9856 16.8273 14.1604 16.966 14.5662C17.1512 14.4524 17.2476 14.4524 17.5569 13.7582C17.8662 13.0641 17.8026 12.5692 18.3154 11.9818C18.8173 11.3909 19.653 10.5827 19.9707 10.3797C20.2884 10.1767 22.8113 8.86682 25.453 10.1164C26.0901 10.0488 26.5672 9.00199 26.5672 9.00199L26.5669 9.00223Z" fill="#D2A83E"/>
<path fill-rule="evenodd" clip-rule="evenodd" d="M17.0198 8.51893C17.0172 8.49218 17.0113 8.46585 17.0022 8.44055C16.9775 8.38849 16.945 8.34047 16.906 8.29811C16.906 8.29811 16.2794 8.18429 15.9626 8.21973C15.4071 8.28027 14.9052 8.96738 14.6703 9.31985C14.4354 9.67232 14.1434 10.2168 13.8266 10.4981C13.8301 10.4707 13.8238 10.443 13.8088 10.4197C13.8088 10.4197 13.8266 10.4446 13.7912 10.4803C13.7558 10.516 13.7555 10.5336 13.7734 10.5507L13.8269 10.604C13.8445 10.604 14.3359 10.3831 15.0051 9.75915C15.7171 9.10771 16.2618 8.77355 16.5467 8.65903C16.6986 8.59446 16.8574 8.54746 17.02 8.51893H17.0198Z" fill="#C29637"/>
<path fill-rule="evenodd" clip-rule="evenodd" d="M29.1735 5.8418C29.1735 5.8418 29.0594 5.984 28.917 6.14076C28.6002 6.4754 28.1872 6.85251 27.8347 7.24064C27.5003 7.61095 27.123 7.89935 26.6992 8.38347C26.2754 8.86759 25.784 9.40498 25.6596 9.56173C25.5458 9.71849 25.4568 9.97475 25.4568 10.1064C25.3963 10.0637 25.3252 10.0175 25.3252 10.0175C25.3551 10.0733 25.3909 10.1259 25.432 10.1742C25.5209 10.2988 25.6596 10.4558 25.7309 10.5516C25.8185 10.6734 25.8813 10.8113 25.9159 10.9573C25.9586 10.9643 26.2327 11.0178 26.5746 10.4553C26.9165 9.89285 27.3647 9.27708 27.3647 9.27708L28.0767 8.21967L28.5253 7.32278L29.0885 6.31887L29.1742 5.8418H29.1735Z" fill="#AC8132"/>
<path fill-rule="evenodd" clip-rule="evenodd" d="M29.9036 5.12305C29.9036 5.12305 29.4727 5.47505 29.3054 5.68625C29.1381 5.89745 28.7422 6.45173 28.7422 6.45173L28.8846 6.43389L29.6074 5.79325L29.889 5.2913L29.9033 5.12399L29.9036 5.12305Z" fill="#A88F33"/>
<path fill-rule="evenodd" clip-rule="evenodd" d="M29.7714 33.414C29.7714 33.414 29.7644 33.1221 29.9282 32.9477C30.0955 32.7731 30.5191 32.5169 30.9321 31.5557C31.3451 30.5945 31.3911 30.3774 31.3911 30.3774C31.3911 30.3774 30.6507 31.011 30.1943 31.1605C30.3011 30.9397 30.3616 30.7831 30.4151 30.6691C30.3546 30.6158 30.0983 30.5553 30.0734 30.5269C30.2156 30.3844 30.294 30.0355 30.5824 29.8041C30.9527 29.5225 31.629 29.0386 32.1547 28.6073C32.6803 28.176 33.7138 27.1728 33.8457 26.8809C33.9241 26.9947 33.9417 27.0658 33.9417 27.0658C33.9417 27.0658 33.4221 27.7423 33.1515 28.1729C32.9129 28.5432 32.9307 28.7533 32.9307 28.7533L33.4221 28.5421C33.4221 28.5421 33.5643 29.0689 32.9202 29.87C33.2018 29.7633 33.3153 29.8273 33.4754 29.7382C33.2119 29.9057 32.8488 30.1336 32.5072 30.7599C32.1725 31.3865 31.7168 32.1163 30.948 32.5718C30.2004 33.0524 29.7695 33.4119 29.7695 33.4119L29.7714 33.414Z" fill="#A67A2E"/>
<path fill-rule="evenodd" clip-rule="evenodd" d="M27.8415 9.37345C27.8415 9.37345 27.5496 9.98194 27.5069 10.4555C27.4998 10.5695 27.4712 10.6585 27.4712 10.7901C27.4641 11.2137 27.4961 11.6873 27.4008 11.9079C27.3651 11.8189 27.3473 11.7584 27.3116 11.7229C27.2583 11.8724 27.1621 12.3387 27.0838 12.5131C27.0483 12.3992 26.9699 12.0041 26.9772 11.5378C26.9845 11.0715 26.9948 10.9823 26.9948 10.8863C26.9772 11.0286 26.881 11.221 26.8453 11.3348C26.7921 11.2388 26.7315 11.1142 26.6602 11.011C26.6175 11.0814 26.5642 11.1853 26.518 11.2388C26.5107 11.1961 26.4931 11.0821 26.4823 10.922C26.4753 10.7369 26.4645 10.4984 26.4753 10.4485C26.4929 10.3525 26.6426 9.97514 26.9594 9.62971C27.3367 9.2167 27.7249 8.42305 27.8387 8.17736C27.9525 7.93166 28.4366 6.91016 28.4366 6.91016H28.8069L28.2693 8.13465C28.2693 8.13465 27.9454 8.80392 27.7781 9.04985C27.6108 9.29578 27.2583 10.0005 27.1016 10.2746C27.2154 10.1251 27.3116 10.0467 27.4257 9.90427C27.536 9.80453 27.842 9.37392 27.842 9.37392L27.8415 9.37345Z" fill="#8C6228"/>
<path fill-rule="evenodd" clip-rule="evenodd" d="M29.9104 5.07617C29.8499 5.26234 29.7543 5.4352 29.6288 5.5854C29.408 5.84893 28.9344 6.20116 28.7033 6.48229C28.4921 6.75639 28.0697 7.50403 28.2617 8.39037C28.3321 8.19818 28.4646 7.81731 28.8171 7.38647C29.1696 6.95562 29.5469 6.46094 29.7323 6.07656C29.9172 5.68842 29.9421 5.38241 29.9421 5.38241L30.0125 5.29347L29.9698 5.09049L29.9092 5.07617H29.9104Z" fill="#CBA94C"/>
<path fill-rule="evenodd" clip-rule="evenodd" d="M37.119 28.6896C37.119 28.6896 36.9766 28.3017 36.9339 27.9492C36.8911 27.5968 37.0043 27.5268 36.8733 27.1235C36.7949 26.8778 36.6527 26.9123 36.6171 26.8778C36.5814 26.8433 36.5565 26.472 36.5635 26.269C36.5706 26.066 36.5565 25.8028 36.5208 25.6887C36.4676 25.646 36.4319 25.6103 36.3535 25.347C36.2646 25.0835 36.2219 24.9519 36.1792 24.8737C36.1365 24.7956 36.0116 24.7242 36.0116 24.6459C36.0116 24.4891 36.1541 24.4074 36.1541 24.3643C36.147 24.2753 36.0402 24.3467 36.0116 24.3215C35.9762 24.2788 36.1008 24.0226 36.0546 23.9869C36.0367 23.9693 35.9121 24.1188 35.88 24.0761C35.8443 24.0331 35.8016 23.6096 35.7375 23.3284C35.6772 23.0543 35.6129 22.8551 35.6059 22.7732C35.5988 22.6948 35.1145 21.3136 34.9971 20.979C34.9026 20.6962 34.823 20.4086 34.7587 20.1175C34.7231 19.9502 34.6982 19.6083 34.6803 19.6439C34.6625 19.6796 34.6733 19.854 34.6447 19.8469C34.6198 19.8397 34.5309 19.2312 34.5025 19.135C34.4776 19.0387 34.3279 18.7126 34.2913 18.4765C34.2556 18.2378 34.1775 17.6148 34.1239 17.1912C34.0704 16.7676 34.0456 16.5933 34.0456 16.4872C34.0543 16.2278 34.04 15.9681 34.0029 15.7112C33.9325 15.2625 33.7917 14.7178 33.6682 14.4013C33.4298 13.8031 32.796 12.2724 32.6826 11.8915C32.6826 11.7953 32.8072 11.8488 32.8072 11.8488C32.8072 11.8488 33.1168 12.6249 33.3446 13.2228C33.5654 13.821 33.7755 14.3478 33.829 14.4013C33.8717 14.4545 34.2063 15.0419 34.3558 16.0031C34.5053 16.9643 34.5585 17.8506 34.6477 18.4415C34.6904 18.7231 34.7261 19.0218 34.815 19.3208C34.911 19.6449 35.0605 19.9795 35.2565 20.492C35.4238 20.9229 35.5484 21.2824 35.616 21.5921C35.6943 21.9873 35.6943 22.2863 35.7406 22.4822C35.7835 22.6495 35.8473 22.9839 35.9971 23.4678C36.1468 23.9517 36.3671 24.575 36.5166 24.9629C36.8088 25.7389 36.939 26.3868 36.9831 26.7323C37.0221 27.0883 37.154 28.32 37.1183 28.6901L37.119 28.6896Z" fill="#A88F33"/>
<path fill-rule="evenodd" clip-rule="evenodd" d="M29.9282 5.03325L29.9104 5.07596C29.9104 5.07596 29.9636 5.09379 29.9531 5.16513C29.9538 5.26273 29.9479 5.36027 29.9352 5.45706C29.9176 5.58166 29.882 5.67764 29.8749 5.75602C29.8749 5.92334 29.8998 6.11553 29.6637 6.59261C29.5933 6.72426 29.5499 6.83807 29.5142 6.91645C29.4253 7.10865 29.4075 7.13728 29.3291 7.22621C29.4537 7.15581 29.9024 6.87421 30.13 6.91645C29.9735 7.00539 29.7348 7.17998 29.5854 7.40785C29.621 7.41489 29.7705 7.44352 30.0077 7.40785C30.4029 7.3473 30.8443 7.20486 31.2322 7.23325C31.656 7.25813 31.4887 6.72426 31.4887 6.72426L30.9997 5.64925L30.0742 4.99805L29.9282 5.03348V5.03325Z" fill="#BE9C44"/>
<path fill-rule="evenodd" clip-rule="evenodd" d="M32.3417 13.0871C32.3417 13.0871 31.9287 12.6741 31.7613 11.2567C31.594 9.83275 31.6297 7.7367 31.6297 7.7367L31.2951 6.91794C31.2951 6.91794 31.2247 6.37328 31.0494 6.17053C30.8741 5.96777 30.5298 5.62586 30.3731 5.45854C30.2163 5.29123 30.0384 5.06336 29.9316 5.02769C29.9849 4.93875 30.2236 4.4368 31.1383 4.42976C32.053 4.42272 32.3351 4.93171 32.4306 5.11687C32.5261 5.30202 32.9574 6.10247 33.1175 7.62781C33.267 9.15128 33.2742 9.26533 33.2494 9.79216C33.2315 10.0841 33.1353 10.7604 32.9678 11.4829C32.8148 12.0954 32.6474 12.779 32.3412 13.0885L32.3417 13.0871Z" fill="#A17C34"/>
<path fill-rule="evenodd" clip-rule="evenodd" d="M31.0464 14.3008C31.1841 14.3107 31.3216 14.2797 31.4416 14.2116C31.5733 14.2046 32.0504 14.2651 32.4169 13.7988C32.4418 13.9054 32.5061 14.194 32.3386 14.4503C32.4277 14.3611 32.5594 14.3257 32.5772 14.3008C32.5843 14.4324 32.7089 14.8382 32.182 15.8242C32.3242 15.6677 32.4916 15.6747 32.6411 15.6569C32.6483 15.8421 32.7478 16.4649 32.4845 16.7997C32.3102 17.0276 32.0253 16.9563 32.0253 16.9563C32.0294 16.9065 32.0294 16.8565 32.0253 16.8068C32.0182 16.7106 31.9826 16.6146 32.0077 16.5505C31.87 16.4876 31.7446 16.4008 31.6374 16.294C31.3276 16.0021 30.9253 15.5039 30.897 15.1336C30.8613 14.7206 31.2316 14.6317 31.2316 14.6317C31.2006 14.6039 31.1741 14.5714 31.1532 14.5354C31.1354 14.4751 31.1175 14.3789 31.0464 14.3008Z" fill="#8C6228"/>
<path fill-rule="evenodd" clip-rule="evenodd" d="M28.3003 9.82127C28.3003 9.82127 28.2825 9.7964 28.1865 9.91021C28.2044 9.7964 28.2222 9.68939 28.2292 9.58614C28.2747 9.49054 28.3334 9.40189 28.4038 9.32284C28.3503 9.42938 28.3146 9.52559 28.3146 9.52559C28.3146 9.52559 28.4465 9.2799 28.6387 9.13041C28.7704 9.02364 28.9377 8.97389 29.0088 8.87416C29.0872 8.76738 29.0693 8.74955 29.0872 8.73171C29.0872 8.73171 29.2617 8.6179 29.5288 8.28303C29.5642 8.24032 29.6177 8.19409 29.6534 8.15138C29.7137 8.12651 29.8562 8.06245 30.0235 7.97679C30.1981 7.88081 30.3938 7.74917 30.5149 7.69519C30.7533 7.58842 31.0062 7.59921 31.1236 7.43166C31.2125 7.40679 31.3085 7.13974 31.2909 6.91211C31.4225 6.96538 32.0988 7.38543 32.3304 8.30392C32.4978 8.95535 32.1986 9.95926 32.074 10.4436C31.9494 10.928 31.9318 11.2872 31.7572 11.5078C31.5363 11.8 30.8246 12.2118 30.65 12.4157C30.5005 12.5831 30.0521 13.0066 30.0697 13.3126C30.0875 13.5405 30.3687 13.6646 30.4294 13.7078C30.4902 13.751 30.4897 13.804 30.6038 13.7782C30.7178 13.7524 30.7603 13.6998 30.8068 13.6998C30.86 13.7069 30.86 13.7177 30.8849 13.7177C30.903 13.7171 30.9209 13.7147 30.9384 13.7104C30.9384 13.7104 30.9206 14.0345 30.1624 14.1328C30.1089 14.1401 30.0556 14.1577 29.9878 14.1685C30.077 14.1258 30.1302 14.1258 30.2265 13.9941C30.1197 13.9763 29.8134 13.9584 29.7351 13.9336C29.7599 13.8909 29.8418 13.7768 29.9094 13.7235C29.97 13.6703 29.9024 13.6531 29.8491 13.6808C29.7574 13.7432 29.6694 13.8109 29.5856 13.8836C29.4966 13.962 29.4183 14.0687 29.2758 14.1652C29.2331 14.0227 29.2402 13.7522 29.4077 13.5565C29.3648 13.5635 29.2829 13.6881 29.2047 13.6632C29.1906 13.5334 29.199 13.4021 29.2296 13.2751C29.2723 13.1148 29.5037 12.8337 29.5037 12.8337L30.6214 10.8364L30.8598 9.32354L28.3003 9.8208V9.82127Z" fill="#92723A"/>
<path fill-rule="evenodd" clip-rule="evenodd" d="M28.2408 9.90748C28.2408 9.90748 28.1802 9.95019 28.3013 10.0321C28.2835 10.057 28.2408 10.1459 28.1873 10.2064C28.127 10.2768 28.0627 10.3205 28.0378 10.381C27.9845 10.5056 27.9418 10.5911 27.9418 10.6446C27.9418 10.6981 27.924 11.0397 27.7745 11.2603C27.721 11.3387 27.6604 11.4704 27.6177 11.5593C27.5288 11.7158 27.4504 11.8409 27.4326 11.9113C27.3971 12.0359 27.3723 12.3776 27.3723 12.3776C27.3723 12.3776 27.4506 12.2814 27.479 12.2459C27.4361 12.3349 27.3899 12.4308 27.3223 12.5022C27.365 12.4665 27.4896 12.3776 27.6996 12.1924C27.9916 11.947 28.4473 11.534 29.0028 11.2068C28.8352 11.2674 28.693 11.2674 28.5792 11.2852C28.6681 11.1963 29.4691 10.2564 29.8891 10.1675C29.9146 10.1351 29.9273 10.0945 29.9248 10.0534L29.565 10.018L28.8352 10.1745L28.7287 9.61133L28.2408 9.90677V9.90748Z" fill="#B18E3E"/>
<path fill-rule="evenodd" clip-rule="evenodd" d="M29.4014 13.1116C29.4014 13.1116 29.3052 13.2076 29.2163 13.4462C29.1478 13.3747 29.0891 13.2945 29.0417 13.2076C28.91 12.987 28.7073 12.7056 28.2337 12.8659C28.2267 12.7164 28.2159 12.638 28.2337 12.5312C28.3121 12.5136 28.5505 12.3214 28.7889 12.0401C28.9565 11.8479 29.113 11.6271 29.2198 11.3459C29.2902 11.2924 29.412 11.2035 29.5718 11.1002C29.7996 10.9437 30.0737 10.7299 30.1164 10.4915C30.0097 10.5342 29.7818 10.641 29.4399 10.6234C29.5718 10.5629 29.7745 10.4988 29.7497 10.2353C29.8032 10.1996 29.8459 10.1747 29.8459 10.1747C29.8057 10.1613 29.7635 10.1553 29.7213 10.1569C29.714 10.132 29.7034 10.0966 29.6429 10.1142C29.5823 10.1318 29.5725 10.132 29.5645 10.1569C29.5396 10.1642 29.4577 10.1569 29.3972 10.1998C29.3366 10.2428 29.1693 10.3847 29.1053 10.4096C29.1301 10.3669 29.1656 10.3031 29.1656 10.3031C29.1656 10.3031 28.9912 10.3207 28.8666 10.3735C28.6387 10.4519 28.3754 10.5943 28.1084 10.733C28.1333 10.6903 28.1441 10.6626 28.1617 10.6546C28.1793 10.6466 28.2222 10.637 28.2222 10.6297C28.2222 10.6225 28.2046 10.5593 28.2152 10.5338C28.295 10.3646 28.3892 10.2027 28.4968 10.0496C28.6214 9.88209 28.6463 9.64367 28.6463 9.64367L29.1909 9.36958L30.7216 9.01758L31.715 9.07812L31.5904 9.76523L31.0037 10.9648L30.5018 12.0577L29.9285 12.7272L29.4016 13.1116H29.4014Z" fill="#543E26"/>
<path fill-rule="evenodd" clip-rule="evenodd" d="M31.8822 10.1373C31.8822 10.1373 31.284 10.8777 31.1167 10.9918C31.2235 10.7639 31.8822 9.40752 32.1206 9.03017C32.0673 8.98746 31.996 8.98746 32.1633 8.32617C32.0211 8.66057 31.9711 8.83516 31.8538 8.9241C31.7364 9.01304 31.7219 8.98465 31.6426 8.98465C31.6575 8.95755 31.6637 8.92646 31.6602 8.89571C31.6602 8.89571 31.1582 8.83516 30.8154 8.83516C30.4725 8.83516 29.7939 9.02032 29.4163 9.1698C29.1174 9.29441 28.95 9.29441 28.8433 9.37255C28.7365 9.46149 28.676 9.5577 28.6225 9.58258C28.5797 9.60745 28.377 9.67152 28.3305 9.7391C28.2878 9.8095 28.2167 9.88858 28.2167 9.90642C28.2167 9.92425 28.1989 9.94936 28.2524 9.93129C28.27 9.92425 28.4019 9.85291 28.5514 9.76397C28.7541 9.65016 28.9998 9.51851 29.1779 9.44013C29.6869 9.23715 29.8472 9.27282 30.0748 9.23011C30.3132 9.1874 30.6551 9.08766 30.8827 9.08766C31.1106 9.08062 31.5414 9.08767 31.6412 9.1055C31.5984 9.14117 31.5628 9.18388 31.5806 9.33336C31.5806 9.37607 31.5449 9.4223 31.5102 9.52555C31.4037 9.81748 31.2007 10.3016 31.0878 10.5473C30.9313 10.8817 30.7534 11.1631 30.6654 11.3374C30.5774 11.5118 30.3838 11.971 30.1921 12.2167C30.0004 12.4624 29.9002 12.6119 29.8401 12.6654C29.78 12.7189 29.3487 13.0355 29.3809 13.1495C29.4593 13.1246 29.9542 12.9383 30.3134 12.5337C30.6727 12.1292 30.7443 11.8823 31.0254 11.6615C31.3065 11.4407 31.5273 11.0706 31.659 10.7646C31.7693 10.4797 31.7444 10.3908 31.8831 10.138L31.8822 10.1373Z" fill="#806031"/>
<path fill-rule="evenodd" clip-rule="evenodd" d="M18.9925 15.6639C18.9925 15.6639 18.9142 15.9877 18.736 16.148C18.5617 16.3048 18.2519 16.44 18.2165 16.7035C18.1738 16.9668 18.5262 17.0987 18.5262 17.0987C18.5262 17.0987 18.3338 17.4155 18.3338 17.6539C18.3338 17.8996 18.3268 17.9458 18.3517 18.1807C18.3234 18.1989 18.2994 18.2229 18.2812 18.2511C18.2812 18.2511 18.2989 18.479 18.4734 18.6212C18.648 18.7634 18.7973 18.849 18.8862 18.8134C18.8998 18.8424 18.9117 18.8722 18.9219 18.9025C18.9219 18.9025 19.0538 18.5679 19.1427 18.276C19.2317 17.977 19.31 18.0195 19.3455 17.6173C19.3809 17.2151 19.7679 16.5244 19.7679 16.5244L20.0319 15.9342L19.6013 15.5996L18.9925 15.6637V15.6639Z" fill="#B6903C"/>
<path fill-rule="evenodd" clip-rule="evenodd" d="M19.7926 16.2441C19.7038 16.3353 19.6219 16.4329 19.5474 16.5361C19.4336 16.6928 19.3447 16.835 19.1773 16.8958C19.01 16.9566 18.9032 16.9561 18.9138 17.1237C18.9244 17.2912 19.0811 17.3621 19.1701 17.4475C19.2663 17.5364 19.3447 17.6859 19.3019 17.8535C19.3552 17.8286 19.4514 17.8 19.5404 17.6078C19.6293 17.4156 20.2514 16.2444 20.2514 16.2444H19.7926V16.2441Z" fill="#685026"/>
<path fill-rule="evenodd" clip-rule="evenodd" d="M22.2468 13.5418C22.2468 13.5418 22.3 13.3996 22.2468 13.2963C22.1933 13.1895 21.8694 13.1539 21.7091 13.0328C21.5418 12.9082 21.3388 12.8216 21.1715 12.8763C21.1964 12.8157 21.2961 12.6838 21.2142 12.6554C21.1359 12.6306 20.8442 12.7622 20.7658 12.8228C20.6874 12.8833 20.5093 12.9544 20.4739 12.9973C20.4384 13.0403 20.3777 13.122 20.342 13.0863C20.3063 13.0614 20.2887 12.9973 20.2282 13.0328C20.1676 13.0682 19.8762 13.3069 19.8224 13.4458C19.7687 13.5847 19.6478 13.8945 19.2848 14.2467C18.9218 14.5989 18.765 14.827 18.8718 14.9587C18.9786 15.0903 19.0286 14.9943 19.0464 15.1082C19.0601 15.2199 19.0541 15.3332 19.0286 15.4428C18.9859 15.6279 18.9147 15.8023 19.0107 15.838C19.2564 15.9163 19.4951 15.7676 19.5483 15.8131C19.6551 15.9091 19.4878 16.2545 19.7405 16.3221C19.997 16.3925 20.2498 16.2615 20.2498 16.2615L21.1823 15.7596L22.0794 15.2863L22.5385 14.3784L22.2923 13.6201L22.2454 13.5418H22.2468Z" fill="#D4B968"/>
<path fill-rule="evenodd" clip-rule="evenodd" d="M21.3668 15.7099C21.3668 15.7099 21.2101 15.4715 21.4025 15.2612C21.5949 15.051 21.8688 14.9623 21.9756 14.8306C21.9552 14.8056 21.928 14.787 21.8972 14.7774C21.9681 14.6505 22.0762 14.5485 22.2069 14.4852C22.1537 14.4319 22.0823 14.3892 22.0042 14.3892C21.8296 14.3892 21.7226 14.496 21.5625 14.496C21.406 14.496 21.3882 14.4176 21.3882 14.4176C21.3882 14.4176 21.6517 14.3927 21.6266 14.2752C21.6017 14.1506 21.5562 14.1506 21.5562 14.1506C21.5562 14.1506 22.0652 13.9394 22.1541 13.8267C22.2431 13.7141 22.2325 13.581 22.2504 13.5278C22.3107 13.5278 22.6631 13.3426 22.8056 13.421C22.948 13.4994 22.8483 13.7129 22.8483 13.7129C22.8483 13.7129 23.2794 13.3888 23.499 13.0711C23.6912 13.0889 23.7806 12.9395 23.9214 12.9395C24.096 12.9395 24.3701 13.1779 24.4234 13.6869C24.459 13.9788 24.5123 14.1461 24.459 14.6624C24.4342 14.9543 24.4412 15.5776 24.5294 15.8869C24.5898 16.1326 24.7322 16.1077 24.7322 16.1077C24.7103 16.1825 24.667 16.2494 24.6076 16.2999C24.5114 16.3888 24.5008 16.6239 24.5114 16.7129C24.5256 16.7779 24.5434 16.8421 24.5649 16.9051C24.5649 16.9051 24.4511 17.0367 24.4224 17.1259C24.3976 17.2148 24.2802 17.2754 24.1946 17.2754C24.1089 17.2754 24.1519 17.2681 24.0381 17.2754C23.9242 17.2826 23.8886 17.3002 23.8172 17.2754C23.7459 17.2505 23.6926 17.2219 23.7213 16.9938C23.7461 16.7659 22.842 16.2356 22.842 16.2356L21.3635 15.7087L21.3668 15.7099Z" fill="#CCA849"/>
<path fill-rule="evenodd" clip-rule="evenodd" d="M19.6682 17.9598C19.6682 17.9598 19.992 18.3906 21.3235 18.3906C21.9571 18.3906 22.178 18.3301 22.3092 18.2944C22.4516 18.2587 22.9855 18.049 23.5231 17.4151C24.0072 16.8421 23.9005 16.6072 23.9005 16.6072L23.6188 16.5645L22.7036 16.6891L19.9955 17.8424L19.667 17.9598H19.6682Z" fill="#585136"/>
<path fill-rule="evenodd" clip-rule="evenodd" d="M20.6612 18.0669C20.6612 18.0669 19.5078 18.3233 19.5078 17.5935C19.5078 16.8816 20.2198 16.1339 20.3979 16.0023C20.5831 15.8704 21.0245 15.7207 21.0245 15.7207H22.0889L22.2917 16.2583L22.2027 17.4187L20.6612 18.0666V18.0669Z" fill="#252211"/>
<path fill-rule="evenodd" clip-rule="evenodd" d="M21.7258 15.9377C21.7258 15.9377 21.5052 15.7347 21.0032 16.0081C20.5013 16.2815 20.0953 16.8529 20.0704 17.3718C20.0456 17.8308 20.4478 18.1727 21.0743 18.1905C21.5406 18.2081 21.822 18.1549 21.9644 18.1201C21.9288 18.0774 21.7436 17.846 21.7436 17.846L21.726 15.938L21.7258 15.9377Z" fill="#C3B378"/>
<path fill-rule="evenodd" clip-rule="evenodd" d="M21.5091 16.0517C21.5091 16.0517 21.4558 16.009 21.2979 16.0944C21.1662 16.1648 20.974 16.3509 20.8246 16.4825C20.7284 16.5609 20.6678 16.5963 20.6134 16.6569C20.3925 16.9204 20.2074 17.3513 20.3144 17.5648C20.4214 17.7783 20.7736 18.024 21.6708 17.8567L21.5065 16.0519L21.5091 16.0517Z" fill="#E6D89C"/>
<path fill-rule="evenodd" clip-rule="evenodd" d="M21.2172 16.4935C21.2172 16.4935 21.0748 16.7143 21.0748 17.0667C21.0748 17.4263 21.2778 17.9993 22.0254 18.042C22.5985 18.0777 22.9828 17.2162 23.3994 16.8816C23.7161 16.6253 23.9083 16.6181 23.9083 16.6181C23.9083 16.6181 23.5845 16.2661 22.7195 15.8101C21.8651 15.3508 20.9075 15.2903 20.3877 15.9952C20.6334 15.9774 21.4273 15.7744 21.4273 15.7744L21.8154 15.899L21.2172 16.4937V16.4935Z" fill="#252211"/>
<path fill-rule="evenodd" clip-rule="evenodd" d="M22.3347 16.9599C22.3098 16.9066 22.292 16.8353 22.3952 16.8177C22.4984 16.8001 22.5447 16.8104 22.5803 16.8881C22.616 16.9658 22.6507 17.0305 22.5979 17.0627C22.5447 17.0911 22.4058 17.0627 22.3344 16.9594L22.3347 16.9599ZM22.1674 16.4579C22.1674 16.4579 22.1317 16.4828 22.1495 16.4331C22.1566 16.3728 22.203 16.2657 22.3168 16.2909C22.4306 16.316 22.406 16.4403 22.3872 16.476C22.3684 16.5117 22.2734 16.572 22.2021 16.5464C22.193 16.5441 22.1847 16.5397 22.1777 16.5335C22.1706 16.5274 22.1652 16.5197 22.1617 16.511C22.1582 16.5023 22.1568 16.493 22.1577 16.4837C22.1585 16.4744 22.1615 16.4654 22.1664 16.4575L22.1674 16.4579Z" fill="#6F674D"/>
<path fill-rule="evenodd" clip-rule="evenodd" d="M12.5312 16.685C12.5312 16.685 12.8129 16.8962 13.14 16.888C13.4638 16.8807 13.8803 16.5463 14.0725 16.3326C14.1864 16.2079 14.2837 16.0763 14.3893 15.973C14.4785 15.8841 14.5388 15.8414 14.5815 15.7809C14.6421 15.7105 14.7061 15.5781 14.7383 15.5352C14.6599 15.5957 14.5461 15.7027 14.4285 15.7738C14.3147 15.8442 14.069 15.9766 13.9693 16.0122C13.8733 16.0479 12.8764 16.5754 12.8764 16.5754L12.5312 16.685Z" fill="#AC924C"/>
<path fill-rule="evenodd" clip-rule="evenodd" d="M12.9619 14.0551C12.9619 14.0551 13.1184 13.9483 13.4212 13.8805C13.7131 13.8101 14.3005 13.7559 14.3005 13.7559L14.7846 13.9671L14.9768 14.6969L14.6248 15.4553L14.1763 15.7369L13.6671 14.9182L12.9631 14.0565L12.9619 14.0551Z" fill="#9F8E57"/>
<path fill-rule="evenodd" clip-rule="evenodd" d="M12.3277 14.7049L12.1602 14.83C12.1602 14.83 12.2031 14.7516 12.2385 14.5132C12.274 14.2748 12.4594 13.6944 12.7299 13.3598C13.0005 13.0252 12.9935 13.043 12.9935 13.043C12.9686 13.0384 12.943 13.0393 12.9184 13.0454C12.8939 13.0515 12.8709 13.0627 12.851 13.0784C12.8867 12.9996 13.1145 12.718 13.3424 12.5772C13.5703 12.4364 13.6592 12.392 13.8976 12.5068C14.1361 12.6215 14.1966 12.6811 14.3712 12.6741C14.5458 12.6671 14.695 12.4819 14.695 12.4819C14.695 12.4819 14.7307 12.5957 14.5991 12.8593C14.4674 13.1228 13.9476 13.6602 13.9476 13.6602L12.8653 14.4006L12.3277 14.7056V14.7049Z" fill="#EAC970"/>
<path fill-rule="evenodd" clip-rule="evenodd" d="M13.1289 13.9661C13.1289 13.9661 13.9122 14.0729 14.1506 13.8523C14.1576 13.8771 14.1863 13.8771 14.1863 13.895C14.1844 13.9084 14.1781 13.9209 14.1684 13.9304C14.1944 13.9263 14.2206 13.9239 14.2468 13.9234C14.2782 13.9327 14.3104 13.9387 14.343 13.9412C14.3693 13.9406 14.3955 13.9382 14.4214 13.9339C14.4189 13.9516 14.4129 13.9686 14.4037 13.984C14.3945 13.9993 14.3824 14.0126 14.3679 14.0231C14.4036 14.0231 14.4383 14.0301 14.4383 14.0585C14.4383 14.0869 14.4453 14.1726 14.4026 14.1904C14.3673 14.2002 14.3296 14.1976 14.2959 14.1832C14.2987 14.2506 14.317 14.3164 14.3494 14.3756C14.4198 14.5072 14.57 14.6572 14.7718 14.614C14.7718 14.614 14.8783 14.8703 14.4299 15.4398C14.3696 15.5182 14.3053 15.6249 14.2271 15.7139C14.1962 15.7812 14.1726 15.8516 14.1567 15.9239C14.1567 15.9239 14.9152 15.632 15.1322 14.9662C15.353 14.297 15.3957 13.6385 15.353 13.0227C15.3458 12.8481 15.3174 12.7238 15.2747 12.6346C15.1679 12.4138 14.8687 12.4494 14.7478 12.574C14.5732 12.7486 14.2813 13.1828 13.8756 13.4817C13.4626 13.7807 13.445 13.8337 13.1279 13.9661H13.1289Z" fill="#D7BC6B"/>
<path fill-rule="evenodd" clip-rule="evenodd" d="M12.1894 14.9273C12.1894 14.9273 12.0399 15.0163 11.9615 15.3497C11.8832 15.6914 12.0319 16.1079 12.1181 16.2396C12.2042 16.3712 12.3997 16.731 12.8052 16.7488C12.9056 16.7483 13.0048 16.7277 13.0971 16.6883C13.2387 16.6234 13.3715 16.5408 13.4923 16.4426C13.6669 16.3109 13.8091 16.1971 13.7913 16.1863C13.7486 16.1685 12.7163 15.3141 12.7163 15.3141L12.3281 14.8809L12.1892 14.9278L12.1894 14.9273Z" fill="#585136"/>
<path fill-rule="evenodd" clip-rule="evenodd" d="M13.1647 16.3438C13.1647 16.3438 13.3747 16.3262 13.4994 16.2478C13.624 16.1694 12.7695 15.3223 12.7695 15.3223L12.8301 16.2375L13.1647 16.3438Z" fill="#453A25"/>
<path fill-rule="evenodd" clip-rule="evenodd" d="M12.2568 14.8621C12.2568 14.8621 12.15 15.0651 12.15 15.1186C12.1322 15.2929 12.1857 15.8411 12.2284 16.0155C12.2711 16.2006 12.5025 16.4817 12.8017 16.4817C12.9866 16.4817 13.2431 16.3679 13.2431 16.3395C13.2431 16.3039 12.9796 16.2691 12.9084 16.1366C12.8657 16.0662 12.8479 15.8911 12.838 15.7142C12.831 15.6003 12.831 15.4757 12.8737 15.4326C12.9699 15.3258 12.9875 15.0195 12.9875 15.0195L13.3292 14.3848H12.8798L12.3422 14.7194L12.2568 14.8621Z" fill="#84754B"/>
<path fill-rule="evenodd" clip-rule="evenodd" d="M12.125 15.0585C12.125 15.0585 12.477 14.5922 12.7943 14.4852C13.1115 14.3782 13.2535 14.4425 13.2535 14.4425L13.0683 14.9161L12.8048 15.208L12.8227 15.3575C12.8227 15.3575 12.7797 15.7527 13.0432 16.0267C13.3068 16.3008 13.5025 16.2903 13.6165 16.2903C13.7306 16.2903 14.0579 16.1941 14.2252 15.7989C14.3747 15.4288 14.4993 14.9541 14.2004 14.4782C13.9082 14.0046 13.3922 13.9863 13.2925 13.9863C13.1927 13.9863 12.4096 14.0255 12.125 15.0578V15.0585Z" fill="#252211"/>
<path fill-rule="evenodd" clip-rule="evenodd" d="M21.1634 16.6427C21.0318 16.5821 21.1564 16.2121 21.2881 16.098C21.4197 15.984 21.587 15.8526 21.8792 15.8345C21.9857 15.8275 22.089 15.895 22.0714 15.9664C22.0465 16.098 21.8614 16.2832 21.694 16.4148C21.4626 16.5964 21.3129 16.7103 21.1634 16.6427Z" fill="#F7F7E7"/>
<path fill-rule="evenodd" clip-rule="evenodd" d="M14.0433 14.6235C14.1395 14.6165 14.2641 14.6939 14.289 14.7981C14.3139 14.9119 14.2285 15.1398 14.0433 15.1398C13.8938 15.1398 13.8154 14.9546 13.8154 14.9013C13.8171 14.8575 13.8294 14.8148 13.8511 14.7767C13.8581 14.7659 13.876 14.6413 14.0433 14.6235Z" fill="#F8F6DE"/>
<path fill-rule="evenodd" clip-rule="evenodd" d="M12.6557 14.7051C12.6557 14.7051 12.41 14.8189 12.2962 15.0571C12.2149 15.233 12.1903 15.4298 12.2258 15.6203C12.2436 15.7092 12.3326 15.9298 12.3931 16.0082C12.4537 16.0865 12.5356 16.14 12.5961 16.1328C12.6566 16.1255 12.781 15.9654 12.781 15.8695C12.781 15.7735 12.7883 15.3675 12.9056 15.1467C13.0089 14.9261 12.6564 14.7053 12.6564 14.7053L12.6557 14.7051Z" fill="#D4C38B"/>
<path fill-rule="evenodd" clip-rule="evenodd" d="M12.6908 14.688C12.648 14.7129 12.5769 14.7486 12.5945 14.7948C12.6124 14.8375 12.7619 14.8652 12.8154 14.9694C12.8759 15.0762 12.8759 15.19 12.8581 15.2435C12.9046 15.2214 12.9468 15.1912 12.9827 15.1543C13.0611 15.0654 13.157 14.9445 13.2389 14.9445C13.2924 14.9445 13.3457 14.9694 13.3957 14.9694C13.4741 14.9694 13.5522 14.9445 13.563 14.8626C13.5806 14.7559 13.4135 14.6597 13.3173 14.6775C13.3352 14.6071 13.36 14.5031 13.2816 14.4318C13.2033 14.3605 12.9578 14.4853 12.9043 14.521C12.8508 14.5566 12.6908 14.6883 12.6908 14.6883V14.688Z" fill="#E2D59D"/>
<path fill-rule="evenodd" clip-rule="evenodd" d="M18.3477 22.1673L18.8745 22.0117L19.024 22.1185C19.024 22.1185 19.1305 22.3464 19.2981 22.3747C19.2446 22.4886 19.1056 22.5859 19.1129 22.6667C19.1202 22.7474 19.1913 22.8091 19.1913 22.8091C19.1913 22.8091 18.7177 23.5922 19.6505 24.3814C19.4297 24.4703 19.1486 24.5926 18.9991 24.663C19.1056 24.6879 19.3335 24.7334 19.4297 24.8197C19.5259 24.9061 19.5259 24.9336 19.6149 24.9871C19.7038 25.0406 19.7571 25.1117 19.7395 25.1436C19.6789 25.1079 19.4759 25.0014 19.4405 25.1009C19.4051 25.2004 18.5612 25.1614 18.5612 25.1614L17.1372 25.4355C17.1372 25.4355 17.1905 25.2931 17.041 25.1614C16.8667 25.0049 16.6531 25.1685 16.4253 24.9941C16.1263 24.7662 16.1155 24.5027 16.0195 24.4032C16.1155 24.3427 16.3115 24.2537 16.7777 24.192C16.7599 24.1563 16.6994 24.0496 16.735 23.9536C16.7777 23.829 16.9556 23.7506 16.9023 23.6016C16.9807 23.5838 17.0162 23.5838 17.2121 23.3381C17.3973 23.0924 17.5111 23.0391 17.6535 23.0213C17.796 23.0034 17.8814 23.0213 18.1449 22.7756C18.3298 22.6012 18.2695 22.4517 18.2695 22.4517C18.2695 22.4517 18.3904 22.4125 18.3479 22.1668L18.3477 22.1673Z" fill="#CBAC5A"/>
<path fill-rule="evenodd" clip-rule="evenodd" d="M16.7918 22.2474C16.7989 22.2117 16.8275 22.1939 17.0197 22.2117C17.2119 22.2295 18.4294 22.0979 18.7605 22.0801C19.0951 22.0552 20.2734 22.0728 20.8467 22.1939C21.42 22.3149 22.0001 22.4574 22.2812 22.5285C22.5628 22.6069 22.6515 22.635 22.6407 22.6707C22.6337 22.7063 22.5703 22.7411 22.5339 22.7312C22.4985 22.7242 21.5657 22.4393 21.2775 22.3792C20.9893 22.3192 19.9922 22.1584 19.4471 22.168C18.9381 22.1753 18.7351 22.161 18.3045 22.2108C17.8737 22.2643 17.1617 22.3354 16.9481 22.307C16.7369 22.2821 16.7806 22.2821 16.7914 22.2464L16.7918 22.2474Z" fill="#D6BC6F"/>
<path fill-rule="evenodd" clip-rule="evenodd" d="M19.658 25.0369C19.658 25.0369 20.3878 25.432 20.6514 25.9162C20.8435 26.2757 20.5375 26.4538 20.5375 26.4538C20.5375 26.4538 20.9506 26.4538 20.8971 26.6816C20.8722 26.8238 20.1851 27.2082 19.7258 27.4112C19.2596 27.6142 19.2774 27.6036 19.0495 27.6391C18.8287 27.6747 18.2235 27.5687 18.0989 27.7458C17.9743 27.923 18.0285 28.1056 18.0632 28.134C18.0989 28.1589 18.3873 28.1945 18.3873 28.1945C18.3873 28.1945 18.3268 28.3618 17.7288 28.3797C17.1309 28.3975 16.9812 28.44 16.9455 28.5043C16.9098 28.5646 17.0593 28.5292 17.3336 28.5747C17.6077 28.6174 17.9921 28.6451 17.9921 28.6451C17.9921 28.6451 17.8675 28.7518 17.5437 28.8373C17.1734 28.9332 16.593 29.0224 16.4187 29.1292C16.5076 29.1897 16.6395 29.2787 16.7003 29.2857C16.5508 29.3214 16.3405 29.3998 16.3051 29.4282C16.3584 29.4638 16.4297 29.5065 16.4297 29.5065C16.4297 29.5065 16.1305 29.866 15.9562 29.9552C15.7818 30.0444 14.7779 30.5104 14.4325 30.4215C13.571 30.1936 13.4642 29.2503 13.2542 29.1792C12.9374 29.0724 12.7879 29.2857 12.5066 29.1362C12.6312 29.0473 12.699 28.994 12.8306 28.9335C12.6882 28.8631 11.9513 28.3959 11.9513 28.3959C11.8743 28.2279 11.7888 28.064 11.6951 27.9047C11.5527 27.659 11.3431 27.3314 11.1859 27.043C10.8442 26.4094 10.8264 26.1175 10.5166 25.758C10.5701 25.6876 10.755 25.6975 10.755 25.6975L13.3504 26.5519L17.9525 26.6852L19.1493 24.9766L19.6582 25.0371L19.658 25.0369Z" fill="#DFC677"/>
<path fill-rule="evenodd" clip-rule="evenodd" d="M12.8408 27.6432C12.8686 27.6742 12.901 27.7006 12.9368 27.7216C13.026 27.7822 13.1576 27.8535 13.2466 27.96C13.2822 27.9068 13.3712 27.8106 13.5282 27.96C13.6852 28.1095 13.8802 28.003 14.0015 28.0384C14.1261 28.0814 14.1331 28.099 14.1331 28.099C14.1331 28.099 14.2035 28.0384 14.361 27.9744C14.4572 27.9387 14.571 27.9138 14.6956 27.8784C14.8094 27.8535 14.934 27.8178 15.0197 27.8178C15.0981 27.8711 15.3792 28.1698 16.5077 27.7289C17.5722 27.3159 17.8176 27.2697 17.9957 27.3335C18.0136 27.2908 18.0314 27.2089 18.3055 27.2197C18.3055 27.1059 18.0776 26.7177 18.0776 26.7177L16.821 26.2871H16.1337L14.0726 26.6645L12.9305 27.3161L12.8415 27.6447L12.8408 27.6432Z" fill="#C4A859"/>
<path fill-rule="evenodd" clip-rule="evenodd" d="M12.1533 26.9196C12.1533 26.9196 12.1782 27.1118 12.4631 27.3147C12.7447 27.5175 12.8331 27.6386 12.8331 27.6386C12.8331 27.6386 12.8867 27.5682 12.9294 27.4964C12.9721 27.418 13.0077 27.3291 13.0788 27.3042C13.2213 27.2436 13.5451 27.3575 13.6165 27.3396C13.677 27.322 13.6592 27.1974 13.7232 27.1974C13.8727 27.1901 13.9687 27.2934 14.0222 27.2934C14.0757 27.2934 14.2071 27.2864 14.225 27.258C14.2428 27.2296 14.2498 26.9339 14.4528 26.7914C14.6736 26.6349 14.9442 26.7025 15.016 26.7382C15.016 26.7914 15.0231 26.9233 15.1655 26.9304C15.3079 26.9374 15.322 26.9125 15.4471 26.9552C15.5722 26.9979 15.7212 26.9482 15.7888 27.158C15.8493 27.1404 15.9918 27.1226 15.9561 26.9196C16.0265 26.8663 16.088 26.8306 16.2377 26.6206C16.2734 26.5673 16.3337 26.5068 16.3801 26.4284C16.5047 26.4284 16.6542 26.4035 16.8535 26.5779C16.7929 26.6206 16.7572 26.6483 16.7396 26.6917C16.7918 26.7433 16.8393 26.7993 16.8819 26.859C16.9354 26.9294 16.971 27.0158 17.0386 27.0336C17.1881 27.0763 17.4338 27.0158 17.7079 27.0336C17.9714 27.0515 18.192 27.1474 18.2882 27.208C18.3239 27.1904 18.3239 27.1831 18.4128 27.2009C18.5018 27.2188 18.5693 27.2258 18.4734 27.112C18.5266 27.1369 18.5872 27.1904 18.6407 27.1369C18.6942 27.0834 18.7367 27.0052 18.8861 26.9874C19.0356 26.9696 19.0891 26.9944 19.1497 26.8379C19.2281 26.6457 18.9575 26.6457 18.9575 26.6457C18.9575 26.6457 19.0821 26.5317 19.221 26.3822C19.3883 26.2257 19.5805 26.0227 19.6267 25.7735C19.7051 25.3142 19.2567 25.2539 19.2567 25.2539L17.0816 25.9232L14.4223 25.7913L12.1547 26.9198L12.1533 26.9196Z" fill="#927D49"/>
<path fill-rule="evenodd" clip-rule="evenodd" d="M10.1993 20.636C10.1993 20.636 10.1289 20.7249 10.0855 20.9349C10.0421 21.145 10.0606 21.1201 10.0249 21.2696C9.98928 21.419 9.55116 22.9071 9.71542 23.409C9.87969 23.911 10.1641 24.0962 10.342 24.5019C10.3777 24.5908 10.4124 24.6443 10.4309 24.7227C10.4915 24.986 10.4382 25.189 10.5093 25.4525C10.5342 25.5415 10.5985 25.6447 10.6945 25.7515C10.9057 25.9721 11.2499 26.1821 11.3985 26.3316C11.6082 26.5524 11.9074 27.0011 12.2883 27.0436C12.4913 27.0685 12.7797 26.9831 13.0181 26.8409C13.2293 26.709 13.3598 26.524 13.5813 26.4184C13.7378 26.3401 13.9052 26.3117 14.0546 26.276C14.3644 26.2155 14.6458 26.2056 14.8131 26.2403C15.0693 26.2938 15.6745 26.479 16.0099 26.479C16.2719 26.4748 16.5325 26.4389 16.7859 26.3722C17.2949 26.2227 17.9107 25.9662 18.3167 25.8524C18.5551 25.782 18.7473 25.7635 18.9432 25.7208C19.2779 25.6424 19.559 25.5356 19.7193 25.3326C19.6125 25.208 19.4808 25.0158 18.7686 25.0229C17.9607 25.0407 17.0279 25.4892 16.5686 25.5605C16.1094 25.6318 15.9102 25.6921 15.3974 25.507C14.8948 25.32 14.8781 25.1963 14.8781 25.1963C14.8781 25.1963 14.3503 24.8272 14.1295 23.8861C13.9087 22.9451 14.1295 22.2594 14.7028 21.6077C14.8523 21.4404 14.8166 21.2909 14.8166 21.2909C14.8166 21.2909 15.194 20.7819 15.0907 20.3053C14.9769 19.8317 14.2471 19.928 14.2471 19.928L10.1995 20.636H10.1993Z" fill="#6E6342"/>
<path fill-rule="evenodd" clip-rule="evenodd" d="M10.8078 22.2207C10.7765 22.2797 10.7617 22.3461 10.7651 22.4129C10.7722 22.5089 10.8008 22.6335 11.089 22.9148C11.3347 23.1603 11.2812 23.4344 11.2812 23.4344C11.2812 23.4344 11.4048 23.4593 11.7404 23.3023C12.0039 23.1777 12.0924 23.3985 12.0924 23.3985C12.1691 23.3582 12.2523 23.3317 12.3381 23.3201C12.4159 23.3129 12.4911 23.2889 12.5587 23.2497C12.5587 23.2497 12.8684 23.5665 13.139 23.716C13.3847 23.8479 13.5272 23.9368 13.6482 23.8479C13.7621 23.7695 13.7621 23.6092 13.7548 23.5381C13.7265 23.4725 13.6908 23.4103 13.6482 23.3529C13.5699 23.2391 13.4453 23.1073 13.437 23.001C13.4192 22.7555 13.6222 22.4633 13.5793 22.3922C13.5363 22.3211 13.3765 22.3033 12.9813 22.4457C12.5721 22.5809 10.8062 22.2214 10.8062 22.2214L10.8078 22.2207Z" fill="#39331F"/>
<path fill-rule="evenodd" clip-rule="evenodd" d="M11.7405 23.8126C11.7405 23.8126 11.5378 23.6204 11.6089 22.6876C11.6949 22.6864 11.7809 22.6947 11.8651 22.7125C11.8651 22.7125 11.9756 23.4353 11.7405 23.8126Z" fill="#292311"/>
<path fill-rule="evenodd" clip-rule="evenodd" d="M10.2956 19.9245C10.3239 19.9036 10.3501 19.88 10.374 19.8541C10.3036 19.9858 9.97854 20.5126 10.2421 21.3421C10.5056 22.1679 11.1676 22.7837 11.9828 22.8123C12.7981 22.8409 13.2266 22.442 13.7165 21.8441C13.9087 21.6057 14.1296 21.3065 14.3253 21.1037C14.6172 20.7867 14.8451 20.6977 14.8451 20.3917C14.8451 19.7652 14.2042 19.4838 13.2608 19.2027C12.3175 18.9216 11.4666 18.9563 11.0252 19.1487C10.5945 19.3585 10.4094 19.5793 10.2953 19.9248L10.2956 19.9245Z" fill="#252211"/>
<path fill-rule="evenodd" clip-rule="evenodd" d="M13.3249 24.0931L13.3953 24.0575C13.3953 24.0575 13.4129 23.7758 13.527 23.7834C13.6408 23.8012 13.6943 23.9509 13.6835 24.0042C13.6764 24.0575 13.648 24.1466 13.534 24.1358C13.3845 24.1394 13.3242 24.0931 13.3242 24.0931H13.3249Z" fill="#3F3824"/>
<path fill-rule="evenodd" clip-rule="evenodd" d="M13.0078 22.8979C13.0078 22.8979 13.0782 22.873 13.1643 22.9584C13.2347 22.9584 13.5417 22.9228 13.6379 22.9833C13.7341 23.0439 13.7625 23.0971 13.7625 23.0971C13.7625 23.0971 13.403 23.1755 13.207 23.0971C13.0078 23.0295 13.0078 22.8979 13.0078 22.8979Z" fill="#2D2815"/>
<path fill-rule="evenodd" clip-rule="evenodd" d="M14.5918 22.9499C14.5918 22.9321 14.3996 22.8005 14.1966 22.7575C14.1609 22.7505 14.1536 22.7754 14.1262 22.7754C14.1083 22.7683 14.1013 22.7148 14.1013 22.7148L13.9858 22.7756C13.9858 22.7756 13.968 22.8005 14.0286 22.846C14.0818 22.8887 14.171 22.9244 14.1959 22.9955C14.2208 23.0666 14.2208 23.0914 14.2316 23.1022C14.2386 23.1093 14.3632 23.1022 14.4238 23.0666C14.4843 23.0309 14.5984 22.9727 14.5911 22.9492L14.5918 22.9499Z" fill="#82764F"/>
<path fill-rule="evenodd" clip-rule="evenodd" d="M12.7939 23.6732C12.7939 23.6732 12.8294 23.4278 13.068 23.417C13.3135 23.3991 13.36 23.6376 13.36 23.6376L13.2175 23.78C13.2175 23.7765 13.1107 23.627 12.7951 23.6732H12.7939Z" fill="#2D2816"/>
<path fill-rule="evenodd" clip-rule="evenodd" d="M14.3425 22.6158C14.3425 22.6158 14.2107 22.7583 13.919 22.801C13.8941 22.7653 13.8406 22.6942 13.919 22.5803C13.9974 22.4665 14.0863 22.4308 14.1752 22.4663C14.2145 22.4726 14.2511 22.4901 14.2807 22.5166C14.3104 22.5431 14.3318 22.5775 14.3425 22.6158Z" fill="#574F35"/>
<path fill-rule="evenodd" clip-rule="evenodd" d="M14.8806 22.7894C14.8879 22.7538 14.863 22.7467 14.8806 22.7289C14.8982 22.711 14.9947 22.6756 15.0125 22.6932C15.0195 22.7005 15.0125 22.7289 15.0125 22.7636C15.0125 22.7983 15.0125 22.834 14.9947 22.8596C14.9698 22.8953 14.8987 22.9131 14.863 22.9025C14.8274 22.892 14.8203 22.842 14.8203 22.8321C14.8379 22.8251 14.8806 22.8073 14.8806 22.7894ZM15.4884 22.4051C15.4884 22.3872 15.549 22.3516 15.5846 22.3516C15.6379 22.3516 15.6379 22.3943 15.6452 22.4051C15.6628 22.4121 15.6628 22.3978 15.6806 22.4299C15.6984 22.4621 15.7235 22.5189 15.7055 22.5545C15.6874 22.5902 15.6165 22.6148 15.5989 22.6078C15.5741 22.59 15.4957 22.4299 15.4884 22.4051Z" fill="#82764F"/>
<path fill-rule="evenodd" clip-rule="evenodd" d="M14.2646 22.8713C14.2646 22.8713 14.343 22.8889 14.4498 22.9781C14.4141 23.003 14.3606 23.0314 14.3606 23.0314C14.3606 23.0314 14.3536 22.9495 14.2646 22.8711V22.8713Z" fill="#6E6342"/>
<path fill-rule="evenodd" clip-rule="evenodd" d="M14.0897 22.0892C14.0719 22.0716 14.143 22.0289 14.1857 22.0359C14.2284 22.0429 14.2463 22.0716 14.2925 22.0786C14.3387 22.0856 14.346 22.0608 14.3629 22.0429C14.3798 22.0251 14.4413 22.0359 14.4518 22.0429C14.4584 22.0508 14.4644 22.0591 14.4697 22.0678C14.4704 22.0543 14.4739 22.041 14.48 22.0289C14.4861 22.0168 14.4947 22.0061 14.5051 21.9974C14.5188 21.9874 14.5345 21.9806 14.5512 21.9775C14.5678 21.9744 14.585 21.9751 14.6013 21.9796C14.6084 22.0044 14.644 22.0934 14.637 22.1112C14.6299 22.1291 14.5232 22.1542 14.5051 22.1361C14.5229 22.179 14.6013 22.268 14.6119 22.2856C14.6224 22.3032 14.5335 22.3461 14.4981 22.3391C14.4483 22.3356 14.1421 22.1575 14.0888 22.0899L14.0897 22.0892ZM14.556 21.4983C14.5494 21.4803 14.5368 21.4652 14.5204 21.4555C14.4955 21.4485 14.4136 21.4555 14.4136 21.4983C14.4136 21.541 14.484 21.7799 14.5631 21.9042C14.6522 22.0289 14.7125 22.1319 14.7731 22.1605C14.7921 22.1692 14.8137 22.1703 14.8335 22.1637C14.8533 22.1571 14.8699 22.1432 14.8799 22.1248C14.8869 22.107 14.9047 21.9753 14.8977 21.6656C14.8907 21.3558 14.8799 21.0568 14.862 21.039C14.8442 21.0212 14.7731 21.0214 14.7482 21.0568C14.7233 21.0923 14.5631 21.445 14.5558 21.4983H14.556Z" fill="#585136"/>
<path fill-rule="evenodd" clip-rule="evenodd" d="M14.2393 23.3209C14.2393 23.3209 14.1147 23.2425 13.9936 23.296C13.8798 23.3495 13.8868 23.5595 13.8868 23.5595C13.9124 23.5695 13.9401 23.5731 13.9674 23.57C13.9947 23.5669 14.0209 23.5572 14.0436 23.5417C14.122 23.4884 14.2215 23.3995 14.2393 23.3211V23.3209Z" fill="#574F35"/>
<path fill-rule="evenodd" clip-rule="evenodd" d="M14.4747 23.6027C14.4677 23.5323 14.4043 23.5323 14.4043 23.4959C14.4087 23.4785 14.4187 23.4631 14.4329 23.4521C14.4471 23.4411 14.4645 23.4352 14.4824 23.4354C14.5181 23.4354 14.5528 23.4781 14.5965 23.5058C14.6392 23.5306 14.7033 23.5762 14.7103 23.6304C14.7173 23.6846 14.6399 23.8331 14.5538 23.8331C14.4677 23.8331 14.4932 23.6728 14.4754 23.6017L14.4747 23.6027ZM15.1618 23.5065C15.1618 23.5065 15.0194 23.5492 15.0299 23.5065C15.0405 23.4637 15.0729 23.4532 15.1191 23.4532C15.1426 23.4286 15.1742 23.4133 15.208 23.4102C15.2274 23.4093 15.2464 23.4157 15.2613 23.4281C15.2613 23.4281 15.3575 23.3854 15.3859 23.4102C15.4143 23.4351 15.3932 23.4351 15.4108 23.4637C15.4332 23.4955 15.4479 23.5321 15.4537 23.5705C15.4537 23.5989 15.347 23.6595 15.2613 23.6489C15.1618 23.6275 15.1794 23.5243 15.1618 23.5065ZM15.9911 23.3462C15.9911 23.3462 16.0338 23.371 15.9984 23.3997C15.9735 23.4246 15.8489 23.4701 15.7419 23.4781C15.6351 23.4781 15.5391 23.4957 15.5391 23.4602C15.5391 23.4248 15.6281 23.3534 15.6814 23.3356C15.692 23.3222 15.7056 23.3114 15.721 23.304C15.7365 23.2967 15.7534 23.2928 15.7705 23.2929C15.8132 23.2929 15.9803 23.2751 16.0268 23.268C16.0695 23.2608 16.1052 23.2856 16.0801 23.3213C16.0695 23.3462 15.9911 23.3462 15.9911 23.3462ZM16.2368 22.247C16.2368 22.247 16.1833 22.3608 16.123 22.3608C16.0625 22.3537 16.0625 22.3359 16.0625 22.3181C16.0625 22.2932 16.123 22.2291 16.1157 22.2113C16.0981 22.2113 16.0552 22.2113 16.0625 22.1686C16.0625 22.1329 16.123 22.0902 16.1763 22.0982C16.2165 22.0651 16.2666 22.0464 16.3187 22.0449C16.3793 22.0449 16.4325 22.0625 16.4325 22.0982C16.4325 22.1339 16.3621 22.212 16.3363 22.2301C16.3079 22.2585 16.2722 22.277 16.2368 22.2477V22.247ZM15.4251 24.3508C15.4251 24.3508 15.3547 24.3581 15.3547 24.3935C15.3547 24.4113 15.3723 24.4113 15.3974 24.4008C15.4119 24.4 15.4262 24.3975 15.4401 24.3935C15.4472 24.4008 15.4472 24.4362 15.5007 24.4362C15.5446 24.4303 15.5869 24.4158 15.6253 24.3935C15.668 24.3759 15.7036 24.3578 15.7036 24.3231C15.6858 24.2626 15.6501 24.2339 15.5969 24.2339C15.5696 24.2322 15.5424 24.2384 15.5185 24.2518C15.5185 24.2518 15.5007 24.2161 15.4401 24.2518C15.3796 24.2874 15.3866 24.2874 15.4044 24.3053C15.4364 24.3337 15.4258 24.3522 15.4258 24.3522L15.4251 24.3508ZM15.0229 24.7211C15.0229 24.7033 15.1118 24.6676 15.1367 24.6784C15.1616 24.6854 15.2327 24.8206 15.2327 24.8349C15.2327 24.8528 15.1437 24.8955 15.1081 24.8955C15.0724 24.8955 15.0121 24.8349 15.0121 24.8251C15.0121 24.818 15.0548 24.8075 15.0548 24.8002C15.0654 24.7826 15.0229 24.7397 15.0229 24.7218V24.7211ZM14.7413 24.2013C14.7591 24.1943 14.7591 24.1764 14.784 24.1586C14.7918 24.1534 14.8006 24.1501 14.8099 24.1489C14.8192 24.1477 14.8286 24.1486 14.8375 24.1516C14.8438 24.1404 14.8525 24.1307 14.8629 24.1233C14.8734 24.1159 14.8854 24.1108 14.898 24.1086C14.9407 24.1016 14.9764 24.1086 14.9684 24.1265C14.9684 24.18 15.0041 24.2154 15.0041 24.2581C15.0041 24.3008 14.9792 24.3543 14.8903 24.39C14.8014 24.4149 14.6803 24.4149 14.6624 24.4078C14.6446 24.4008 14.6268 24.3294 14.6446 24.2938C14.6624 24.2581 14.7122 24.2192 14.7408 24.2013H14.7413Z" fill="#82764F"/>
<path fill-rule="evenodd" clip-rule="evenodd" d="M14.8548 24.2246C14.8548 24.2246 14.7943 24.2603 14.7943 24.2781C14.7889 24.2953 14.7865 24.3133 14.7872 24.3314C14.7872 24.3419 14.8656 24.3243 14.8762 24.3135C14.8797 24.3065 14.8548 24.2431 14.8548 24.2246Z" fill="#6E6342"/>
<path fill-rule="evenodd" clip-rule="evenodd" d="M14.3251 24.0577C14.3605 24.0649 14.4211 24.0577 14.4673 24.0755C14.503 24.0933 14.5278 24.129 14.4922 24.1717C14.4565 24.2144 14.4218 24.2785 14.3427 24.2677C14.2538 24.2606 14.1683 24.2144 14.1683 24.1787C14.1668 24.1562 14.1699 24.1335 14.1772 24.1122C14.1845 24.0908 14.196 24.0711 14.211 24.0542C14.2467 24.0258 14.2643 24.0436 14.3249 24.0577H14.3251Z" fill="#585136"/>
<path fill-rule="evenodd" clip-rule="evenodd" d="M14.2824 24.0938C14.2824 24.0938 14.1686 24.1827 14.14 24.2256C14.1043 24.2683 13.93 24.4889 13.8767 24.5352C13.8944 24.5039 13.9146 24.4742 13.937 24.4462C13.8666 24.4912 13.8139 24.5591 13.7876 24.6384C13.7448 24.7703 14.0262 24.8414 14.2111 24.8949C14.396 24.9484 14.4676 24.9653 14.4676 24.9653C14.3995 24.863 14.3411 24.7546 14.293 24.6415C14.2226 24.4741 14.1862 24.4563 14.2325 24.3779C14.2681 24.2996 14.3216 24.2463 14.3216 24.1857C14.3003 24.1294 14.2824 24.0938 14.2824 24.0938Z" fill="#574F35"/>
<path fill-rule="evenodd" clip-rule="evenodd" d="M10.2241 24.3743C10.25 24.3791 10.2766 24.3791 10.3025 24.3743C10.3557 24.367 10.9112 24.1631 11.4915 24.1997C11.926 24.226 12.3566 24.2967 12.7766 24.4109C13.5064 24.6031 14.4141 24.984 15.0014 25.2013C15.158 25.2616 15.3112 25.3686 15.4238 25.4111C15.8725 25.5857 15.8901 25.5857 16.1537 25.6319C16.4634 25.6746 16.7802 25.5714 17.1113 25.5003C17.5171 25.4111 18.2112 25.3684 18.8199 25.2794C19.0168 25.2522 19.2109 25.2081 19.4003 25.1478C19.4003 25.1478 18.9162 25.6319 17.7555 25.8063C17.2863 25.8775 16.8096 25.8835 16.3388 25.8241C15.9685 25.7884 15.723 25.7349 15.5379 25.6817C15.3279 25.6211 14.897 25.4608 14.3667 25.3297C13.9964 25.2334 13.5834 25.1623 13.11 25.0734C11.9423 24.8596 10.6751 24.6141 10.2236 24.3757L10.2241 24.3743Z" fill="#252211"/>
<path fill-rule="evenodd" clip-rule="evenodd" d="M8.91403 22.1738C8.63243 22.4122 8.3337 22.6401 8.04201 22.8607L7.16271 23.5363C6.86375 23.7569 6.57182 23.9848 6.27262 24.2056C5.97342 24.4264 5.67469 24.6362 5.35742 24.8392C5.63902 24.6008 5.93775 24.3799 6.23672 24.1629C6.53568 23.9458 6.84568 23.733 7.13408 23.5128L8.01338 22.8363C8.31586 22.6157 8.60779 22.3878 8.91403 22.1743V22.1738ZM7.35842 24.6658C7.35842 24.6658 7.67522 24.4022 8.0704 24.0322C8.56156 23.5731 9.16325 22.9855 9.35544 22.879L7.35819 24.666L7.35842 24.6658Z" fill="#CFB66C"/>
<path fill-rule="evenodd" clip-rule="evenodd" d="M7.3584 24.6654C7.51516 24.5088 7.68247 24.3558 7.84979 24.2061L8.10605 23.9855C8.18443 23.9151 8.2736 23.836 8.35174 23.7577C8.50827 23.6011 8.6615 23.4336 8.81803 23.2735C8.89561 23.1931 8.97763 23.117 9.06372 23.0457C9.10676 23.0076 9.15456 22.9753 9.20593 22.9495C9.24887 22.9246 9.2951 22.8791 9.35541 22.8711C9.31998 22.9246 9.27727 22.9495 9.2416 22.9957C9.19889 23.0314 9.16322 23.0741 9.12779 23.1095C9.04941 23.1879 8.96047 23.259 8.88209 23.3303C8.71477 23.4728 8.54041 23.6119 8.3731 23.761C8.20578 23.91 8.04926 24.0707 7.8817 24.2202C7.70031 24.3734 7.53299 24.5229 7.3584 24.6661V24.6654ZM9.4873 23.2414C9.4873 23.2414 8.32687 24.3772 8.08821 24.5621L9.4873 23.2414Z" fill="#CFB66C"/>
<path fill-rule="evenodd" clip-rule="evenodd" d="M9.48697 23.2422C9.38258 23.363 9.27066 23.4771 9.15187 23.5839L8.79987 23.9185C8.68606 24.0323 8.57905 24.1464 8.45819 24.2602C8.33359 24.3669 8.21977 24.4714 8.08789 24.5699L8.42957 24.2353C8.54361 24.1215 8.66822 24.0255 8.78931 23.9115L9.13098 23.5768C9.24832 23.4595 9.36237 23.3454 9.48697 23.2422ZM9.54024 23.858C9.43328 24.1565 9.30724 24.4478 9.1629 24.7302C8.86393 25.3284 8.41548 26.0758 8.21954 26.4569L9.54024 23.858Z" fill="#CFB66C"/>
<path fill-rule="evenodd" clip-rule="evenodd" d="M9.54082 23.8574C9.54082 23.9891 9.50515 24.1031 9.46244 24.2169C9.42081 24.3308 9.37334 24.4425 9.32023 24.5516C9.26673 24.6583 9.20618 24.7724 9.14564 24.8756C9.08509 24.9789 9.01399 25.0854 8.96049 25.1924L8.60098 25.826C8.47637 26.0372 8.35528 26.2496 8.22363 26.4526C8.31257 26.2247 8.43366 26.0112 8.54771 25.8012C8.67232 25.59 8.78613 25.3788 8.89971 25.1603C8.95516 25.0514 9.00505 24.9398 9.04919 24.8259C9.10246 24.7118 9.15573 24.6051 9.19867 24.5018C9.25194 24.388 9.29465 24.281 9.34816 24.178C9.40846 24.0674 9.45845 23.9607 9.54035 23.8574H9.54082Z" fill="#CFB66C"/>
<path fill-rule="evenodd" clip-rule="evenodd" d="M10.8076 26.7773C10.8076 26.7773 10.4556 27.2436 10.4908 27.8345C10.5867 27.525 10.7078 27.0514 10.8076 26.7773ZM11.1422 27.2448C11.1422 27.2448 11.0176 28.512 10.9143 29.135C11.0603 28.4148 11.0887 28.4754 11.1422 27.2448ZM13.4738 29.2099C13.4738 29.2099 12.947 30.7587 12.9362 31.1891C13.0503 30.7465 13.2709 29.8423 13.4738 29.2087V29.2099Z" fill="#DEC270"/>
<path fill-rule="evenodd" clip-rule="evenodd" d="M14.7061 26.6816C14.7061 26.6816 15.5605 28.0913 16.2014 29.2944C16.0279 28.689 15.629 27.5785 14.7061 26.6816Z" fill="#CBAF59"/>
<path fill-rule="evenodd" clip-rule="evenodd" d="M17.002 28.7559C17.4711 29.5851 17.8941 30.4396 18.2692 31.3154C18.198 30.7102 18.0056 29.6743 17.002 28.7559Z" fill="#E3C677"/>
<path fill-rule="evenodd" clip-rule="evenodd" d="M23.752 30.836C23.8942 30.747 24.1756 30.2627 24.4213 30.1418C24.6668 30.0172 24.8519 29.9923 25.0727 29.7466C25.2933 29.4901 25.3543 29.3336 25.838 29.1309C26.5145 28.8387 26.0492 28.4614 26.0492 28.4614C26.1237 28.3882 26.2034 28.3204 26.2876 28.2586C26.4622 28.127 26.6649 27.9667 26.6473 27.6853C26.6225 27.212 26.5335 26.5249 26.1454 26.1262C26.5227 26.0478 27.2453 25.9945 27.6942 25.8807C28.2138 25.7489 28.4524 25.5637 28.4524 25.5637C28.4524 25.5637 28.1534 25.0547 28.6376 24.5422C29.1217 24.0297 29.5169 23.7234 29.8088 23.1502C29.4742 23.1074 28.964 22.9296 27.6621 23.4242C27.7323 23.4573 27.8002 23.4953 27.865 23.5381C27.865 23.5381 27.0641 23.7589 26.7722 24.0046C26.263 24.4352 26.1989 24.7877 25.6472 25.0512C25.0955 25.3147 24.54 25.2434 24.081 25.4569C23.622 25.6705 23.5542 25.8521 23.3866 25.9305C23.4223 25.9732 23.3796 26.0443 23.4472 26.1048C23.4045 26.1654 23.1553 26.5711 22.9025 26.5711C22.9274 26.6673 23.1409 26.7384 23.1409 26.7384C23.1409 26.7384 22.9844 26.8525 22.5857 26.8809C22.7885 27.0921 22.9809 27.3223 23.5113 27.6569C23.4685 27.7459 23.2904 27.8777 23.3618 28.0451C23.4402 28.2124 23.6434 28.4402 24.4546 28.6254C24.0416 28.643 23.5577 28.7392 22.9058 28.6503C22.2544 28.5719 22.1476 28.5257 21.7454 28.6254C21.7881 28.6681 21.9019 28.6681 22.0016 28.7819C21.8949 28.789 21.2256 28.7035 20.9977 29.0027C20.7593 29.3123 20.6561 29.8215 20.6739 30.1632C20.5493 30.2237 20.4282 30.3305 20.4887 30.5513C20.5493 30.7721 20.8661 30.8432 21.0691 30.9819C21.2718 31.1314 21.2897 31.1847 21.4821 31.1492C21.6848 31.1065 21.9838 30.9038 22.1584 30.9038C22.333 30.9038 22.4574 31.0354 22.4574 31.0354C22.4574 31.0354 22.9309 30.8076 22.9772 30.8503C23.0199 30.893 22.9842 31.1671 23.0304 31.2098C23.0774 31.2419 23.6108 30.9251 23.7532 30.836H23.752Z" fill="#ECD592"/>
<path fill-rule="evenodd" clip-rule="evenodd" d="M34.0998 16.5893C31.8749 10.8437 26.3748 9.7793 26.3748 9.7793H10.6829L10.7434 15.6317H13.8685V28.7H10.6826V34.5418H25.9404C29.6176 34.5418 32.5653 30.8465 32.5653 30.8465C37.2856 24.147 34.0995 16.5893 34.0995 16.5893H34.0998ZM26.0223 26.9093C26.0223 26.9093 24.8255 28.636 23.5233 28.636H20.9185L20.8568 15.646H24.1997C24.1997 15.646 25.7485 15.9698 26.8305 19.0348C26.8305 19.0348 28.265 23.4231 26.0223 26.9093Z" fill="white" fill-opacity="0.8"/>
</g>
<defs>
<clipPath id="clip0_11225_243883">
<rect width="44" height="44" fill="white"/>
</clipPath>
</defs>
</svg>
