<svg width="44" height="44" viewBox="0 0 44 44" fill="none" xmlns="http://www.w3.org/2000/svg">
<path d="M22 42C33.0457 42 42 33.0457 42 22C42 10.9543 33.0457 2 22 2C10.9543 2 2 10.9543 2 22C2 33.0457 10.9543 42 22 42Z" fill="black"/>
<path d="M21.9978 37.562C30.5937 37.562 37.562 30.5937 37.562 21.9978C37.562 13.4019 30.5937 6.43359 21.9978 6.43359C13.4019 6.43359 6.43359 13.4019 6.43359 21.9978C6.43359 30.5937 13.4019 37.562 21.9978 37.562Z" fill="#F1BC4B"/>
<path d="M14.5068 28.2043L19.9387 20.6712C20.9271 19.3794 21.7053 18.4456 22.6858 17.2782V17.2004H15.1061V12.5078H29.2072V16.0565L24.0243 23.2782C23.0749 24.5312 22.1878 25.7374 21.2072 26.788V26.8658H29.4952V31.5895H14.5068V28.2043Z" fill="black"/>
<path d="M24.0779 9.02734H19.7744V13.2297H24.0779V9.02734Z" fill="black"/>
<path d="M24.0779 30.7734H19.7744V34.9758H24.0779V30.7734Z" fill="black"/>
</svg>
