<svg width="40" height="40" viewBox="0 0 40 40" fill="none" xmlns="http://www.w3.org/2000/svg">
<path fill-rule="evenodd" clip-rule="evenodd" d="M15.941 14.9055C15.8662 15.1939 15.7358 15.4646 15.5571 15.7025C15.2243 16.1363 14.7839 16.4745 14.2801 16.6835C13.8269 16.8796 13.3469 17.0065 12.8563 17.0596C12.7554 17.0725 12.6509 17.0804 12.5495 17.0881L12.533 17.0894C12.2223 17.1013 11.9235 17.2128 11.6804 17.4075C11.4373 17.6024 11.2626 17.8703 11.182 18.1719C11.1451 18.322 11.1176 18.4743 11.0999 18.6279C11.0716 18.8595 11.0571 19.0967 11.0414 19.3532C11.0301 19.5372 11.0181 19.7313 11.0001 19.9404C10.8946 20.7925 10.6492 21.621 10.2741 22.3924C10.1975 22.5545 10.1194 22.7117 10.0425 22.8661C9.63123 23.6936 9.2596 24.4411 9.36623 25.4423C9.44973 26.2137 9.84311 26.7305 10.3657 27.2637C10.614 27.5187 10.9431 27.7366 11.2848 27.9628C12.241 28.5958 13.2953 29.2938 12.9479 31.0524C12.6637 32.4773 10.3119 33.9725 7.00631 34.4948C7.32694 34.4459 6.62068 33.2354 6.54231 33.101L6.53756 33.0929C6.44643 32.9495 6.35305 32.8083 6.25993 32.6673C5.99092 32.26 5.72292 31.8549 5.51391 31.4056C4.96166 30.2325 4.70565 28.8752 4.93191 27.5897C5.13691 26.4263 5.90267 25.4969 6.63981 24.602C6.76006 24.4561 6.87944 24.3113 6.99556 24.1664C7.98158 22.9364 9.01609 21.3247 9.24497 19.7281C9.26435 19.5893 9.2816 19.4381 9.29972 19.2789C9.33222 18.994 9.36747 18.6839 9.42285 18.3749C9.50498 17.8413 9.67148 17.3241 9.91586 16.8431C10.0826 16.5278 10.3022 16.2435 10.5651 16.0029C10.7021 15.8751 10.7925 15.7049 10.8219 15.5194C10.8511 15.334 10.8176 15.144 10.7267 14.9799L5.45729 5.45921L13.026 14.8419C13.1123 14.9506 13.2212 15.039 13.3452 15.1006C13.4692 15.1622 13.6052 15.1957 13.7434 15.1987C13.8818 15.2017 14.019 15.1741 14.1456 15.1177C14.2721 15.0615 14.3847 14.9779 14.4754 14.873C14.5713 14.7607 14.6257 14.6186 14.6293 14.4706C14.6331 14.3227 14.5858 14.1781 14.4956 14.0611C14.1437 13.6093 13.7774 13.1515 13.4129 12.6956C13.2654 12.5112 13.118 12.3268 12.9722 12.1437L11.0675 9.77578L7.24469 5.04783L3 0L7.73507 4.62432L11.8043 9.14377L13.8343 11.4089C14.0208 11.6199 14.2073 11.8291 14.3937 12.0381C14.8807 12.5841 15.3677 13.1301 15.8547 13.7093L15.9652 13.8446L15.9895 14.0543C16.0222 14.3387 16.0058 14.6267 15.941 14.9055ZM35.4064 18.0874L35.4144 18.0997C35.413 17.0901 34.7908 15.4245 33.5314 13.8223L33.5017 13.7831C33.1137 13.3015 32.691 12.8492 32.2368 12.4299C32.152 12.3474 32.0605 12.2662 31.9675 12.1851C31.3856 11.6753 30.7496 11.2314 30.0709 10.8617L30.0224 10.8373C27.8901 9.6709 25.1153 9.07014 21.6939 9.74665C21.2344 9.18627 20.7395 8.65614 20.2123 8.1595C19.4048 7.38649 18.4542 6.78023 17.4146 6.37473C16.3842 5.99584 15.2807 5.86059 14.1898 5.97959C15.2413 6.07472 16.2656 6.36848 17.2085 6.84561C18.1191 7.33574 18.9393 7.97925 19.633 8.74814C20.3363 9.53303 20.9973 10.355 21.6132 11.2108L21.7677 11.4129C22.3703 12.2013 22.9838 13.004 23.7481 13.7182C24.1688 14.1158 24.6382 14.4582 25.145 14.7371C25.2796 14.8061 25.4157 14.871 25.5491 14.9279C25.6824 14.9847 25.8076 15.0375 25.9424 15.0862C26.2024 15.1876 26.4717 15.2716 26.7411 15.3487C27.8188 15.6572 28.9219 15.7681 29.9996 15.8278C30.1494 15.8356 30.2991 15.843 30.4481 15.8504C30.8329 15.8695 31.2146 15.8884 31.5903 15.9156C32.1051 15.9464 32.6157 16.027 33.1151 16.1565C33.8652 16.353 34.5256 16.8019 34.9861 17.4284C35.1426 17.6372 35.2831 17.8574 35.4064 18.0874ZM32.2521 12.4316C32.198 12.3813 32.1428 12.3316 32.088 12.2819C32.0527 12.2501 32.0175 12.2183 31.9827 12.1866C32.0096 12.2112 32.0365 12.2361 32.0633 12.2611C32.1266 12.3197 32.1897 12.3783 32.2521 12.4316ZM30.9052 22.3969C27.4399 20.9843 23.8151 19.5067 24.3547 15.3596C25.5117 16.6005 27.3279 16.8608 29.3032 17.1439C31.0951 17.4006 33.0178 17.6762 34.6984 18.7194C38.6638 21.1795 38.0847 25.9587 36.7377 27.7178C36.8592 24.8238 33.9435 23.6354 30.9052 22.3969ZM16.9441 20.3212C17.8587 20.2332 19.8079 19.7556 18.9364 18.2143C18.7489 17.9008 18.4771 17.6468 18.1524 17.4813C17.8276 17.3159 17.463 17.2459 17.1003 17.2793C16.7325 17.319 16.3855 17.4714 16.1067 17.7159C15.828 17.9604 15.6307 18.285 15.5419 18.6459C15.2712 19.6541 15.5581 20.4564 16.9441 20.3212ZM16.6812 8.12688C16.1075 7.46112 15.2171 7.11199 14.3442 6.98486C14.3116 7.20324 14.2909 7.42324 14.2823 7.64387C14.2432 9.46102 14.8857 11.4569 16.129 12.844C16.5267 13.2923 17.0063 13.6597 17.542 13.9265C17.8517 14.078 18.6735 14.4541 18.9779 14.1158C19.001 14.0848 19.0156 14.0482 19.0201 14.0097C19.0246 13.9712 19.0189 13.9322 19.0035 13.8967C18.953 13.7518 18.8556 13.6203 18.7589 13.4898C18.6902 13.3973 18.622 13.3053 18.5711 13.2092C18.5196 13.1125 18.4645 13.018 18.4095 12.9237C18.3061 12.7465 18.203 12.5696 18.1239 12.3771C17.9151 11.8732 17.8065 11.3374 17.6981 10.8033C17.6765 10.6965 17.6547 10.5892 17.6322 10.4827C17.4666 9.65865 17.2551 8.79264 16.6812 8.12688ZM28.9409 22.6229C28.0508 25.1183 29.4864 27.2259 30.9137 29.3212C32.5101 31.6649 34.096 33.993 32.404 36.8308C35.692 35.4669 37.2532 31.3466 35.8886 28.0774C35.0289 26.0097 32.9566 24.8886 31.0331 23.8483C30.2868 23.4446 29.5628 23.053 28.9409 22.6229ZM19.3193 28.5796C18.7234 28.8238 18.1615 29.1445 17.6476 29.5336C18.8161 29.1078 20.0426 28.8647 21.2845 28.8123C21.5095 28.799 21.7362 28.7885 21.9647 28.7778C22.3594 28.7596 22.7609 28.7411 23.1703 28.7068C23.8415 28.6611 24.5035 28.5245 25.1382 28.3008C25.8035 28.0671 26.4089 27.6881 26.9109 27.1913C27.4181 26.6784 27.7739 26.0344 27.9386 25.3307C28.0836 24.6659 28.0633 23.9755 27.8794 23.3206C27.6954 22.6656 27.3535 22.0663 26.884 21.5757C27.1105 22.153 27.2499 22.7609 27.2975 23.3795C27.3385 23.9554 27.2605 24.5335 27.0685 25.0776C26.881 25.5934 26.5745 26.0572 26.1741 26.4308C25.7605 26.8082 25.2816 27.1062 24.7611 27.3103C24.0377 27.6031 23.2197 27.7228 22.3677 27.8476C21.979 27.9044 21.5833 27.9624 21.1862 28.0383C20.5475 28.1558 19.922 28.3372 19.3193 28.5796ZM29.6488 38.8814L29.5917 38.9275C29.441 39.0491 29.288 39.173 29.1232 39.2841C28.913 39.4231 28.6929 39.5462 28.4645 39.6521C27.9889 39.8853 27.4661 40.0043 26.937 39.9999C25.5039 39.9729 24.4908 38.9012 23.8982 37.6901C23.7428 37.3727 23.6059 37.0455 23.4691 36.7182C23.2499 36.1944 23.0308 35.6707 22.7357 35.1868C22.0502 34.0624 20.8769 33.1572 19.503 33.3249C18.9426 33.3953 18.4172 33.6483 18.1061 34.1368C17.2871 35.4128 18.4631 37.2003 19.9623 36.9472C20.0898 36.9277 20.2145 36.8932 20.334 36.8445C20.4532 36.7935 20.5643 36.7256 20.664 36.6428C20.8735 36.4676 21.0313 36.2385 21.1207 35.9798C21.2192 35.7101 21.241 35.4182 21.184 35.1368C21.1225 34.8426 20.9495 34.584 20.7018 34.4155C20.9899 34.551 21.2144 34.7937 21.3282 35.0921C21.446 35.3993 21.4764 35.7333 21.4157 36.0569C21.3568 36.394 21.2089 36.709 20.9873 36.969C20.8697 37.1026 20.7335 37.2188 20.5833 37.314C20.4343 37.408 20.2746 37.4838 20.1078 37.54C19.7694 37.6561 19.4093 37.6936 19.0544 37.6496C18.5561 37.5782 18.0862 37.3735 17.694 37.0568C17.6215 36.9993 17.552 36.9391 17.4846 36.8766C17.2177 36.6453 16.9755 36.3865 16.7618 36.1042C16.666 35.9982 16.5686 35.8936 16.4668 35.7931C15.9866 35.2868 15.4199 34.8712 14.7938 34.5658C14.3621 34.3753 13.9102 34.2345 13.4469 34.1463C13.2138 34.0975 12.9782 34.0624 12.7424 34.0327C12.7168 34.03 12.6677 34.0214 12.6064 34.0108C12.4096 33.9764 12.089 33.9205 12.0325 33.973C12.7612 33.2993 13.5553 32.7009 14.4032 32.1869C15.2738 31.668 16.2086 31.2662 17.1835 30.9921C18.1941 30.7064 19.2514 30.6249 20.2936 30.7526C20.8302 30.8174 21.3557 30.9539 21.8562 31.1585C22.3806 31.369 22.8646 31.6694 23.2867 32.0463C23.7043 32.4415 24.042 32.9144 24.2807 33.4385C24.4963 33.9294 24.6571 34.4427 24.7602 34.9689C24.8155 35.2522 24.8572 35.5633 24.9002 35.8854C25.0966 37.3533 25.3235 39.0471 27.0058 39.3422C27.1126 39.3631 27.2205 39.3785 27.329 39.3884L27.6644 39.3964C27.895 39.3799 28.1241 39.3469 28.35 39.2976C28.818 39.1871 29.2742 39.0307 29.7118 38.8309L29.6488 38.8814ZM16.8503 36.2029C16.8906 36.2492 16.9313 36.2949 16.9726 36.3403C16.9557 36.3215 16.939 36.3025 16.9221 36.2836C16.8982 36.2567 16.8743 36.2298 16.8503 36.2029Z" fill="#FF007A"/>
</svg>
